<?xml version="1.0" standalone="no"?>
<!DOCTYPE svg PUBLIC "-//W3C//DTD SVG 1.1//EN" "http://www.w3.org/Graphics/SVG/1.1/DTD/svg11.dtd" >
<svg xmlns="http://www.w3.org/2000/svg" xmlns:xlink="http://www.w3.org/1999/xlink" version="1.1">
<metadata>
Created by FontForge 20170731 at Wed May 26 19:18:03 2021
 By Aleksey,,,
Copyright (c) 2016 by Red Hat, Inc. All rights reserved.
</metadata>
<defs>
<font id="Overpass-Regular" horiz-adv-x="1153" >
  <font-face 
    font-family="Overpass"
    font-weight="400"
    font-stretch="normal"
    units-per-em="2048"
    panose-1="0 0 5 0 0 0 0 0 0 0"
    ascent="1536"
    descent="-512"
    x-height="1047"
    cap-height="1434"
    bbox="-500 -774 2466 2175"
    underline-thickness="172"
    underline-position="-364"
    unicode-range="U+0020-1F427"
  />
<missing-glyph horiz-adv-x="481" 
 />
    <glyph glyph-name="fi" unicode="fi" horiz-adv-x="1202" 
d="M942 1237q-46 0 -78.5 32.5t-32.5 78.5q0 47 32.5 80.5t78.5 33.5q47 0 80 -33.5t33 -80.5q0 -46 -33 -78.5t-80 -32.5zM408 891v-891h-179v891h-161v156h161v174q0 65 19.5 113t53 74t72 38t83.5 12q104 0 194 -49v-149q-81 38 -149 38q-58 0 -76 -28.5t-18 -79.5v-143
h243v-156h-243zM854 0v1047h178v-1047h-178z" />
    <glyph glyph-name="fl" unicode="fl" horiz-adv-x="1218" 
d="M862 0v1395l178 84v-1479h-178zM408 891v-891h-179v891h-161v156h161v174q0 65 19.5 113t53 74t72 38t83.5 12q104 0 194 -49v-149q-81 38 -149 38q-58 0 -76 -28.5t-18 -79.5v-143h243v-156h-243z" />
    <glyph glyph-name=".notdef" horiz-adv-x="481" 
 />
    <glyph glyph-name=".null" horiz-adv-x="0" 
 />
    <glyph glyph-name="nonmarkingreturn" horiz-adv-x="682" 
 />
    <glyph glyph-name="space" unicode=" " horiz-adv-x="481" 
 />
    <glyph glyph-name="exclam" unicode="!" horiz-adv-x="559" 
d="M252 395l-59 615v448h180v-448l-62 -615h-59zM281 -27q-60 0 -101 41.5t-41 98.5t41 99t101 42q59 0 100 -42t41 -99q0 -56 -41 -98t-100 -42z" />
    <glyph glyph-name="quotedbl" unicode="&#x22;" horiz-adv-x="825" 
d="M109 1434h221l-39 -560h-146zM494 1434h223l-39 -560h-146z" />
    <glyph glyph-name="numbersign" unicode="#" horiz-adv-x="1398" 
d="M283 0l61 403h-242l25 152h240l53 352h-234l23 150h233l60 377h160l-58 -377h289l57 377h162l-59 -377h243l-22 -150h-244l-53 -352h235l-22 -152h-236l-61 -403h-162l62 403h-287l-62 -403h-161zM528 555h287l55 352h-288z" />
    <glyph glyph-name="dollar" unicode="$" horiz-adv-x="1204" 
d="M510 -201v185q-144 23 -247.5 106.5t-143.5 204.5l168 61q42 -98 127 -154.5t198 -56.5q127 0 199 61.5t72 178.5q0 59 -24.5 107t-72.5 84t-97.5 61t-119.5 51q-51 19 -84.5 33t-80.5 37.5t-78 45t-64.5 54t-53.5 67t-33 80.5t-13 99q0 133 93 230t255 118v164h180v-166
q121 -20 202 -86t109 -162l-163 -55q-28 64 -93.5 103.5t-162.5 39.5q-110 0 -172 -49t-62 -137q0 -38 17 -71t41.5 -56.5t68.5 -47.5t79 -39.5t93 -37.5q49 -19 85 -34.5t83 -40t80.5 -49t68.5 -60.5t56.5 -75.5t35 -92t13.5 -111.5q0 -173 -104 -278.5t-275 -128.5v-183
h-180z" />
    <glyph glyph-name="percent" unicode="%" horiz-adv-x="1781" 
d="M436 729q-87 0 -153 32.5t-103.5 86.5t-55.5 116t-18 130q0 63 18 124t55 116.5t103.5 89.5t153.5 34q86 0 152 -32t103 -85.5t55 -115.5t18 -131q0 -50 -10 -99t-35 -97.5t-61 -85.5t-93.5 -60t-128.5 -23zM487 -25h-172l979 1483h172zM436 870q85 0 130.5 64.5
t45.5 159.5q0 101 -45.5 162t-130.5 61q-88 0 -132 -62t-44 -161q0 -102 44.5 -163t131.5 -61zM1346 -25q-86 0 -152 32.5t-103 86.5t-55 116t-18 130q0 50 10.5 99t35.5 97.5t61.5 85.5t93.5 60t127 23q87 0 153 -32t103 -86t55 -116t18 -131q0 -50 -10 -99t-34.5 -97.5
t-61 -85.5t-94.5 -60t-129 -23zM1346 117q86 0 131 63.5t45 159.5q0 102 -45 162.5t-131 60.5q-87 0 -132 -62.5t-45 -160.5q0 -101 45.5 -162t131.5 -61z" />
    <glyph glyph-name="ampersand" unicode="&#x26;" horiz-adv-x="1386" 
d="M522 -25q-184 0 -297.5 108.5t-113.5 287.5q0 78 24.5 144t73 119.5t102.5 93.5t131 83q-90 111 -126.5 182.5t-36.5 153.5q0 143 97.5 227t246.5 84q145 0 240 -88.5t95 -226.5q0 -79 -36.5 -147t-91 -116.5t-138.5 -101.5l269 -321q49 106 57 217h170
q-7 -187 -109 -359l264 -315h-231l-141 170q-89 -93 -205 -144t-244 -51zM616 1300q-75 0 -121 -42t-46 -111q0 -50 34.5 -104.5t110.5 -145.5q194 112 194 233q0 77 -49.5 123.5t-122.5 46.5zM551 141q83 0 164 42.5t147 117.5l-321 389q-83 -51 -133.5 -94t-82.5 -98
t-32 -117q0 -107 71.5 -173.5t186.5 -66.5z" />
    <glyph glyph-name="quotesingle" unicode="'" horiz-adv-x="438" 
d="M109 1434h221l-39 -560h-146z" />
    <glyph glyph-name="parenleft" unicode="(" horiz-adv-x="702" 
d="M410 -266q-250 328 -250 848q0 293 77.5 514t194.5 362h172q-34 -42 -74.5 -115t-87 -184.5t-76.5 -264.5t-30 -312q0 -160 28 -308t73 -257t78 -171.5t67 -111.5h-172z" />
    <glyph glyph-name="parenright" unicode=")" horiz-adv-x="702" 
d="M121 -266q34 49 67 111.5t78 171.5t73 257t28 308q0 159 -30.5 312t-76.5 264.5t-86.5 184.5t-75.5 115h172q118 -141 195.5 -362t77.5 -514q0 -520 -250 -848h-172z" />
    <glyph glyph-name="asterisk" unicode="*" horiz-adv-x="1091" 
d="M600 799l-55 151l-56 -151l-139 -191l-133 101l135 186l117 100l-147 4l-211 70l53 160l205 -68l129 -90l-35 152v231h166v-231l-39 -152l131 90l207 68l53 -160l-213 -70l-150 -4l121 -100l135 -186l-133 -101z" />
    <glyph glyph-name="plus" unicode="+" horiz-adv-x="1320" 
d="M750 616v-395h-181v395h-389v172h389v396h181v-396h393v-172h-393z" />
    <glyph glyph-name="comma" unicode="," horiz-adv-x="460" 
d="M117 -258q38 34 74 95t40 130q-61 3 -102 41t-41 96q0 64 40 105t97 41q65 0 110.5 -46.5t45.5 -133.5q0 -114 -57 -209t-148 -150z" />
    <glyph glyph-name="hyphen" unicode="-" horiz-adv-x="817" 
d="M170 524v172h479v-172h-479z" />
    <glyph glyph-name="period" unicode="." horiz-adv-x="460" 
d="M229 -27q-59 0 -100 42t-41 98q0 57 41 99t100 42t101.5 -42.5t42.5 -98.5t-42.5 -98t-101.5 -42z" />
    <glyph glyph-name="slash" unicode="/" horiz-adv-x="1003" 
d="M-16 -266l807 1724h176l-805 -1724h-178z" />
    <glyph glyph-name="zero" unicode="0" horiz-adv-x="1308" 
d="M655 -25q-93 0 -170.5 30t-131 84t-93 123.5t-62.5 154.5t-33.5 171t-10.5 179q0 84 9.5 164.5t30.5 167t59.5 158t92 129t133 90t176.5 32.5q111 0 199.5 -44t144 -115t92 -169.5t51.5 -200t15 -212.5q0 -71 -6.5 -140.5t-23 -144t-42 -140t-65.5 -124.5t-90.5 -101
t-121 -67t-153.5 -25zM655 143q54 0 99 18.5t77 50t56.5 77t40 95t25 108t13 112.5t3.5 113q0 90 -8.5 169t-30.5 155.5t-56.5 130.5t-90.5 87t-128 33q-63 0 -114 -24.5t-85 -68.5t-58 -98t-36.5 -121.5t-18 -130.5t-5.5 -132q0 -90 8.5 -168.5t31 -155t57 -130.5t91 -87
t129.5 -33z" />
    <glyph glyph-name="one" unicode="1" horiz-adv-x="763" 
d="M322 0v1143h-240v121q113 0 185.5 39t103.5 131h129v-1434h-178z" />
    <glyph glyph-name="two" unicode="2" horiz-adv-x="1253" 
d="M143 0q0 109 28 204.5t70.5 165t108.5 134t127 107t141 89.5q69 42 112 72.5t89.5 74.5t69 94t22.5 108q0 105 -76.5 174t-203.5 69q-237 0 -305 -211l-160 72q42 135 169 220t302 85q213 0 336 -113.5t123 -300.5q0 -53 -12 -100.5t-29.5 -85.5t-49.5 -76t-60.5 -64.5
t-76 -60t-81 -54.5t-89.5 -54q-151 -87 -238 -173.5t-110 -201.5h758v-174h-965z" />
    <glyph glyph-name="three" unicode="3" horiz-adv-x="1232" 
d="M596 -25q-363 0 -490 334l166 68q96 -232 324 -232q134 0 220.5 65t86.5 191q0 119 -75.5 190t-221.5 71h-102v167h92q114 0 183 63t69 165q0 107 -68.5 170t-177.5 63q-195 0 -285 -192l-165 63q51 132 166.5 214.5t283.5 82.5q187 0 309.5 -108t122.5 -273
q0 -99 -48 -182.5t-136 -128.5q113 -45 176.5 -137t63.5 -221t-66.5 -228.5t-178.5 -152t-249 -52.5z" />
    <glyph glyph-name="four" unicode="4" horiz-adv-x="1271" 
d="M784 0v356h-733v107l744 971h168v-918h202v-160h-202v-356h-179zM784 516v666l-499 -666h499z" />
    <glyph glyph-name="five" unicode="5" horiz-adv-x="1271" 
d="M596 -25q-159 0 -278.5 47t-180.5 111l107 137q71 -63 150.5 -97t199.5 -34q152 0 251 92.5t99 229.5q0 135 -80.5 219t-212.5 84q-95 0 -169 -33t-120 -84l-176 62l84 725h766v-166h-610l-55 -432q57 45 136 71.5t165 26.5q137 0 242.5 -62.5t160.5 -167t55 -231.5
q0 -102 -38 -192.5t-106 -158.5t-169.5 -107.5t-220.5 -39.5z" />
    <glyph glyph-name="six" unicode="6" horiz-adv-x="1222" 
d="M618 -25q-119 0 -212 42.5t-152.5 118t-90 175.5t-30.5 219q0 222 89 414t262.5 329t406.5 185v-158q-196 -45 -348 -187.5t-195 -334.5q47 54 129 85.5t185 31.5q184 0 309 -131.5t125 -319.5q0 -203 -136.5 -336t-341.5 -133zM616 143q134 0 218 80.5t84 210.5
q0 133 -83.5 214t-218.5 81q-133 0 -218 -81.5t-85 -213.5q0 -129 86 -210t217 -81z" />
    <glyph glyph-name="seven" unicode="7" horiz-adv-x="1069" 
d="M358 0q3 362 101.5 664.5t324.5 603.5h-712v166h911v-162q-104 -120 -184 -260.5t-127 -270t-77.5 -269t-41.5 -251t-12 -221.5h-183z" />
    <glyph glyph-name="eight" unicode="8" horiz-adv-x="1251" 
d="M625 -25q-211 0 -346.5 124t-135.5 313q0 130 67.5 229.5t178.5 146.5q-87 44 -134.5 122t-47.5 175q0 157 118 265t300 108q183 0 301 -107.5t118 -265.5q0 -98 -47 -175.5t-137 -121.5q113 -49 180.5 -147.5t67.5 -228.5q0 -189 -135.5 -313t-347.5 -124zM625 860
q106 0 172.5 60t66.5 151q0 100 -66.5 160.5t-172.5 60.5q-104 0 -171 -60.5t-67 -160.5q0 -91 66 -151t172 -60zM625 143q131 0 215 77t84 206q0 118 -84.5 201.5t-214.5 83.5q-129 0 -213 -83.5t-84 -201.5q0 -129 83 -206t214 -77z" />
    <glyph glyph-name="nine" unicode="9" horiz-adv-x="1222" 
d="M356 -25v166q194 35 336.5 172.5t177.5 350.5q-45 -55 -126.5 -89t-186.5 -34q-188 0 -314 128.5t-126 321.5q0 202 138 334.5t349 132.5q119 0 211.5 -42t150 -117.5t86.5 -175.5t29 -220q0 -237 -84 -434.5t-250 -329.5t-391 -164zM598 707q132 0 215.5 81t83.5 211
q0 124 -85 205.5t-214 81.5q-133 0 -216 -81t-83 -206q0 -133 81 -212.5t218 -79.5z" />
    <glyph glyph-name="colon" unicode=":" horiz-adv-x="460" 
d="M229 711q-59 0 -100 41.5t-41 97.5q0 57 41 99t100 42t101.5 -42.5t42.5 -98.5t-42.5 -97.5t-101.5 -41.5zM229 -27q-59 0 -100 42t-41 98q0 57 41 99t100 42t101.5 -42.5t42.5 -98.5t-42.5 -98t-101.5 -42z" />
    <glyph glyph-name="semicolon" unicode=";" horiz-adv-x="460" 
d="M229 711q-60 0 -100.5 41t-40.5 98t40.5 99t100.5 42q59 0 100.5 -42.5t41.5 -98.5t-41.5 -97.5t-100.5 -41.5zM117 -258q36 32 70 94t38 133q-57 2 -97 40t-40 95q0 64 40 105t97 41q65 0 110.5 -46.5t45.5 -133.5q0 -114 -57 -209t-148 -150z" />
    <glyph glyph-name="less" unicode="&#x3c;" horiz-adv-x="1320" 
d="M1143 233l-963 390v157l963 391v-176l-740 -293l740 -290v-179z" />
    <glyph glyph-name="equal" unicode="=" horiz-adv-x="1320" 
d="M180 797v172h963v-172h-963zM180 436v170h963v-170h-963z" />
    <glyph glyph-name="greater" unicode="&#x3e;" horiz-adv-x="1320" 
d="M1143 623l-963 -390v177l738 292l-738 293v176l963 -391v-157z" />
    <glyph glyph-name="question" unicode="?" horiz-adv-x="1052" 
d="M416 369v45q0 79 20.5 144t53 109t71.5 82t78 71t71.5 67.5t53 80.5t20.5 101q0 97 -67.5 160t-186.5 63q-136 0 -213 -75t-77 -203h-174q0 199 127 321.5t337 122.5q204 0 319.5 -110.5t115.5 -280.5q0 -70 -20.5 -128.5t-53 -99t-71.5 -76t-78.5 -70.5t-72 -73t-53 -91
t-20.5 -117v-43h-180zM502 -27q-59 0 -100.5 42t-41.5 98t41.5 98.5t100.5 42.5t101 -42.5t42 -98.5t-42 -98t-101 -42z" />
    <glyph glyph-name="at" unicode="@" horiz-adv-x="1656" 
d="M836 -25q-154 0 -286 48t-229 137t-152.5 225t-55.5 303q0 166 60 311t162 244.5t239.5 157t289.5 57.5q150 0 278 -46.5t215.5 -128t137 -195t49.5 -244.5q0 -221 -105.5 -367.5t-254.5 -146.5q-69 0 -115.5 37t-58.5 102q-85 -152 -250 -152q-130 0 -213.5 98
t-83.5 253q0 102 45.5 198.5t134 161t197.5 64.5q79 0 135 -40.5t80 -117.5l22 131h156l-74 -412q-14 -86 -14 -112q0 -78 63 -78q76 0 132.5 112.5t56.5 272.5q0 210 -146 336.5t-379 126.5q-179 0 -316 -82.5t-209.5 -224t-72.5 -318.5q0 -253 153.5 -408t416.5 -155
q156 0 272 35l-37 -160q-101 -23 -243 -23zM795 467q97 0 159 83t62 193q0 88 -45.5 142.5t-116.5 54.5q-100 0 -162.5 -80t-62.5 -194q0 -91 45 -145t121 -54z" />
    <glyph glyph-name="A" unicode="A" horiz-adv-x="1390" 
d="M1104 0l-123 350h-569l-121 -350h-187l508 1434h166l508 -1434h-182zM926 508l-185 530q-37 107 -45 146q-18 -68 -45 -146l-186 -530h461z" />
    <glyph glyph-name="B" unicode="B" horiz-adv-x="1343" 
d="M201 1434h508q122 0 212 -32t139.5 -87t72 -119.5t22.5 -140.5q0 -98 -55.5 -177t-155.5 -122q124 -38 193 -129t69 -215q0 -61 -14.5 -118t-49 -111t-86.5 -94t-133 -64.5t-182 -24.5h-540v1434zM674 825q149 0 227 61t78 167q0 219 -260 219h-340v-447h295zM762 164
q76 0 130.5 20t83 55t41.5 74t13 86q0 265 -334 265h-317v-500h383z" />
    <glyph glyph-name="C" unicode="C" horiz-adv-x="1325" 
d="M733 -25q-126 0 -228 42.5t-169 113.5t-112.5 167.5t-65 201t-19.5 217.5q0 111 20.5 215.5t66.5 201t113.5 168t168.5 114t225 42.5q95 0 174 -21.5t134 -59.5t92.5 -81.5t62.5 -95.5l-160 -82q-58 86 -126 130t-177 44q-89 0 -160 -35t-117 -91.5t-76.5 -133
t-43 -154.5t-12.5 -161q0 -111 24 -210.5t72 -182.5t128.5 -132t184.5 -49q112 0 184.5 47t126.5 136l164 -62q-60 -131 -178.5 -210t-296.5 -79z" />
    <glyph glyph-name="D" unicode="D" horiz-adv-x="1396" 
d="M201 1434h391q143 0 257.5 -41t189.5 -109t125 -162t71.5 -194.5t21.5 -210.5q0 -105 -19.5 -202t-68.5 -192.5t-123 -165.5t-193 -113.5t-269 -43.5h-383v1434zM606 166q103 0 185 32.5t133.5 86t86 126.5t48.5 148.5t14 157.5q0 108 -26 204.5t-77.5 176t-139 126
t-201.5 46.5h-250v-1104h227z" />
    <glyph glyph-name="E" unicode="E" horiz-adv-x="1226" 
d="M201 0v1434h852v-168h-674v-441h444v-168h-444v-487h719v-170h-897z" />
    <glyph glyph-name="F" unicode="F" horiz-adv-x="1150" 
d="M201 0v1434h862v-168h-684v-441h452v-168h-452v-657h-178z" />
    <glyph glyph-name="G" unicode="G" horiz-adv-x="1409" 
d="M748 -25q-126 0 -229.5 41.5t-173 111.5t-117 166t-68.5 201.5t-21 221.5q0 114 22.5 220t71.5 201t119 166t172 112.5t224 41.5q96 0 172.5 -20t130.5 -58.5t90.5 -78.5t70.5 -95l-159 -92q-59 84 -128 130t-177 46q-92 0 -166 -35t-121.5 -91t-79 -132.5t-44.5 -154
t-13 -160.5q0 -114 25 -214.5t74.5 -181.5t133 -128.5t191.5 -47.5q145 0 233 91.5t88 238.5v57h-260v164h446v-172q0 -130 -39 -235t-107 -173.5t-160.5 -104.5t-200.5 -36z" />
    <glyph glyph-name="H" unicode="H" horiz-adv-x="1433" 
d="M1055 0v659h-676v-659h-178v1434h178v-607h676v607h178v-1434h-178z" />
    <glyph glyph-name="I" unicode="I" horiz-adv-x="587" 
d="M205 0v1434h178v-1434h-178z" />
    <glyph glyph-name="J" unicode="J" horiz-adv-x="1118" 
d="M471 -25q-302 0 -414 258l148 76q43 -87 102.5 -126.5t165.5 -39.5q272 0 272 322v969h179v-963q0 -114 -28 -203t-73 -143t-106 -89t-121 -48t-125 -13z" />
    <glyph glyph-name="K" unicode="K" horiz-adv-x="1351" 
d="M1049 0l-426 788l-244 -299v-489h-178v1434h178v-703l559 703h201l-396 -496l512 -938h-206z" />
    <glyph glyph-name="L" unicode="L" horiz-adv-x="1144" 
d="M201 0v1434h178v-1262h704v-172h-882z" />
    <glyph glyph-name="M" unicode="M" horiz-adv-x="1644" 
d="M1446 0h-178v881q0 83 4 157q-9 -25 -64 -161l-393 -902l-381 906q-55 138 -61 155q6 -56 6 -155v-881h-178v1434h168l415 -965l37 -96q1 3 37 96l418 965h170v-1434z" />
    <glyph glyph-name="N" unicode="N" horiz-adv-x="1449" 
d="M1249 0h-172l-645 1024q-49 84 -57 100q4 -62 4 -100v-1024h-178v1434h180l635 -1020q40 -70 59 -107q-4 74 -4 105v1022h178v-1434z" />
    <glyph glyph-name="O" unicode="O" horiz-adv-x="1495" 
d="M748 -25q-131 0 -236 43.5t-173.5 115.5t-114.5 169.5t-65.5 200t-19.5 213.5t19.5 213.5t65.5 200t114.5 169t173.5 115t236 43.5t237 -43.5t174 -115t114 -169t65.5 -200t19.5 -213.5t-19.5 -213.5t-65.5 -200t-114 -169.5t-174 -115.5t-237 -43.5zM748 143
q91 0 164.5 35t121 92.5t79 133.5t45 154t13.5 159q0 88 -13.5 168t-45 155.5t-79 130.5t-121 88t-164.5 33q-90 0 -163.5 -35t-121 -92t-80 -133.5t-46 -154.5t-13.5 -160q0 -111 23 -209t71 -182t132.5 -133.5t197.5 -49.5z" />
    <glyph glyph-name="P" unicode="P" horiz-adv-x="1290" 
d="M201 0v1434h549q101 0 181.5 -24.5t132 -65.5t85.5 -97t48.5 -116t14.5 -127q0 -61 -15.5 -120t-51 -115.5t-87.5 -99t-131.5 -68.5t-176.5 -26h-371v-575h-178zM762 741q73 0 127.5 23.5t85 62.5t45 83.5t14.5 93.5q0 36 -7.5 71t-26.5 70.5t-49 62t-78.5 43.5
t-110.5 17h-383v-527h383z" />
    <glyph glyph-name="Q" unicode="Q" horiz-adv-x="1495" 
d="M748 -25q-131 0 -236 43.5t-173.5 115.5t-114.5 169.5t-65.5 200t-19.5 213.5t19.5 213.5t65.5 200t114.5 169t173.5 115t236 43.5t237 -43.5t174 -115t114 -169t65.5 -200t19.5 -213.5q0 -179 -53.5 -338t-165.5 -262l108 -160l-131 -92l-110 164q-114 -54 -258 -54z
M748 143q92 0 157 33l-102 154l135 92l98 -148q68 82 101.5 200.5t33.5 242.5q0 88 -13.5 168t-45 155.5t-79 130.5t-121 88t-164.5 33q-90 0 -163.5 -35t-121 -92t-80 -133.5t-46 -154.5t-13.5 -160q0 -111 23 -209t71 -182t132.5 -133.5t197.5 -49.5z" />
    <glyph glyph-name="R" unicode="R" horiz-adv-x="1361" 
d="M201 0v1434h565q124 0 215 -34.5t141 -94t73.5 -129t23.5 -150.5q0 -66 -19 -127.5t-57.5 -117t-104.5 -96t-153 -58.5l307 -627h-201l-295 614h-317v-614h-178zM379 780h391q72 0 126 20.5t84 56t44 77t14 88.5q0 44 -13 84t-41.5 78t-83.5 61t-130 23h-391v-488z" />
    <glyph glyph-name="S" unicode="S" horiz-adv-x="1226" 
d="M618 -25q-183 0 -316.5 89t-182.5 231l168 61q44 -98 132 -155.5t204 -57.5q131 0 206.5 62.5t75.5 179.5q0 48 -18 89.5t-46.5 71t-73 57t-86.5 46t-99 39.5q-52 19 -87.5 33.5t-83 37.5t-80 45t-67 54.5t-55 67t-34 80.5t-13.5 98q0 151 118.5 252.5t321.5 101.5
q165 0 276 -71t144 -185l-164 -55q-28 64 -97.5 104.5t-170.5 40.5q-114 0 -179 -50t-65 -138q0 -39 18 -72t43 -56.5t70.5 -48t82 -39.5t95.5 -36q51 -19 88 -34.5t85.5 -40.5t82.5 -50t70.5 -61t58.5 -75t36 -91t14 -111q0 -193 -132 -303.5t-340 -110.5z" />
    <glyph glyph-name="T" unicode="T" horiz-adv-x="1193" 
d="M686 1264v-1264h-178v1264h-399v170h976v-170h-399z" />
    <glyph glyph-name="U" unicode="U" horiz-adv-x="1411" 
d="M705 -25q-117 0 -208.5 30.5t-161.5 95.5t-107.5 176t-37.5 262v895h179v-895q0 -92 17.5 -162t47.5 -114t73.5 -71.5t91.5 -38t106 -10.5t106 10.5t92 38t74 71.5t47.5 114t17.5 162v895h179v-895q0 -564 -516 -564z" />
    <glyph glyph-name="V" unicode="V" horiz-adv-x="1335" 
d="M590 0l-492 1434h191l342 -1037q1 -5 18 -59.5t25 -85.5q5 22 41 145l332 1037h190l-489 -1434h-158z" />
    <glyph glyph-name="W" unicode="W" horiz-adv-x="1720" 
d="M395 0l-293 1434h187l176 -934q21 -108 27 -154q2 9 38 152l254 936h142l256 -934q24 -89 32 -140q6 38 27 142l195 932h182l-311 -1434h-142l-276 979q-34 125 -37 141q-8 -43 -35 -141l-276 -979h-146z" />
    <glyph glyph-name="X" unicode="X" horiz-adv-x="1241" 
d="M946 0l-330 580l-321 -580h-199l426 741l-395 693h201l295 -519l290 519h197l-393 -682l430 -752h-201z" />
    <glyph glyph-name="Y" unicode="Y" horiz-adv-x="1312" 
d="M569 0v563l-487 871h201l374 -697l379 697h195l-483 -867v-567h-179z" />
    <glyph glyph-name="Z" unicode="Z" horiz-adv-x="1331" 
d="M129 0v137l832 1127h-785v170h1016v-138l-827 -1126h827v-170h-1063z" />
    <glyph glyph-name="bracketleft" unicode="[" horiz-adv-x="770" 
d="M221 -266v1724h451v-164h-273v-1396h273v-164h-451z" />
    <glyph glyph-name="backslash" unicode="\" horiz-adv-x="1003" 
d="M791 -266l-807 1724h178l805 -1724h-176z" />
    <glyph glyph-name="bracketright" unicode="]" horiz-adv-x="770" 
d="M549 -266h-451v164h273v1396h-273v164h451v-1724z" />
    <glyph glyph-name="asciicircum" unicode="^" horiz-adv-x="1320" 
d="M965 729l-303 506l-304 -506h-184l401 729h168l404 -729h-182z" />
    <glyph glyph-name="underscore" unicode="_" horiz-adv-x="1054" 
d="M6 -362v169h1045v-169h-1045z" />
    <glyph glyph-name="grave" unicode="`" horiz-adv-x="753" 
d="M430 1180l-364 319h253l291 -319h-180z" />
    <glyph glyph-name="a" unicode="a" horiz-adv-x="1077" 
d="M770 0v96q-128 -121 -297 -121q-165 0 -264.5 91.5t-99.5 261.5q0 71 21.5 129t58 97.5t86.5 67t106.5 40t118.5 12.5q151 0 270 -68v74q0 130 -58.5 182.5t-168.5 52.5q-158 0 -305 -104l-52 150q71 47 170 78.5t209 31.5q373 0 373 -377v-694h-168zM500 133
q81 0 150.5 39t119.5 98v181q-49 30 -116 49.5t-130 19.5q-108 0 -178 -48.5t-70 -143.5q0 -89 59 -142t165 -53z" />
    <glyph glyph-name="b" unicode="b" horiz-adv-x="1150" 
d="M616 -25q-90 0 -151 30.5t-117 84.5v-90h-178v1395l178 84v-523q46 52 114.5 83.5t147.5 31.5q197 0 315.5 -146t118.5 -401q0 -263 -113.5 -406t-314.5 -143zM592 141q133 0 201.5 101t68.5 282q0 186 -68.5 284.5t-201.5 98.5q-81 0 -147 -43t-97 -96v-485
q38 -66 104 -104t140 -38z" />
    <glyph glyph-name="c" unicode="c" horiz-adv-x="1024" 
d="M543 -25q-201 0 -317.5 144.5t-116.5 402.5q0 257 118 403t324 146q133 0 228.5 -61.5t138.5 -182.5l-168 -61q-25 64 -74.5 101.5t-122.5 37.5q-131 0 -196.5 -100.5t-65.5 -282.5q0 -180 65.5 -279.5t190.5 -99.5q78 0 134 41t79 115l166 -55q-38 -129 -138 -199
t-245 -70z" />
    <glyph glyph-name="d" unicode="d" horiz-adv-x="1150" 
d="M541 -25q-199 0 -315.5 147.5t-116.5 401.5q0 255 117.5 401t314.5 146q155 0 264 -98v422l178 84v-1479h-178v82q-103 -107 -264 -107zM565 141q74 0 137 37.5t103 104.5v491q-35 55 -96 94t-144 39q-132 0 -204 -99.5t-72 -283.5q0 -167 75 -275t201 -108z" />
    <glyph glyph-name="e" unicode="e" horiz-adv-x="1101" 
d="M573 -25q-212 0 -338 153t-126 396q0 256 126 401.5t338 145.5q90 0 167.5 -30t137.5 -89.5t94 -156.5t34 -222q0 -46 -7 -118h-708q10 -144 89 -231t198 -87q131 0 225 94l108 -120q-62 -62 -149.5 -99t-188.5 -37zM289 606h536q-1 85 -24 147.5t-61.5 96t-80 48.5
t-86.5 15q-121 0 -199 -76.5t-85 -230.5z" />
    <glyph glyph-name="f" unicode="f" horiz-adv-x="681" 
d="M408 891v-891h-179v891h-161v156h161v174q0 65 19.5 113t53 74t72 38t83.5 12q104 0 194 -49v-149q-81 38 -149 38q-58 0 -76 -28.5t-18 -79.5v-143h243v-156h-243z" />
    <glyph glyph-name="g" unicode="g" 
d="M492 -424l-86 139q118 7 199 28.5t124 57.5t60.5 77.5t17.5 96.5v127q-91 -127 -270 -127q-88 0 -164.5 35t-136 102t-93.5 173t-34 239q0 254 119.5 400.5t314.5 146.5q164 0 264 -110v86h178v-1004q0 -100 -23.5 -177.5t-65.5 -129.5t-105 -86.5t-135.5 -51.5
t-163.5 -22zM573 141q66 0 130.5 40t103.5 108v479q-37 62 -104.5 100.5t-129.5 38.5q-139 0 -211.5 -99t-72.5 -284q0 -178 78 -280.5t206 -102.5z" />
    <glyph glyph-name="h" unicode="h" 
d="M170 0v1397l178 82v-541q98 133 270 133q185 0 280 -111.5t95 -357.5v-602h-178v633q0 142 -60.5 208t-164.5 66q-242 0 -242 -270v-637h-178z" />
    <glyph glyph-name="i" unicode="i" horiz-adv-x="520" 
d="M260 1237q-46 0 -78 32.5t-32 78.5q0 47 32 80.5t78 33.5q47 0 80 -33.5t33 -80.5q0 -46 -33 -78.5t-80 -32.5zM172 0v1047h178v-1047h-178z" />
    <glyph glyph-name="j" unicode="j" horiz-adv-x="520" 
d="M262 1237q-47 0 -79.5 32.5t-32.5 78.5q0 47 32.5 80.5t79.5 33.5t79 -33t32 -81q0 -46 -32 -78.5t-79 -32.5zM-12 -438l-84 135q151 24 209.5 77.5t58.5 151.5v1121h178v-1055q0 -190 -78 -283q-99 -121 -284 -147z" />
    <glyph glyph-name="k" unicode="k" horiz-adv-x="1087" 
d="M1020 0h-195l-323 633l-154 -160v-473h-178v1395l178 84v-793l340 361h213l-274 -285z" />
    <glyph glyph-name="l" unicode="l" horiz-adv-x="536" 
d="M180 0v1395l178 84v-1479h-178z" />
    <glyph glyph-name="m" unicode="m" horiz-adv-x="1732" 
d="M1397 0v635q0 57 -10.5 103.5t-34 85.5t-65.5 61t-101 22q-101 0 -163 -76.5t-62 -201.5v-629h-179v635q0 57 -10 103.5t-33 85.5t-65 61t-101 22q-104 0 -164.5 -72.5t-60.5 -197.5v-637h-178v1047h178v-99q92 123 275 123q87 0 162 -39.5t118 -113.5q47 72 125.5 112.5
t177.5 40.5q163 0 266 -100.5t103 -284.5v-686h-178z" />
    <glyph glyph-name="n" unicode="n" 
d="M815 0v633q0 142 -60.5 208t-164.5 66q-242 0 -242 -270v-637h-178v1047h178v-107q96 131 270 131q185 0 280 -111.5t95 -357.5v-602h-178z" />
    <glyph glyph-name="o" unicode="o" horiz-adv-x="1142" 
d="M571 -25q-213 0 -337.5 145t-124.5 402q0 256 125 402.5t337 146.5q213 0 338 -145t125 -402q0 -256 -125.5 -402.5t-337.5 -146.5zM571 141q132 0 207.5 101.5t75.5 281.5q0 179 -75 281t-208 102q-134 0 -208 -101t-74 -284q0 -179 74.5 -280t207.5 -101z" />
    <glyph glyph-name="p" unicode="p" horiz-adv-x="1155" 
d="M616 -25q-166 0 -268 123v-428l-178 -84v1461h178v-89q53 53 115.5 83t152.5 30q199 0 316 -147.5t117 -399.5q0 -256 -119.5 -402.5t-313.5 -146.5zM594 141q131 0 201.5 99t70.5 284q0 173 -72.5 278t-199.5 105q-80 0 -144 -37t-102 -104v-483q107 -142 246 -142z" />
    <glyph glyph-name="q" unicode="q" 
d="M543 -25q-198 0 -316 145.5t-118 401.5q0 254 114.5 401.5t313.5 147.5q86 0 149 -30.5t121 -82.5v89h178v-1377l-178 -80v508q-108 -123 -264 -123zM559 141q137 0 248 144v481q-84 141 -248 141q-125 0 -197.5 -108t-72.5 -277q0 -184 69.5 -282.5t200.5 -98.5z" />
    <glyph glyph-name="r" unicode="r" horiz-adv-x="796" 
d="M170 0v1047h178v-138q73 162 248 162q99 0 162 -53l-27 -168q-65 45 -149 45q-41 0 -79.5 -15t-74.5 -47.5t-58 -95t-22 -147.5v-590h-178z" />
    <glyph glyph-name="s" unicode="s" horiz-adv-x="960" 
d="M479 -25q-113 0 -214.5 48.5t-164.5 128.5l127 108q116 -125 256 -125q88 0 141.5 33.5t53.5 99.5q0 30 -14 56.5t-33.5 44.5t-55.5 37.5t-63.5 31t-73.5 29.5q-161 60 -242 134t-81 194q0 126 99 201t253 75q219 0 352 -158l-123 -102q-96 100 -231 100
q-80 0 -127 -30.5t-47 -85.5q0 -25 12.5 -46.5t28 -36.5t48.5 -32.5t55 -27t67 -27.5q7 -3 10 -4q63 -23 109 -43.5t92 -51t74.5 -65t46.5 -83t18 -106.5q0 -140 -100.5 -218.5t-272.5 -78.5z" />
    <glyph glyph-name="t" unicode="t" horiz-adv-x="765" 
d="M453 -25q-114 0 -168 67t-54 183v666h-170v156h170v346l179 86v-432h258v-156h-258v-606q0 -69 22.5 -106.5t85.5 -37.5q69 0 156 56l-21 -174q-91 -48 -200 -48z" />
    <glyph glyph-name="u" unicode="u" 
d="M805 0v100q-52 -66 -115.5 -95.5t-148.5 -29.5q-190 0 -285.5 110.5t-95.5 356.5v605h178v-631q0 -142 61 -208.5t164 -66.5q242 0 242 271v635h178v-1047h-178z" />
    <glyph glyph-name="v" unicode="v" horiz-adv-x="1048" 
d="M451 0l-383 1047h180l248 -699q27 -82 32 -102q0 2 33 102l244 699h178l-383 -1047h-149z" />
    <glyph glyph-name="w" unicode="w" horiz-adv-x="1464" 
d="M346 0l-268 1047h176l160 -703q2 -11 10.5 -51t11.5 -60q3 17 27 111l196 703h148l197 -703l28 -115q3 19 11 57t12 58l157 703h177l-269 -1047h-159l-191 621q-34 115 -39 137q-15 -63 -37 -137l-188 -621h-160z" />
    <glyph glyph-name="x" unicode="x" horiz-adv-x="1056" 
d="M78 0l350 545l-324 502h199l166 -254q40 -65 59 -101q38 66 62 101l164 254h200l-325 -502l352 -545h-201l-192 297q-32 49 -60 100q-19 -39 -59 -100l-193 -297h-198z" />
    <glyph glyph-name="y" unicode="y" horiz-adv-x="1085" 
d="M295 -397l160 424l-387 1020h178l260 -713q17 -45 33 -101q19 67 32 101l265 713h182l-543 -1444h-180z" />
    <glyph glyph-name="z" unicode="z" horiz-adv-x="1034" 
d="M129 0v131l545 758h-504v158h727v-127l-547 -760h545v-160h-766z" />
    <glyph glyph-name="braceleft" unicode="{" horiz-adv-x="761" 
d="M676 -266q-190 5 -300 125.5t-110 349.5v113q0 91 -37 145.5t-102 54.5h-18v152h18q65 0 102 54t37 144v111q0 229 110 349.5t300 125.5v-153q-114 -4 -172 -77.5t-58 -205.5v-125q0 -108 -25.5 -172.5t-68.5 -91.5t-114 -37q71 -8 114 -33.5t68.5 -91t25.5 -176.5v-123
q0 -134 58 -207.5t172 -77.5v-153z" />
    <glyph glyph-name="bar" unicode="|" horiz-adv-x="557" 
d="M190 -774v2949h179v-2949h-179z" />
    <glyph glyph-name="braceright" unicode="}" horiz-adv-x="761" 
d="M88 -266v153q113 4 170 77.5t57 207.5v123q0 68 9 118t25.5 83t43.5 54t58 31.5t73 14.5q-71 10 -114.5 37t-69 92t-25.5 172v125q0 132 -57 205.5t-170 77.5v153q189 -5 298.5 -125.5t109.5 -349.5v-111q0 -90 37.5 -144t101.5 -54h20v-152h-20q-64 0 -101.5 -55
t-37.5 -145v-113q0 -229 -109.5 -349.5t-298.5 -125.5z" />
    <glyph glyph-name="asciitilde" unicode="~" horiz-adv-x="1320" 
d="M877 555q-58 0 -122.5 19t-112 42.5t-103.5 42.5t-99 19q-61 0 -98.5 -33.5t-42.5 -89.5h-117q0 60 14.5 111.5t44.5 93.5t82.5 66t122.5 24q59 0 124 -19.5t112.5 -43t103 -43t95.5 -19.5q61 0 98.5 34.5t42.5 90.5h119q0 -61 -15 -112.5t-45.5 -93t-82.5 -65.5
t-121 -24z" />
    <glyph glyph-name="uni00A0" unicode="&#xa0;" horiz-adv-x="481" 
 />
    <glyph glyph-name="exclamdown" unicode="&#xa1;" horiz-adv-x="555" 
d="M281 793q-60 0 -101 41t-41 98t41 98t101 41q59 0 100 -41.5t41 -97.5t-41 -97.5t-100 -41.5zM369 -410h-181v447l62 612h57l62 -612v-447z" />
    <glyph glyph-name="cent" unicode="&#xa2;" horiz-adv-x="1054" 
d="M453 -25v205q-157 36 -245.5 175.5t-88.5 361.5q0 221 88 359t246 175v207h174v-198q229 -25 305 -242l-172 -62q-24 63 -72.5 99.5t-116.5 36.5q-132 0 -201 -99t-69 -276q0 -178 67.5 -276.5t192.5 -98.5q75 0 129 41t76 115l170 -56q-72 -244 -309 -268v-199h-174z
" />
    <glyph glyph-name="sterling" unicode="&#xa3;" horiz-adv-x="1222" 
d="M180 0v188q47 22 83 65t55.5 97t29.5 105t12 102v41h-190v152h149q-2 4 -19 38.5t-21 44t-16.5 41.5t-16.5 53.5t-8.5 56t-4.5 71.5q0 80 29 151t84.5 128t146.5 90.5t207 33.5q132 0 231 -34.5t191 -102.5l-69 -168q-35 29 -57 45t-67.5 41t-102.5 37t-126 12
q-137 0 -207.5 -69t-70.5 -164q0 -57 18 -110.5t44.5 -108.5t35.5 -86h338v-152h-309v-37q-9 -228 -184 -391h780v-170h-965z" />
    <glyph glyph-name="currency" unicode="&#xa4;" horiz-adv-x="1296" 
d="M647 176q-170 0 -289 84l-135 -137l-133 135l141 143q-67 113 -67 281q0 163 67 285l-141 141l127 131l137 -137q125 88 293 88q169 0 291 -86l135 135l133 -137l-137 -137q66 -126 66 -283q0 -168 -72 -287l143 -143l-127 -129l-139 139q-122 -86 -293 -86zM647 348
q137 0 222 93.5t85 240.5q0 146 -85.5 242t-221.5 96q-134 0 -218.5 -96t-84.5 -242q0 -147 84.5 -240.5t218.5 -93.5z" />
    <glyph glyph-name="yen" unicode="&#xa5;" horiz-adv-x="1159" 
d="M670 653h301v-153h-303v-135h303v-154h-303v-211h-179v211h-317v154h317v135h-317v153h313l-438 781h201l330 -613l340 613h194z" />
    <glyph glyph-name="brokenbar" unicode="&#xa6;" horiz-adv-x="557" 
d="M190 750v940h179v-940h-179zM190 -461v940h179v-940h-179z" />
    <glyph glyph-name="section" unicode="&#xa7;" horiz-adv-x="1091" 
d="M553 -246q-145 0 -260 52t-174 131l131 116q45 -49 119.5 -88t179.5 -39q239 0 239 162q0 33 -17 63t-40 50.5t-64 43t-71.5 35.5t-82.5 34t-77 32q-43 19 -65 29t-59 29t-56 34t-44.5 39t-38 48.5t-21.5 57t-9 70.5q0 76 40 134t106 87q-146 89 -146 275
q0 144 113 226.5t283 82.5q140 0 238.5 -47.5t156.5 -118.5l-137 -108q-95 100 -258 100q-99 0 -154 -36t-55 -105q0 -48 49 -90t98.5 -64.5t161.5 -64.5q7 -3 10 -4q44 -17 71 -28t65.5 -30t62 -36t50.5 -43t42 -54.5t25 -66.5t10 -82q0 -158 -125 -220q125 -97 125 -266
q0 -162 -112 -251t-310 -89zM696 440q92 40 92 127q0 28 -10 51t-35.5 44t-46.5 35.5t-67 33t-72 28t-84 29.5q-67 -11 -105 -44.5t-38 -84.5q0 -23 10 -43t31.5 -37.5t44.5 -31t60.5 -28t66.5 -25t76 -27t77 -27.5z" />
    <glyph glyph-name="dieresis" unicode="&#xa8;" horiz-adv-x="753" 
d="M201 1227q-46 0 -79.5 32.5t-33.5 79.5t33.5 80t79.5 33q47 0 79.5 -33t32.5 -80t-32.5 -79.5t-79.5 -32.5zM555 1227q-46 0 -79.5 32.5t-33.5 79.5t33.5 80t79.5 33q47 0 80 -33t33 -80t-33 -79.5t-80 -32.5z" />
    <glyph glyph-name="copyright" unicode="&#xa9;" horiz-adv-x="1759" 
d="M881 -25q-155 0 -292.5 57.5t-236 156t-156 236t-57.5 292.5t57.5 292.5t156 236t236 155.5t292.5 57t292.5 -57t236 -155.5t155.5 -236t57 -292.5t-57 -292.5t-155.5 -236t-236 -156t-292.5 -57.5zM881 104q171 0 309 80.5t215.5 220.5t77.5 312t-77.5 312t-215.5 220
t-309 80t-310 -80t-217 -220t-78 -312q0 -129 46 -242.5t125.5 -195t192.5 -128.5t241 -47zM891 276q-92 0 -163 34.5t-115 95.5t-66.5 141t-22.5 176q0 91 23 170t67.5 141.5t117.5 98.5t167 36q112 0 189.5 -56.5t111.5 -147.5l-131 -60q-58 123 -180 123
q-60 0 -103.5 -24t-67.5 -67.5t-35 -96t-11 -117.5q0 -142 53 -224.5t168 -82.5q136 0 184 135l127 -47q-36 -107 -117 -167.5t-196 -60.5z" />
    <glyph glyph-name="ordfeminine" unicode="&#xaa;" horiz-adv-x="921" 
d="M633 580v61q-40 -33 -105.5 -57.5t-130.5 -24.5q-139 0 -224 75.5t-85 215.5q0 94 51 161t125 96.5t158 29.5q116 0 211 -45v32q0 105 -44.5 148t-144.5 43q-141 0 -239 -78l-45 137q113 84 305 84q51 0 91 -5.5t87 -24.5t77.5 -52t51.5 -93.5t21 -143.5v-559h-160z
M422 700q56 0 115 26.5t96 61.5v162q-37 20 -91 32.5t-98 12.5q-80 0 -135 -36t-55 -109q0 -69 45.5 -109.5t122.5 -40.5z" />
    <glyph glyph-name="guillemotleft" unicode="&#xab;" horiz-adv-x="1054" 
d="M389 0l-311 524l311 523h195l-312 -523l312 -524h-195zM811 0l-311 524l311 523h199l-312 -523l312 -524h-199z" />
    <glyph glyph-name="logicalnot" unicode="&#xac;" horiz-adv-x="1320" 
d="M963 352v436h-783v170h963v-606h-180z" />
    <glyph glyph-name="uni00AD" unicode="&#xad;" horiz-adv-x="817" 
d="M170 524v172h479v-172h-479z" />
    <glyph glyph-name="registered" unicode="&#xae;" horiz-adv-x="1759" 
d="M881 -25q-155 0 -292.5 57.5t-236 156t-156 236t-57.5 292.5t57.5 292.5t156 236t236 155.5t292.5 57t292.5 -57t236 -155.5t155.5 -236t57 -292.5t-57 -292.5t-155.5 -236t-236 -156t-292.5 -57.5zM881 104q171 0 309 80.5t215.5 220.5t77.5 312t-77.5 312t-215.5 220
t-309 80t-310 -80t-217 -220t-78 -312q0 -129 46 -242.5t125.5 -195t192.5 -128.5t241 -47zM578 283v866h383q69 0 121.5 -23t81.5 -61t43 -80.5t14 -89.5q0 -88 -52 -160.5t-145 -93.5l203 -358h-164l-184 350h-158v-350h-143zM721 762h242q57 0 85.5 36.5t28.5 94.5
q0 49 -27.5 85t-86.5 36h-242v-252z" />
    <glyph glyph-name="macron" unicode="&#xaf;" horiz-adv-x="753" 
d="M39 1235v151h676v-151h-676z" />
    <glyph glyph-name="degree" unicode="&#xb0;" horiz-adv-x="837" 
d="M420 926q-148 0 -251 100.5t-103 247.5q0 149 102.5 248.5t251.5 99.5t250.5 -99t101.5 -249q0 -147 -102 -247.5t-250 -100.5zM420 1094q73 0 121.5 51.5t48.5 128.5q0 79 -48 129.5t-122 50.5q-73 0 -123.5 -51t-50.5 -129q0 -76 51 -128t123 -52z" />
    <glyph glyph-name="plusminus" unicode="&#xb1;" horiz-adv-x="1320" 
d="M750 743v-329h-181v329h-389v172h389v330h181v-330h393v-172h-393zM180 0v172h963v-172h-963z" />
    <glyph glyph-name="uni00B2" unicode="&#xb2;" horiz-adv-x="745" 
d="M68 909q0 84 22 153.5t66 123.5t93.5 94t119.5 82q66 39 98.5 77t32.5 97q0 47 -36.5 84t-103.5 37q-129 0 -157 -139l-135 41q22 101 102.5 165t198.5 64q126 0 204 -70.5t78 -187.5q0 -55 -15 -98t-49 -79t-72 -63t-99 -61q-139 -79 -183 -185h416v-135h-581z" />
    <glyph glyph-name="uni00B3" unicode="&#xb3;" horiz-adv-x="731" 
d="M360 891q-116 0 -195.5 61t-117.5 170l141 47q23 -72 68.5 -109.5t105.5 -37.5q66 0 105 35.5t39 95.5q0 55 -36.5 94t-100.5 39h-68v131h53q59 0 89 34.5t30 86.5q0 50 -31.5 84.5t-87.5 34.5q-100 0 -147 -115l-135 47q36 90 112 144.5t176 54.5q119 0 193 -67.5
t74 -172.5q0 -54 -30 -105t-79 -79q64 -25 102.5 -79.5t38.5 -125.5q0 -123 -82.5 -195.5t-216.5 -72.5z" />
    <glyph glyph-name="acute" unicode="&#xb4;" horiz-adv-x="753" 
d="M147 1180l291 319h254l-364 -319h-181z" />
    <glyph glyph-name="uni00B5" unicode="&#xb5;" horiz-adv-x="1157" 
d="M811 0v102q-114 -127 -268 -127q-69 0 -116.5 24t-84.5 81v-406l-178 -84v1457h178v-631q0 -82 15.5 -137.5t46.5 -85t70 -41t95 -11.5q242 0 242 271v635h178v-1047h-178z" />
    <glyph glyph-name="paragraph" unicode="&#xb6;" horiz-adv-x="1292" 
d="M561 -410v977q-108 0 -195.5 26.5t-143.5 69.5t-94.5 100.5t-54.5 117.5t-16 123q0 67 15 127t50 116t87.5 97t133.5 65.5t183 24.5h586v-1612l-178 -82v1520h-193v-1590z" />
    <glyph glyph-name="periodcentered" unicode="&#xb7;" horiz-adv-x="460" 
d="M229 575q-59 0 -100 42t-41 98q0 57 41 99t100 42t101.5 -42.5t42.5 -98.5t-42.5 -98t-101.5 -42z" />
    <glyph glyph-name="cedilla" unicode="&#xb8;" horiz-adv-x="753" 
d="M377 -485q-123 0 -193 67l101 70q22 -27 75 -27q45 0 76 28.5t31 70.5q0 38 -35.5 65t-83.5 27t-78 -15l-32 41l141 178h100l-78 -129q112 0 167 -49t55 -121q0 -91 -68.5 -148.5t-177.5 -57.5z" />
    <glyph glyph-name="uni00B9" unicode="&#xb9;" horiz-adv-x="409" 
d="M141 909v674h-104v107q57 0 89 21t50 63h111v-865h-146z" />
    <glyph glyph-name="ordmasculine" unicode="&#xba;" horiz-adv-x="956" 
d="M477 559q-180 0 -284.5 118.5t-104.5 330.5q0 211 104.5 330.5t284.5 119.5q181 0 286 -119.5t105 -330.5q0 -212 -105 -330.5t-286 -118.5zM477 713q110 0 169 77.5t59 217.5q0 143 -59 220t-169 77q-105 0 -165 -78t-60 -219q0 -139 60 -217t165 -78z" />
    <glyph glyph-name="guillemotright" unicode="&#xbb;" horiz-adv-x="1054" 
d="M47 0l311 524l-311 523h195l311 -523l-311 -524h-195zM469 0l311 524l-311 523h199l311 -523l-311 -524h-199z" />
    <glyph glyph-name="onequarter" unicode="&#xbc;" horiz-adv-x="1392" 
d="M25 -25l979 1483h167l-978 -1483h-168zM156 580v673h-105v107q59 0 91.5 21t50.5 63h110v-864h-147zM1077 0v199h-432v86l449 581h127v-532h108v-135h-108v-199h-144zM1077 334v321l-243 -321h243z" />
    <glyph glyph-name="onehalf" unicode="&#xbd;" horiz-adv-x="1488" 
d="M25 -25l979 1483h167l-978 -1483h-168zM156 580v673h-105v107q59 0 91.5 21t50.5 63h110v-864h-147zM811 0q0 84 22 153.5t66 123.5t93.5 94t119.5 82q66 39 98.5 77t32.5 97q0 47 -36 84t-103 37q-130 0 -158 -140l-135 41q22 102 102.5 166t198.5 64q127 0 205 -71
t78 -187q0 -55 -15.5 -98t-49.5 -79t-72 -63.5t-99 -61.5q-74 -42 -117 -85.5t-65 -96.5h416v-137h-582z" />
    <glyph glyph-name="threequarters" unicode="&#xbe;" horiz-adv-x="1662" 
d="M360 559q-115 0 -195 61.5t-118 170.5l141 47q23 -72 68.5 -110t105.5 -38q66 0 105 35.5t39 95.5q0 55 -36.5 95t-100.5 40h-68v131h53q59 0 89 34.5t30 86.5q0 50 -31.5 84.5t-87.5 34.5q-100 0 -147 -115l-135 48q36 90 112 144t176 54q119 0 193 -67t74 -172
q0 -55 -30 -106.5t-79 -78.5q64 -25 102.5 -79.5t38.5 -125.5q0 -124 -82.5 -197t-216.5 -73zM295 -25l979 1483h168l-979 -1483h-168zM1346 0v199h-433v86l451 581h127v-532h108v-135h-108v-199h-145zM1346 334v321l-244 -321h244z" />
    <glyph glyph-name="questiondown" unicode="&#xbf;" horiz-adv-x="1052" 
d="M551 793q-61 0 -101 40.5t-40 96.5q0 57 40.5 99t100.5 42q58 0 101.5 -42.5t43.5 -98.5q0 -55 -43 -96t-102 -41zM520 -410q-205 0 -318.5 111t-113.5 287q0 68 20.5 124.5t53 96t71.5 75t78.5 70.5t72 73.5t53 92.5t20.5 119v41h180v-43q0 -80 -20.5 -145t-53 -107.5
t-72 -79t-79.5 -68.5t-72.5 -65.5t-53 -80t-20.5 -103.5q0 -104 67 -169t187 -65q139 0 217 80t78 223h180q0 -213 -131.5 -340t-343.5 -127z" />
    <glyph glyph-name="Agrave" unicode="&#xc0;" horiz-adv-x="1390" 
d="M748 1567l-365 319h254l291 -319h-180zM1104 0l-123 350h-569l-121 -350h-187l508 1434h166l508 -1434h-182zM926 508l-185 530q-37 107 -45 146q-18 -68 -45 -146l-186 -530h461z" />
    <glyph glyph-name="Aacute" unicode="&#xc1;" horiz-adv-x="1390" 
d="M485 1567l291 319h254l-364 -319h-181zM1104 0l-123 350h-569l-121 -350h-187l508 1434h166l508 -1434h-182zM926 508l-185 530q-37 107 -45 146q-18 -68 -45 -146l-186 -530h461z" />
    <glyph glyph-name="Acircumflex" unicode="&#xc2;" horiz-adv-x="1390" 
d="M911 1567l-215 184l-215 -184h-170l301 319h168l299 -319h-168zM1104 0l-123 350h-569l-121 -350h-187l508 1434h166l508 -1434h-182zM926 508l-185 530q-37 107 -45 146q-18 -68 -45 -146l-186 -530h461z" />
    <glyph glyph-name="Atilde" unicode="&#xc3;" horiz-adv-x="1390" 
d="M856 1606q-49 0 -99.5 15.5t-85.5 34.5t-77 34.5t-76 15.5q-40 0 -66.5 -24t-29.5 -68h-92q0 246 202 246q62 0 125 -26t117.5 -51.5t95.5 -25.5q40 0 67 25t30 69h92q0 -245 -203 -245zM1104 0l-123 350h-569l-121 -350h-187l508 1434h166l508 -1434h-182zM926 508
l-185 530q-37 107 -45 146q-18 -68 -45 -146l-186 -530h461z" />
    <glyph glyph-name="Adieresis" unicode="&#xc4;" horiz-adv-x="1390" 
d="M518 1614q-46 0 -79 32.5t-33 79.5t33 80t79 33q47 0 80 -33t33 -80t-33 -79.5t-80 -32.5zM872 1614q-46 0 -79 32.5t-33 79.5t33 80t79 33q47 0 80 -33t33 -80t-33 -79.5t-80 -32.5zM1104 0l-123 350h-569l-121 -350h-187l508 1434h166l508 -1434h-182zM926 508
l-185 530q-37 107 -45 146q-18 -68 -45 -146l-186 -530h461z" />
    <glyph glyph-name="Aring" unicode="&#xc5;" horiz-adv-x="1390" 
d="M104 0l467 1319q-53 33 -84.5 88t-31.5 119q0 98 71.5 167.5t171.5 69.5q99 0 171.5 -69.5t72.5 -167.5q0 -65 -34 -120.5t-89 -86.5l467 -1319h-182l-123 350h-569l-121 -350h-187zM698 1415q43 0 73 32t30 79q0 46 -30 77t-73 31t-72.5 -31t-29.5 -77q0 -47 29.5 -79
t72.5 -32zM465 508h461l-185 530q-37 107 -45 146q-18 -68 -45 -146z" />
    <glyph glyph-name="AE" unicode="&#xc6;" horiz-adv-x="1748" 
d="M-29 0l834 1434h784v-168h-559v-441h350v-168h-350v-487h604v-170h-782v350h-485l-199 -350h-197zM457 510h395v707q-24 -54 -74 -140z" />
    <glyph glyph-name="Ccedilla" unicode="&#xc7;" horiz-adv-x="1325" 
d="M707 -485q-123 0 -193 67l100 70q22 -27 76 -27q45 0 76 28.5t31 70.5q0 38 -35.5 65t-83.5 27t-78 -15l-33 41l109 135q-114 10 -206 56.5t-152.5 117.5t-101.5 165t-59 193.5t-18 207.5q0 111 20.5 215.5t66.5 201t113.5 168t168.5 114t225 42.5q95 0 174 -21.5
t134 -59.5t92.5 -81.5t62.5 -95.5l-160 -82q-58 86 -126 130t-177 44q-89 0 -160 -35t-117 -91.5t-76.5 -133t-43 -154.5t-12.5 -161q0 -111 24 -210.5t72 -182.5t128.5 -132t184.5 -49q112 0 184.5 47t126.5 136l164 -62q-57 -121 -163 -198.5t-263 -88.5l-51 -86
q112 0 166.5 -49t54.5 -121q0 -91 -68 -148.5t-177 -57.5z" />
    <glyph glyph-name="Egrave" unicode="&#xc8;" horiz-adv-x="1226" 
d="M618 1567l-364 319h254l291 -319h-181zM201 0v1434h852v-168h-674v-441h444v-168h-444v-487h719v-170h-897z" />
    <glyph glyph-name="Eacute" unicode="&#xc9;" horiz-adv-x="1226" 
d="M403 1567l291 319h254l-364 -319h-181zM201 0v1434h852v-168h-674v-441h444v-168h-444v-487h719v-170h-897z" />
    <glyph glyph-name="Ecircumflex" unicode="&#xca;" horiz-adv-x="1226" 
d="M846 1567l-215 184l-215 -184h-170l301 319h168l299 -319h-168zM201 0v1434h852v-168h-674v-441h444v-168h-444v-487h719v-170h-897z" />
    <glyph glyph-name="Edieresis" unicode="&#xcb;" horiz-adv-x="1226" 
d="M457 1614q-46 0 -79.5 32.5t-33.5 79.5t33.5 80t79.5 33q47 0 79.5 -33t32.5 -80t-32.5 -79.5t-79.5 -32.5zM811 1614q-46 0 -79.5 32.5t-33.5 79.5t33.5 80t79.5 33q47 0 80 -33t33 -80t-33 -79.5t-80 -32.5zM201 0v1434h852v-168h-674v-441h444v-168h-444v-487h719
v-170h-897z" />
    <glyph glyph-name="Igrave" unicode="&#xcc;" horiz-adv-x="587" 
d="M330 1567l-365 319h254l291 -319h-180zM205 0v1434h178v-1434h-178z" />
    <glyph glyph-name="Iacute" unicode="&#xcd;" horiz-adv-x="587" 
d="M63 1567l291 319h254l-364 -319h-181zM205 0v1434h178v-1434h-178z" />
    <glyph glyph-name="Icircumflex" unicode="&#xce;" horiz-adv-x="587" 
d="M510 1567l-215 184l-215 -184h-170l301 319h168l299 -319h-168zM205 0v1434h178v-1434h-178z" />
    <glyph glyph-name="Idieresis" unicode="&#xcf;" horiz-adv-x="587" 
d="M117 1614q-46 0 -79.5 32.5t-33.5 79.5t33.5 80t79.5 33q47 0 79.5 -33t32.5 -80t-32.5 -79.5t-79.5 -32.5zM471 1614q-46 0 -79.5 32.5t-33.5 79.5t33.5 80t79.5 33q47 0 80 -33t33 -80t-33 -79.5t-80 -32.5zM205 0v1434h178v-1434h-178z" />
    <glyph glyph-name="Eth" unicode="&#xd0;" horiz-adv-x="1396" 
d="M201 635h-140v162h140v637h391q143 0 257.5 -41t189.5 -109t125 -162t71.5 -194.5t21.5 -210.5q0 -105 -19.5 -202t-68.5 -192.5t-123 -165.5t-193 -113.5t-269 -43.5h-383v635zM606 166q103 0 185 32.5t133.5 86t86 126.5t48.5 148.5t14 157.5q0 108 -26 204.5
t-77.5 176t-139 126t-201.5 46.5h-250v-473h313v-162h-313v-469h227z" />
    <glyph glyph-name="Ntilde" unicode="&#xd1;" horiz-adv-x="1449" 
d="M895 1606q-49 0 -99.5 15.5t-85.5 34.5t-77 34.5t-76 15.5q-40 0 -66.5 -24t-29.5 -68h-92q0 246 202 246q62 0 125 -26t117.5 -51.5t95.5 -25.5q40 0 67 25t30 69h92q0 -245 -203 -245zM1249 0h-172l-645 1024q-49 84 -57 100q4 -62 4 -100v-1024h-178v1434h180
l635 -1020q40 -70 59 -107q-4 74 -4 105v1022h178v-1434z" />
    <glyph glyph-name="Ograve" unicode="&#xd2;" horiz-adv-x="1495" 
d="M778 1569l-364 319h254l290 -319h-180zM748 -25q-131 0 -236 43.5t-173.5 115.5t-114.5 169.5t-65.5 200t-19.5 213.5t19.5 213.5t65.5 200t114.5 169t173.5 115t236 43.5t237 -43.5t174 -115t114 -169t65.5 -200t19.5 -213.5t-19.5 -213.5t-65.5 -200t-114 -169.5
t-174 -115.5t-237 -43.5zM748 143q91 0 164.5 35t121 92.5t79 133.5t45 154t13.5 159q0 88 -13.5 168t-45 155.5t-79 130.5t-121 88t-164.5 33q-90 0 -163.5 -35t-121 -92t-80 -133.5t-46 -154.5t-13.5 -160q0 -111 23 -209t71 -182t132.5 -133.5t197.5 -49.5z" />
    <glyph glyph-name="Oacute" unicode="&#xd3;" horiz-adv-x="1495" 
d="M516 1567l291 319h254l-365 -319h-180zM748 -25q-131 0 -236 43.5t-173.5 115.5t-114.5 169.5t-65.5 200t-19.5 213.5t19.5 213.5t65.5 200t114.5 169t173.5 115t236 43.5t237 -43.5t174 -115t114 -169t65.5 -200t19.5 -213.5t-19.5 -213.5t-65.5 -200t-114 -169.5
t-174 -115.5t-237 -43.5zM748 143q91 0 164.5 35t121 92.5t79 133.5t45 154t13.5 159q0 88 -13.5 168t-45 155.5t-79 130.5t-121 88t-164.5 33q-90 0 -163.5 -35t-121 -92t-80 -133.5t-46 -154.5t-13.5 -160q0 -111 23 -209t71 -182t132.5 -133.5t197.5 -49.5z" />
    <glyph glyph-name="Ocircumflex" unicode="&#xd4;" horiz-adv-x="1495" 
d="M963 1567l-215 184l-216 -184h-170l302 319h167l299 -319h-167zM748 -25q-131 0 -236 43.5t-173.5 115.5t-114.5 169.5t-65.5 200t-19.5 213.5t19.5 213.5t65.5 200t114.5 169t173.5 115t236 43.5t237 -43.5t174 -115t114 -169t65.5 -200t19.5 -213.5t-19.5 -213.5
t-65.5 -200t-114 -169.5t-174 -115.5t-237 -43.5zM748 143q91 0 164.5 35t121 92.5t79 133.5t45 154t13.5 159q0 88 -13.5 168t-45 155.5t-79 130.5t-121 88t-164.5 33q-90 0 -163.5 -35t-121 -92t-80 -133.5t-46 -154.5t-13.5 -160q0 -111 23 -209t71 -182t132.5 -133.5
t197.5 -49.5z" />
    <glyph glyph-name="Otilde" unicode="&#xd5;" horiz-adv-x="1495" 
d="M907 1606q-49 0 -99.5 15.5t-85.5 34.5t-77 34.5t-76 15.5q-40 0 -66.5 -24t-29.5 -68h-92q0 246 203 246q62 0 125 -26t117.5 -51.5t95.5 -25.5q40 0 66.5 25t29.5 69h92q0 -245 -203 -245zM748 -25q-131 0 -236 43.5t-173.5 115.5t-114.5 169.5t-65.5 200t-19.5 213.5
t19.5 213.5t65.5 200t114.5 169t173.5 115t236 43.5t237 -43.5t174 -115t114 -169t65.5 -200t19.5 -213.5t-19.5 -213.5t-65.5 -200t-114 -169.5t-174 -115.5t-237 -43.5zM748 143q91 0 164.5 35t121 92.5t79 133.5t45 154t13.5 159q0 88 -13.5 168t-45 155.5t-79 130.5
t-121 88t-164.5 33q-90 0 -163.5 -35t-121 -92t-80 -133.5t-46 -154.5t-13.5 -160q0 -111 23 -209t71 -182t132.5 -133.5t197.5 -49.5z" />
    <glyph glyph-name="Odieresis" unicode="&#xd6;" horiz-adv-x="1495" 
d="M569 1614q-46 0 -79 32.5t-33 79.5t33 80t79 33q47 0 80 -33t33 -80t-33 -79.5t-80 -32.5zM924 1614q-46 0 -79.5 32.5t-33.5 79.5t33.5 80t79.5 33q47 0 79.5 -33t32.5 -80t-32.5 -79.5t-79.5 -32.5zM748 -25q-131 0 -236 43.5t-173.5 115.5t-114.5 169.5t-65.5 200
t-19.5 213.5t19.5 213.5t65.5 200t114.5 169t173.5 115t236 43.5t237 -43.5t174 -115t114 -169t65.5 -200t19.5 -213.5t-19.5 -213.5t-65.5 -200t-114 -169.5t-174 -115.5t-237 -43.5zM748 143q91 0 164.5 35t121 92.5t79 133.5t45 154t13.5 159q0 88 -13.5 168t-45 155.5
t-79 130.5t-121 88t-164.5 33q-90 0 -163.5 -35t-121 -92t-80 -133.5t-46 -154.5t-13.5 -160q0 -111 23 -209t71 -182t132.5 -133.5t197.5 -49.5z" />
    <glyph glyph-name="multiply" unicode="&#xd7;" horiz-adv-x="1320" 
d="M664 578l-338 -340l-129 129l340 338l-338 335l123 123l337 -336l336 338l129 -129l-340 -336l338 -338l-123 -122z" />
    <glyph glyph-name="Oslash" unicode="&#xd8;" horiz-adv-x="1484" 
d="M152 -25l139 207q-81 102 -119.5 242.5t-38.5 292.5q0 111 19.5 213.5t65.5 200t114 169t174 115t237 43.5q196 0 340 -100l68 100h184l-141 -207q81 -102 119.5 -242t38.5 -292q0 -111 -19.5 -213.5t-65.5 -200t-114.5 -169.5t-173.5 -115.5t-236 -43.5q-198 0 -342 103
l-69 -103h-180zM401 346l584 864q-101 82 -242 82q-91 0 -164.5 -35t-121 -92t-79.5 -133.5t-45.5 -154.5t-13.5 -160q0 -226 82 -371zM743 143q90 0 163.5 35t121 92.5t80 133.5t46 154t13.5 159q0 222 -84 370l-583 -864q100 -80 243 -80z" />
    <glyph glyph-name="Ugrave" unicode="&#xd9;" horiz-adv-x="1411" 
d="M743 1567l-364 319h254l291 -319h-181zM705 -25q-117 0 -208.5 30.5t-161.5 95.5t-107.5 176t-37.5 262v895h179v-895q0 -92 17.5 -162t47.5 -114t73.5 -71.5t91.5 -38t106 -10.5t106 10.5t92 38t74 71.5t47.5 114t17.5 162v895h179v-895q0 -564 -516 -564z" />
    <glyph glyph-name="Uacute" unicode="&#xda;" horiz-adv-x="1411" 
d="M504 1567l291 319h254l-365 -319h-180zM705 -25q-117 0 -208.5 30.5t-161.5 95.5t-107.5 176t-37.5 262v895h179v-895q0 -92 17.5 -162t47.5 -114t73.5 -71.5t91.5 -38t106 -10.5t106 10.5t92 38t74 71.5t47.5 114t17.5 162v895h179v-895q0 -564 -516 -564z" />
    <glyph glyph-name="Ucircumflex" unicode="&#xdb;" horiz-adv-x="1411" 
d="M922 1567l-215 184l-215 -184h-170l301 319h168l299 -319h-168zM705 -25q-117 0 -208.5 30.5t-161.5 95.5t-107.5 176t-37.5 262v895h179v-895q0 -92 17.5 -162t47.5 -114t73.5 -71.5t91.5 -38t106 -10.5t106 10.5t92 38t74 71.5t47.5 114t17.5 162v895h179v-895
q0 -564 -516 -564z" />
    <glyph glyph-name="Udieresis" unicode="&#xdc;" horiz-adv-x="1411" 
d="M528 1614q-46 0 -79 32.5t-33 79.5t33 80t79 33q47 0 80 -33t33 -80t-33 -79.5t-80 -32.5zM883 1614q-46 0 -79.5 32.5t-33.5 79.5t33.5 80t79.5 33q47 0 79.5 -33t32.5 -80t-32.5 -79.5t-79.5 -32.5zM705 -25q-117 0 -208.5 30.5t-161.5 95.5t-107.5 176t-37.5 262v895
h179v-895q0 -92 17.5 -162t47.5 -114t73.5 -71.5t91.5 -38t106 -10.5t106 10.5t92 38t74 71.5t47.5 114t17.5 162v895h179v-895q0 -564 -516 -564z" />
    <glyph glyph-name="Yacute" unicode="&#xdd;" horiz-adv-x="1312" 
d="M455 1567l290 319h254l-364 -319h-180zM569 0v563l-487 871h201l374 -697l379 697h195l-483 -867v-567h-179z" />
    <glyph glyph-name="Thorn" unicode="&#xde;" horiz-adv-x="1294" 
d="M201 0v1434h178v-275h371q101 0 181.5 -24.5t132 -65.5t85.5 -97t48.5 -116t14.5 -127q0 -61 -15.5 -120.5t-51 -116t-87.5 -99t-131.5 -68.5t-176.5 -26h-371v-299h-178zM762 467q73 0 127.5 23t85 61.5t45 83t14.5 94.5q0 36 -7.5 70t-26.5 70t-49 62t-78.5 43
t-110.5 17h-383v-524h383z" />
    <glyph glyph-name="germandbls" unicode="&#xdf;" horiz-adv-x="1150" 
d="M150 -414v1389q0 127 35.5 223t96.5 151t132.5 82t152.5 27q185 0 299.5 -103.5t114.5 -271.5q0 -102 -49 -181.5t-146 -113.5q129 -41 199 -135.5t70 -222.5q0 -207 -121.5 -331t-310.5 -124q-105 0 -179 33l88 144q41 -13 93 -13q97 0 172 73.5t75 211.5q0 54 -17 101
t-51.5 86t-96 62t-142.5 23h-26v164h26q108 0 171 53.5t63 161.5q0 103 -59.5 162t-170.5 59q-108 0 -174.5 -77.5t-66.5 -237.5v-1309z" />
    <glyph glyph-name="agrave" unicode="&#xe0;" horiz-adv-x="1077" 
d="M565 1180l-364 319h254l290 -319h-180zM770 0v96q-128 -121 -297 -121q-165 0 -264.5 91.5t-99.5 261.5q0 71 21.5 129t58 97.5t86.5 67t106.5 40t118.5 12.5q151 0 270 -68v74q0 130 -58.5 182.5t-168.5 52.5q-158 0 -305 -104l-52 150q71 47 170 78.5t209 31.5
q373 0 373 -377v-694h-168zM500 133q81 0 150.5 39t119.5 98v181q-49 30 -116 49.5t-130 19.5q-108 0 -178 -48.5t-70 -143.5q0 -89 59 -142t165 -53z" />
    <glyph glyph-name="aacute" unicode="&#xe1;" horiz-adv-x="1077" 
d="M334 1180l291 319h254l-365 -319h-180zM770 0v96q-128 -121 -297 -121q-165 0 -264.5 91.5t-99.5 261.5q0 71 21.5 129t58 97.5t86.5 67t106.5 40t118.5 12.5q151 0 270 -68v74q0 130 -58.5 182.5t-168.5 52.5q-158 0 -305 -104l-52 150q71 47 170 78.5t209 31.5
q373 0 373 -377v-694h-168zM500 133q81 0 150.5 39t119.5 98v181q-49 30 -116 49.5t-130 19.5q-108 0 -178 -48.5t-70 -143.5q0 -89 59 -142t165 -53z" />
    <glyph glyph-name="acircumflex" unicode="&#xe2;" horiz-adv-x="1077" 
d="M780 1180l-215 184l-215 -184h-170l301 319h168l299 -319h-168zM770 0v96q-128 -121 -297 -121q-165 0 -264.5 91.5t-99.5 261.5q0 71 21.5 129t58 97.5t86.5 67t106.5 40t118.5 12.5q151 0 270 -68v74q0 130 -58.5 182.5t-168.5 52.5q-158 0 -305 -104l-52 150
q71 47 170 78.5t209 31.5q373 0 373 -377v-694h-168zM500 133q81 0 150.5 39t119.5 98v181q-49 30 -116 49.5t-130 19.5q-108 0 -178 -48.5t-70 -143.5q0 -89 59 -142t165 -53z" />
    <glyph glyph-name="atilde" unicode="&#xe3;" horiz-adv-x="1077" 
d="M725 1219q-49 0 -99.5 15.5t-85.5 34.5t-77 34.5t-76 15.5q-40 0 -66.5 -24t-29.5 -68h-92q0 246 202 246q49 0 99.5 -16t85.5 -35.5t77 -35.5t76 -16q40 0 67 25t30 69h92q0 -245 -203 -245zM770 0v96q-128 -121 -297 -121q-165 0 -264.5 91.5t-99.5 261.5
q0 71 21.5 129t58 97.5t86.5 67t106.5 40t118.5 12.5q151 0 270 -68v74q0 130 -58.5 182.5t-168.5 52.5q-158 0 -305 -104l-52 150q71 47 170 78.5t209 31.5q373 0 373 -377v-694h-168zM500 133q81 0 150.5 39t119.5 98v181q-49 30 -116 49.5t-130 19.5q-108 0 -178 -48.5
t-70 -143.5q0 -89 59 -142t165 -53z" />
    <glyph glyph-name="adieresis" unicode="&#xe4;" horiz-adv-x="1077" 
d="M387 1227q-46 0 -79.5 32.5t-33.5 79.5t33.5 80t79.5 33q47 0 80 -33t33 -80t-33 -79.5t-80 -32.5zM741 1227q-46 0 -79 32.5t-33 79.5t33 80t79 33q47 0 80 -33t33 -80t-33 -79.5t-80 -32.5zM770 0v96q-128 -121 -297 -121q-165 0 -264.5 91.5t-99.5 261.5
q0 71 21.5 129t58 97.5t86.5 67t106.5 40t118.5 12.5q151 0 270 -68v74q0 130 -58.5 182.5t-168.5 52.5q-158 0 -305 -104l-52 150q71 47 170 78.5t209 31.5q373 0 373 -377v-694h-168zM500 133q81 0 150.5 39t119.5 98v181q-49 30 -116 49.5t-130 19.5q-108 0 -178 -48.5
t-70 -143.5q0 -89 59 -142t165 -53z" />
    <glyph glyph-name="aring" unicode="&#xe5;" horiz-adv-x="1077" 
d="M567 1169q-99 0 -171 71.5t-72 170.5t71.5 168.5t171.5 69.5q99 0 171.5 -69.5t72.5 -168.5q0 -98 -73 -170t-171 -72zM567 1300q43 0 73 32t30 79q0 49 -29.5 79t-73.5 30t-74 -30.5t-30 -78.5q0 -47 30.5 -79t73.5 -32zM770 0v96q-128 -121 -297 -121
q-165 0 -264.5 91.5t-99.5 261.5q0 71 21.5 129t58 97.5t86.5 67t106.5 40t118.5 12.5q151 0 270 -68v74q0 130 -58.5 182.5t-168.5 52.5q-158 0 -305 -104l-52 150q71 47 170 78.5t209 31.5q373 0 373 -377v-694h-168zM500 133q81 0 150.5 39t119.5 98v181
q-49 30 -116 49.5t-130 19.5q-108 0 -178 -48.5t-70 -143.5q0 -89 59 -142t165 -53z" />
    <glyph glyph-name="ae" unicode="&#xe6;" horiz-adv-x="1755" 
d="M473 -25q-165 0 -264.5 91.5t-99.5 261.5q0 87 32 155t87 108.5t124 61.5t148 21q151 0 270 -68v74q0 125 -56 180t-171 55q-158 0 -305 -104l-52 150q71 47 170 78.5t209 31.5q231 0 316 -156q126 156 344 156q194 0 314 -128.5t120 -369.5q0 -57 -6 -118h-709
q12 -148 91 -233t194 -85q133 0 227 94l109 -120q-136 -136 -340 -136q-120 0 -214.5 53t-154.5 142q-79 -99 -183 -147t-200 -48zM942 610h537q-1 84 -24.5 146t-62 94.5t-80 47.5t-85.5 15q-121 0 -198.5 -76t-86.5 -227zM500 133q86 0 161 45.5t123 114.5q-11 69 -14 158
q-118 69 -246 69q-108 0 -178 -48.5t-70 -143.5q0 -89 59 -142t165 -53z" />
    <glyph glyph-name="ccedilla" unicode="&#xe7;" horiz-adv-x="1024" 
d="M524 -485q-122 0 -192 67l100 70q22 -27 76 -27q45 0 75.5 28.5t30.5 70.5q0 38 -35 65t-83 27t-78 -15l-33 41l109 138q-180 17 -282.5 159t-102.5 383q0 257 118 403t324 146q133 0 228.5 -61.5t138.5 -182.5l-168 -61q-25 64 -74.5 101.5t-122.5 37.5
q-131 0 -196.5 -100.5t-65.5 -282.5q0 -180 65.5 -279.5t190.5 -99.5q78 0 134 41t79 115l166 -55q-35 -116 -119 -185t-205 -82l-53 -86q112 0 165.5 -49t53.5 -121q0 -91 -68 -148.5t-176 -57.5z" />
    <glyph glyph-name="egrave" unicode="&#xe8;" horiz-adv-x="1101" 
d="M625 1180l-365 319h254l291 -319h-180zM573 -25q-212 0 -338 153t-126 396q0 256 126 401.5t338 145.5q90 0 167.5 -30t137.5 -89.5t94 -156.5t34 -222q0 -46 -7 -118h-708q10 -144 89 -231t198 -87q131 0 225 94l108 -120q-62 -62 -149.5 -99t-188.5 -37zM289 606h536
q-1 85 -24 147.5t-61.5 96t-80 48.5t-86.5 15q-121 0 -199 -76.5t-85 -230.5z" />
    <glyph glyph-name="eacute" unicode="&#xe9;" horiz-adv-x="1101" 
d="M342 1180l291 319h254l-365 -319h-180zM573 -25q-212 0 -338 153t-126 396q0 256 126 401.5t338 145.5q90 0 167.5 -30t137.5 -89.5t94 -156.5t34 -222q0 -46 -7 -118h-708q10 -144 89 -231t198 -87q131 0 225 94l108 -120q-62 -62 -149.5 -99t-188.5 -37zM289 606h536
q-1 85 -24 147.5t-61.5 96t-80 48.5t-86.5 15q-121 0 -199 -76.5t-85 -230.5z" />
    <glyph glyph-name="ecircumflex" unicode="&#xea;" horiz-adv-x="1101" 
d="M788 1180l-215 184l-215 -184h-170l301 319h168l299 -319h-168zM573 -25q-212 0 -338 153t-126 396q0 256 126 401.5t338 145.5q90 0 167.5 -30t137.5 -89.5t94 -156.5t34 -222q0 -46 -7 -118h-708q10 -144 89 -231t198 -87q131 0 225 94l108 -120q-62 -62 -149.5 -99
t-188.5 -37zM289 606h536q-1 85 -24 147.5t-61.5 96t-80 48.5t-86.5 15q-121 0 -199 -76.5t-85 -230.5z" />
    <glyph glyph-name="edieresis" unicode="&#xeb;" horiz-adv-x="1101" 
d="M395 1227q-46 0 -79 32.5t-33 79.5t33 80t79 33q47 0 80 -33t33 -80t-33 -79.5t-80 -32.5zM750 1227q-46 0 -79.5 32.5t-33.5 79.5t33.5 80t79.5 33q47 0 79.5 -33t32.5 -80t-32.5 -79.5t-79.5 -32.5zM573 -25q-212 0 -338 153t-126 396q0 256 126 401.5t338 145.5
q90 0 167.5 -30t137.5 -89.5t94 -156.5t34 -222q0 -46 -7 -118h-708q10 -144 89 -231t198 -87q131 0 225 94l108 -120q-62 -62 -149.5 -99t-188.5 -37zM289 606h536q-1 85 -24 147.5t-61.5 96t-80 48.5t-86.5 15q-121 0 -199 -76.5t-85 -230.5z" />
    <glyph glyph-name="igrave" unicode="&#xec;" horiz-adv-x="520" 
d="M283 1180l-365 319h254l291 -319h-180zM172 0v1047h178v-1047h-178z" />
    <glyph glyph-name="iacute" unicode="&#xed;" horiz-adv-x="520" 
d="M57 1180l291 319h254l-364 -319h-181zM172 0v1047h178v-1047h-178z" />
    <glyph glyph-name="icircumflex" unicode="&#xee;" horiz-adv-x="520" 
d="M475 1180l-215 184l-215 -184h-170l301 319h168l299 -319h-168zM172 0v1047h178v-1047h-178z" />
    <glyph glyph-name="idieresis" unicode="&#xef;" horiz-adv-x="520" 
d="M82 1227q-46 0 -79.5 32.5t-33.5 79.5t33.5 80t79.5 33q47 0 80 -33t33 -80t-33 -79.5t-80 -32.5zM436 1227q-46 0 -79 32.5t-33 79.5t33 80t79 33q47 0 80 -33t33 -80t-33 -79.5t-80 -32.5zM172 0v1047h178v-1047h-178z" />
    <glyph glyph-name="eth" unicode="&#xf0;" horiz-adv-x="1142" 
d="M571 -25q-204 0 -333 135.5t-129 342.5q0 212 130 346.5t322 134.5q104 0 179 -45.5t112 -114.5q-43 270 -227 414l-131 -139l-91 88l111 118q-109 51 -240 60v143q196 -9 347 -88l118 125l92 -90l-100 -107q146 -117 224.5 -308t78.5 -439q0 -263 -119.5 -419.5
t-343.5 -156.5zM571 141q119 0 201 89.5t82 220.5q0 137 -81 228t-204 91q-120 0 -200 -89.5t-80 -227.5q0 -133 82 -222.5t200 -89.5z" />
    <glyph glyph-name="ntilde" unicode="&#xf1;" 
d="M750 1219q-49 0 -99.5 15.5t-85.5 34.5t-77 34.5t-76 15.5q-40 0 -67 -24t-30 -68h-92q0 246 203 246q49 0 99.5 -16t85.5 -35.5t77 -35.5t76 -16q40 0 66.5 25t29.5 69h92q0 -245 -202 -245zM815 0v633q0 142 -60.5 208t-164.5 66q-242 0 -242 -270v-637h-178v1047h178
v-107q96 131 270 131q185 0 280 -111.5t95 -357.5v-602h-178z" />
    <glyph glyph-name="ograve" unicode="&#xf2;" horiz-adv-x="1142" 
d="M623 1180l-365 319h254l291 -319h-180zM571 -25q-213 0 -337.5 145t-124.5 402q0 256 125 402.5t337 146.5q213 0 338 -145t125 -402q0 -256 -125.5 -402.5t-337.5 -146.5zM571 141q132 0 207.5 101.5t75.5 281.5q0 179 -75 281t-208 102q-134 0 -208 -101t-74 -284
q0 -179 74.5 -280t207.5 -101z" />
    <glyph glyph-name="oacute" unicode="&#xf3;" horiz-adv-x="1142" 
d="M340 1180l291 319h254l-365 -319h-180zM571 -25q-213 0 -337.5 145t-124.5 402q0 256 125 402.5t337 146.5q213 0 338 -145t125 -402q0 -256 -125.5 -402.5t-337.5 -146.5zM571 141q132 0 207.5 101.5t75.5 281.5q0 179 -75 281t-208 102q-134 0 -208 -101t-74 -284
q0 -179 74.5 -280t207.5 -101z" />
    <glyph glyph-name="ocircumflex" unicode="&#xf4;" horiz-adv-x="1142" 
d="M786 1180l-215 184l-215 -184h-170l301 319h168l299 -319h-168zM571 -25q-213 0 -337.5 145t-124.5 402q0 256 125 402.5t337 146.5q213 0 338 -145t125 -402q0 -256 -125.5 -402.5t-337.5 -146.5zM571 141q132 0 207.5 101.5t75.5 281.5q0 179 -75 281t-208 102
q-134 0 -208 -101t-74 -284q0 -179 74.5 -280t207.5 -101z" />
    <glyph glyph-name="otilde" unicode="&#xf5;" horiz-adv-x="1142" 
d="M731 1219q-49 0 -99.5 15.5t-85.5 34.5t-77 34.5t-76 15.5q-40 0 -66.5 -24t-29.5 -68h-92q0 246 203 246q49 0 99.5 -16t85.5 -35.5t76.5 -35.5t75.5 -16q40 0 67 25t30 69h92q0 -245 -203 -245zM571 -25q-213 0 -337.5 145t-124.5 402q0 256 125 402.5t337 146.5
q213 0 338 -145t125 -402q0 -256 -125.5 -402.5t-337.5 -146.5zM571 141q132 0 207.5 101.5t75.5 281.5q0 179 -75 281t-208 102q-134 0 -208 -101t-74 -284q0 -179 74.5 -280t207.5 -101z" />
    <glyph glyph-name="odieresis" unicode="&#xf6;" horiz-adv-x="1142" 
d="M393 1227q-46 0 -79 32.5t-33 79.5t33 80t79 33q47 0 80 -33t33 -80t-33 -79.5t-80 -32.5zM748 1227q-46 0 -79.5 32.5t-33.5 79.5t33.5 80t79.5 33q47 0 79.5 -33t32.5 -80t-32.5 -79.5t-79.5 -32.5zM571 -25q-213 0 -337.5 145t-124.5 402q0 256 125 402.5t337 146.5
q213 0 338 -145t125 -402q0 -256 -125.5 -402.5t-337.5 -146.5zM571 141q132 0 207.5 101.5t75.5 281.5q0 179 -75 281t-208 102q-134 0 -208 -101t-74 -284q0 -179 74.5 -280t207.5 -101z" />
    <glyph glyph-name="divide" unicode="&#xf7;" horiz-adv-x="1320" 
d="M657 995q-50 0 -83 33.5t-33 81.5q0 47 33 81t83 34t84.5 -34t34.5 -81q0 -48 -34 -81.5t-85 -33.5zM180 616v172h963v-172h-963zM657 180q-50 0 -83 32.5t-33 80.5t33 81.5t83 33.5q51 0 85 -33.5t34 -81.5t-34 -80.5t-85 -32.5z" />
    <glyph glyph-name="oslash" unicode="&#xf8;" horiz-adv-x="1142" 
d="M1034 1071l-112 -162q112 -143 112 -385q0 -256 -125.5 -402.5t-337.5 -146.5q-143 0 -252 70l-49 -70h-161l112 162q-112 143 -112 385q0 256 125 402.5t337 146.5q146 0 250 -67l47 67h166zM289 522q0 -138 43 -225l391 565q-64 45 -152 45q-134 0 -208 -101t-74 -284z
M854 524q0 138 -43 228l-393 -564q65 -47 153 -47q132 0 207.5 101.5t75.5 281.5z" />
    <glyph glyph-name="ugrave" unicode="&#xf9;" 
d="M616 1180l-364 319h254l291 -319h-181zM805 0v100q-52 -66 -115.5 -95.5t-148.5 -29.5q-190 0 -285.5 110.5t-95.5 356.5v605h178v-631q0 -142 61 -208.5t164 -66.5q242 0 242 271v635h178v-1047h-178z" />
    <glyph glyph-name="uacute" unicode="&#xfa;" 
d="M334 1180l291 319h254l-365 -319h-180zM805 0v100q-52 -66 -115.5 -95.5t-148.5 -29.5q-190 0 -285.5 110.5t-95.5 356.5v605h178v-631q0 -142 61 -208.5t164 -66.5q242 0 242 271v635h178v-1047h-178z" />
    <glyph glyph-name="ucircumflex" unicode="&#xfb;" 
d="M780 1180l-215 184l-215 -184h-170l301 319h168l299 -319h-168zM805 0v100q-52 -66 -115.5 -95.5t-148.5 -29.5q-190 0 -285.5 110.5t-95.5 356.5v605h178v-631q0 -142 61 -208.5t164 -66.5q242 0 242 271v635h178v-1047h-178z" />
    <glyph glyph-name="udieresis" unicode="&#xfc;" 
d="M387 1227q-46 0 -79.5 32.5t-33.5 79.5t33.5 80t79.5 33q47 0 80 -33t33 -80t-33 -79.5t-80 -32.5zM741 1227q-46 0 -79 32.5t-33 79.5t33 80t79 33q47 0 80 -33t33 -80t-33 -79.5t-80 -32.5zM805 0v100q-52 -66 -115.5 -95.5t-148.5 -29.5q-190 0 -285.5 110.5
t-95.5 356.5v605h178v-631q0 -142 61 -208.5t164 -66.5q242 0 242 271v635h178v-1047h-178z" />
    <glyph glyph-name="yacute" unicode="&#xfd;" horiz-adv-x="1085" 
d="M307 1180l291 319h254l-365 -319h-180zM295 -397l160 424l-387 1020h178l260 -713q17 -45 33 -101q19 67 32 101l265 713h182l-543 -1444h-180z" />
    <glyph glyph-name="thorn" unicode="&#xfe;" horiz-adv-x="1155" 
d="M616 -25q-166 0 -268 123v-428l-178 -84v1788l178 84v-500q53 53 115.5 83t152.5 30q199 0 316 -147.5t117 -399.5q0 -256 -119 -402.5t-314 -146.5zM594 141q132 0 202 99t70 284q0 173 -73 278t-199 105q-80 0 -144 -37t-102 -104v-483q107 -142 246 -142z" />
    <glyph glyph-name="ydieresis" unicode="&#xff;" horiz-adv-x="1085" 
d="M360 1227q-46 0 -79 32.5t-33 79.5t33 80t79 33q47 0 80 -33t33 -80t-33 -79.5t-80 -32.5zM715 1227q-46 0 -79.5 32.5t-33.5 79.5t33.5 80t79.5 33q47 0 79.5 -33t32.5 -80t-32.5 -79.5t-79.5 -32.5zM295 -397l160 424l-387 1020h178l260 -713q17 -45 33 -101
q19 67 32 101l265 713h182l-543 -1444h-180z" />
    <glyph glyph-name="Amacron" unicode="&#x100;" horiz-adv-x="1390" 
d="M356 1622v152h676v-152h-676zM1104 0l-123 350h-569l-121 -350h-187l508 1434h166l508 -1434h-182zM926 508l-185 530q-37 107 -45 146q-18 -68 -45 -146l-186 -530h461z" />
    <glyph glyph-name="amacron" unicode="&#x101;" horiz-adv-x="1077" 
d="M225 1235v151h676v-151h-676zM770 0v96q-128 -121 -297 -121q-165 0 -264.5 91.5t-99.5 261.5q0 71 21.5 129t58 97.5t86.5 67t106.5 40t118.5 12.5q151 0 270 -68v74q0 130 -58.5 182.5t-168.5 52.5q-158 0 -305 -104l-52 150q71 47 170 78.5t209 31.5q373 0 373 -377
v-694h-168zM500 133q81 0 150.5 39t119.5 98v181q-49 30 -116 49.5t-130 19.5q-108 0 -178 -48.5t-70 -143.5q0 -89 59 -142t165 -53z" />
    <glyph glyph-name="Abreve" unicode="&#x102;" horiz-adv-x="1390" 
d="M694 1573q-184 0 -278 94t-94 240h159q0 -84 59 -134.5t154 -50.5q96 0 155.5 50.5t59.5 134.5h160q0 -146 -95 -240t-280 -94zM1104 0l-123 350h-569l-121 -350h-187l508 1434h166l508 -1434h-182zM926 508l-185 530q-37 107 -45 146q-18 -68 -45 -146l-186 -530h461z
" />
    <glyph glyph-name="abreve" unicode="&#x103;" horiz-adv-x="1077" 
d="M563 1186q-184 0 -278.5 94t-94.5 240h160q0 -84 59 -134.5t154 -50.5q96 0 155.5 50.5t59.5 134.5h160q0 -146 -95 -240t-280 -94zM770 0v96q-128 -121 -297 -121q-165 0 -264.5 91.5t-99.5 261.5q0 71 21.5 129t58 97.5t86.5 67t106.5 40t118.5 12.5q151 0 270 -68v74
q0 130 -58.5 182.5t-168.5 52.5q-158 0 -305 -104l-52 150q71 47 170 78.5t209 31.5q373 0 373 -377v-694h-168zM500 133q81 0 150.5 39t119.5 98v181q-49 30 -116 49.5t-130 19.5q-108 0 -178 -48.5t-70 -143.5q0 -89 59 -142t165 -53z" />
    <glyph glyph-name="Aogonek" unicode="&#x104;" horiz-adv-x="1390" 
d="M1094 -485q-103 0 -169.5 54.5t-66.5 151.5q0 92 62 163.5t184 115.5l-123 350h-569l-121 -350h-187l508 1434h166l508 -1434q-126 -26 -202 -99.5t-76 -160.5q0 -55 30.5 -84t75.5 -29q59 0 98 43l93 -67q-80 -88 -211 -88zM465 508h461l-185 530q-37 107 -45 146
q-18 -68 -45 -146z" />
    <glyph glyph-name="aogonek" unicode="&#x105;" horiz-adv-x="1077" 
d="M776 -485q-103 0 -169 54.5t-66 151.5q0 92 60.5 162.5t168.5 116.5v96q-128 -121 -297 -121q-165 0 -264.5 91.5t-99.5 261.5q0 71 21.5 129t58 97.5t86.5 67t106.5 40t118.5 12.5q151 0 270 -68v74q0 130 -58.5 182.5t-168.5 52.5q-158 0 -305 -104l-52 150
q71 47 170 78.5t209 31.5q373 0 373 -377v-694q-124 -40 -186 -113.5t-62 -146.5q0 -55 31 -84t76 -29q59 0 98 43l92 -67q-80 -88 -211 -88zM500 133q81 0 150.5 39t119.5 98v181q-49 30 -116 49.5t-130 19.5q-108 0 -178 -48.5t-70 -143.5q0 -89 59 -142t165 -53z" />
    <glyph glyph-name="Cacute" unicode="&#x106;" horiz-adv-x="1325" 
d="M537 1567l290 319h254l-364 -319h-180zM733 -25q-126 0 -228 42.5t-169 113.5t-112.5 167.5t-65 201t-19.5 217.5q0 111 20.5 215.5t66.5 201t113.5 168t168.5 114t225 42.5q95 0 174 -21.5t134 -59.5t92.5 -81.5t62.5 -95.5l-160 -82q-58 86 -126 130t-177 44
q-89 0 -160 -35t-117 -91.5t-76.5 -133t-43 -154.5t-12.5 -161q0 -111 24 -210.5t72 -182.5t128.5 -132t184.5 -49q112 0 184.5 47t126.5 136l164 -62q-60 -131 -178.5 -210t-296.5 -79z" />
    <glyph glyph-name="cacute" unicode="&#x107;" horiz-adv-x="1024" 
d="M317 1180l291 319h254l-364 -319h-181zM543 -25q-201 0 -317.5 144.5t-116.5 402.5q0 257 118 403t324 146q133 0 228.5 -61.5t138.5 -182.5l-168 -61q-25 64 -74.5 101.5t-122.5 37.5q-131 0 -196.5 -100.5t-65.5 -282.5q0 -180 65.5 -279.5t190.5 -99.5q78 0 134 41
t79 115l166 -55q-38 -129 -138 -199t-245 -70z" />
    <glyph glyph-name="Ccircumflex" unicode="&#x108;" horiz-adv-x="1325" 
d="M946 1567l-215 184l-215 -184h-170l301 319h168l299 -319h-168zM733 -25q-126 0 -228 42.5t-169 113.5t-112.5 167.5t-65 201t-19.5 217.5q0 111 20.5 215.5t66.5 201t113.5 168t168.5 114t225 42.5q95 0 174 -21.5t134 -59.5t92.5 -81.5t62.5 -95.5l-160 -82
q-58 86 -126 130t-177 44q-89 0 -160 -35t-117 -91.5t-76.5 -133t-43 -154.5t-12.5 -161q0 -111 24 -210.5t72 -182.5t128.5 -132t184.5 -49q112 0 184.5 47t126.5 136l164 -62q-60 -131 -178.5 -210t-296.5 -79z" />
    <glyph glyph-name="ccircumflex" unicode="&#x109;" horiz-adv-x="1024" 
d="M764 1180l-215 184l-215 -184h-170l301 319h168l299 -319h-168zM543 -25q-201 0 -317.5 144.5t-116.5 402.5q0 257 118 403t324 146q133 0 228.5 -61.5t138.5 -182.5l-168 -61q-25 64 -74.5 101.5t-122.5 37.5q-131 0 -196.5 -100.5t-65.5 -282.5q0 -180 65.5 -279.5
t190.5 -99.5q78 0 134 41t79 115l166 -55q-38 -129 -138 -199t-245 -70z" />
    <glyph glyph-name="Cdotaccent" unicode="&#x10a;" horiz-adv-x="1325" 
d="M731 1614q-47 0 -80 32.5t-33 79.5t33 80t80 33t80 -33t33 -80t-33 -79.5t-80 -32.5zM733 -25q-126 0 -228 42.5t-169 113.5t-112.5 167.5t-65 201t-19.5 217.5q0 111 20.5 215.5t66.5 201t113.5 168t168.5 114t225 42.5q95 0 174 -21.5t134 -59.5t92.5 -81.5t62.5 -95.5
l-160 -82q-58 86 -126 130t-177 44q-89 0 -160 -35t-117 -91.5t-76.5 -133t-43 -154.5t-12.5 -161q0 -111 24 -210.5t72 -182.5t128.5 -132t184.5 -49q112 0 184.5 47t126.5 136l164 -62q-60 -131 -178.5 -210t-296.5 -79z" />
    <glyph glyph-name="cdotaccent" unicode="&#x10b;" horiz-adv-x="1024" 
d="M549 1227q-47 0 -80 32.5t-33 79.5t33 80t80 33t80 -33t33 -80t-33 -79.5t-80 -32.5zM543 -25q-201 0 -317.5 144.5t-116.5 402.5q0 257 118 403t324 146q133 0 228.5 -61.5t138.5 -182.5l-168 -61q-25 64 -74.5 101.5t-122.5 37.5q-131 0 -196.5 -100.5t-65.5 -282.5
q0 -180 65.5 -279.5t190.5 -99.5q78 0 134 41t79 115l166 -55q-38 -129 -138 -199t-245 -70z" />
    <glyph glyph-name="Ccaron" unicode="&#x10c;" horiz-adv-x="1325" 
d="M815 1567h-170l-299 319h170l215 -184l215 184h168zM733 -25q-126 0 -228 42.5t-169 113.5t-112.5 167.5t-65 201t-19.5 217.5q0 111 20.5 215.5t66.5 201t113.5 168t168.5 114t225 42.5q95 0 174 -21.5t134 -59.5t92.5 -81.5t62.5 -95.5l-160 -82q-58 86 -126 130
t-177 44q-89 0 -160 -35t-117 -91.5t-76.5 -133t-43 -154.5t-12.5 -161q0 -111 24 -210.5t72 -182.5t128.5 -132t184.5 -49q112 0 184.5 47t126.5 136l164 -62q-60 -131 -178.5 -210t-296.5 -79z" />
    <glyph glyph-name="ccaron" unicode="&#x10d;" horiz-adv-x="1024" 
d="M633 1180h-170l-299 319h170l215 -184l215 184h168zM543 -25q-201 0 -317.5 144.5t-116.5 402.5q0 257 118 403t324 146q133 0 228.5 -61.5t138.5 -182.5l-168 -61q-25 64 -74.5 101.5t-122.5 37.5q-131 0 -196.5 -100.5t-65.5 -282.5q0 -180 65.5 -279.5t190.5 -99.5
q78 0 134 41t79 115l166 -55q-38 -129 -138 -199t-245 -70z" />
    <glyph glyph-name="Dcaron" unicode="&#x10e;" horiz-adv-x="1396" 
d="M707 1567h-170l-299 319h170l215 -184l215 184h168zM201 1434h391q143 0 257.5 -41t189.5 -109t125 -162t71.5 -194.5t21.5 -210.5q0 -105 -19.5 -202t-68.5 -192.5t-123 -165.5t-193 -113.5t-269 -43.5h-383v1434zM606 166q103 0 185 32.5t133.5 86t86 126.5t48.5 148.5
t14 157.5q0 108 -26 204.5t-77.5 176t-139 126t-201.5 46.5h-250v-1104h227z" />
    <glyph glyph-name="dcaron" unicode="&#x10f;" horiz-adv-x="1462" 
d="M541 -25q-199 0 -315.5 147.5t-116.5 401.5q0 255 117.5 401t314.5 146q155 0 264 -98v422l178 84v-1479h-178v82q-103 -107 -264 -107zM1389 1458v-16q0 -287 -183 -467l-53 39q27 57 44 186.5t17 257.5h175zM565 141q74 0 137 37.5t103 104.5v491q-35 55 -96 94
t-144 39q-132 0 -204 -99.5t-72 -283.5q0 -167 75 -275t201 -108z" />
    <glyph glyph-name="Dcroat" unicode="&#x110;" horiz-adv-x="1396" 
d="M201 635h-140v162h140v637h391q143 0 257.5 -41t189.5 -109t125 -162t71.5 -194.5t21.5 -210.5q0 -105 -19.5 -202t-68.5 -192.5t-123 -165.5t-193 -113.5t-269 -43.5h-383v635zM606 166q103 0 185 32.5t133.5 86t86 126.5t48.5 148.5t14 157.5q0 108 -26 204.5
t-77.5 176t-139 126t-201.5 46.5h-250v-473h313v-162h-313v-469h227z" />
    <glyph glyph-name="dcroat" unicode="&#x111;" horiz-adv-x="1150" 
d="M983 1122v-1122h-178v82q-107 -107 -264 -107q-198 0 -315 142.5t-117 376.5q0 235 118 372.5t314 137.5q154 0 264 -99v217h-277v154h277v119l178 84v-203h127v-154h-127zM565 141q74 0 137 37.5t103 104.5v424q-35 55 -96 94t-144 39q-131 0 -203.5 -91.5t-72.5 -254.5
q0 -147 75.5 -250t200.5 -103z" />
    <glyph glyph-name="Emacron" unicode="&#x112;" horiz-adv-x="1226" 
d="M289 1622v152h676v-152h-676zM201 0v1434h852v-168h-674v-441h444v-168h-444v-487h719v-170h-897z" />
    <glyph glyph-name="emacron" unicode="&#x113;" horiz-adv-x="1101" 
d="M233 1235v151h676v-151h-676zM573 -25q-212 0 -338 153t-126 396q0 256 126 401.5t338 145.5q90 0 167.5 -30t137.5 -89.5t94 -156.5t34 -222q0 -46 -7 -118h-708q10 -144 89 -231t198 -87q131 0 225 94l108 -120q-62 -62 -149.5 -99t-188.5 -37zM289 606h536
q-1 85 -24 147.5t-61.5 96t-80 48.5t-86.5 15q-121 0 -199 -76.5t-85 -230.5z" />
    <glyph glyph-name="Ebreve" unicode="&#x114;" horiz-adv-x="1226" 
d="M629 1573q-184 0 -278.5 94t-94.5 240h160q0 -84 59 -134.5t154 -50.5q96 0 155.5 50.5t59.5 134.5h160q0 -146 -95 -240t-280 -94zM201 0v1434h852v-168h-674v-441h444v-168h-444v-487h719v-170h-897z" />
    <glyph glyph-name="ebreve" unicode="&#x115;" horiz-adv-x="1101" 
d="M571 1186q-184 0 -278 94t-94 240h159q0 -84 59 -134.5t154 -50.5q96 0 155.5 50.5t59.5 134.5h160q0 -146 -95 -240t-280 -94zM573 -25q-212 0 -338 153t-126 396q0 256 126 401.5t338 145.5q90 0 167.5 -30t137.5 -89.5t94 -156.5t34 -222q0 -46 -7 -118h-708
q10 -144 89 -231t198 -87q131 0 225 94l108 -120q-62 -62 -149.5 -99t-188.5 -37zM289 606h536q-1 85 -24 147.5t-61.5 96t-80 48.5t-86.5 15q-121 0 -199 -76.5t-85 -230.5z" />
    <glyph glyph-name="Edotaccent" unicode="&#x116;" horiz-adv-x="1226" 
d="M635 1614q-47 0 -80 32.5t-33 79.5t33 80t80 33t80 -33t33 -80t-33 -79.5t-80 -32.5zM201 0v1434h852v-168h-674v-441h444v-168h-444v-487h719v-170h-897z" />
    <glyph glyph-name="edotaccent" unicode="&#x117;" horiz-adv-x="1101" 
d="M573 1227q-47 0 -79.5 32.5t-32.5 79.5t32.5 80t79.5 33t80 -33t33 -80t-33 -79.5t-80 -32.5zM573 -25q-212 0 -338 153t-126 396q0 256 126 401.5t338 145.5q90 0 167.5 -30t137.5 -89.5t94 -156.5t34 -222q0 -46 -7 -118h-708q10 -144 89 -231t198 -87q131 0 225 94
l108 -120q-62 -62 -149.5 -99t-188.5 -37zM289 606h536q-1 85 -24 147.5t-61.5 96t-80 48.5t-86.5 15q-121 0 -199 -76.5t-85 -230.5z" />
    <glyph glyph-name="Eogonek" unicode="&#x118;" horiz-adv-x="1226" 
d="M819 -485q-103 0 -169 54.5t-66 151.5q0 90 59.5 163t165.5 116h-608v1434h852v-168h-674v-441h444v-168h-444v-487h719v-170h-64q-122 0 -211.5 -84.5t-89.5 -175.5q0 -55 31 -84t76 -29q59 0 98 43l92 -67q-80 -88 -211 -88z" />
    <glyph glyph-name="eogonek" unicode="&#x119;" horiz-adv-x="1101" 
d="M604 -485q-103 0 -169 54.5t-66 151.5q0 79 46 144t130 110q-200 10 -318 162t-118 387q0 256 126 401.5t338 145.5q90 0 167.5 -30t137.5 -89.5t94 -156.5t34 -222q0 -46 -7 -118h-708q10 -144 89 -231t198 -87q131 0 225 94l108 -120q-10 -10 -23 -21t-22 -18.5
t-29 -20t-26 -16.5t-32 -19.5t-29 -17.5q-40 -22 -57.5 -32.5t-51.5 -32.5t-50.5 -39t-36.5 -42t-28 -52.5t-8 -59.5q0 -55 31 -84t76 -29q59 0 98 43l92 -67q-80 -88 -211 -88zM573 913q-121 0 -199 -76.5t-85 -230.5h536q-1 85 -24 147.5t-61.5 96t-80 48.5t-86.5 15z" />
    <glyph glyph-name="Ecaron" unicode="&#x11a;" horiz-adv-x="1226" 
d="M721 1567h-170l-299 319h170l215 -184l215 184h168zM201 0v1434h852v-168h-674v-441h444v-168h-444v-487h719v-170h-897z" />
    <glyph glyph-name="ecaron" unicode="&#x11b;" horiz-adv-x="1101" 
d="M657 1180h-170l-299 319h170l215 -184l215 184h168zM573 -25q-212 0 -338 153t-126 396q0 256 126 401.5t338 145.5q90 0 167.5 -30t137.5 -89.5t94 -156.5t34 -222q0 -46 -7 -118h-708q10 -144 89 -231t198 -87q131 0 225 94l108 -120q-62 -62 -149.5 -99t-188.5 -37z
M289 606h536q-1 85 -24 147.5t-61.5 96t-80 48.5t-86.5 15q-121 0 -199 -76.5t-85 -230.5z" />
    <glyph glyph-name="Gcircumflex" unicode="&#x11c;" horiz-adv-x="1409" 
d="M963 1567l-215 184l-216 -184h-170l302 319h167l299 -319h-167zM748 -25q-126 0 -229.5 41.5t-173 111.5t-117 166t-68.5 201.5t-21 221.5q0 114 22.5 220t71.5 201t119 166t172 112.5t224 41.5q96 0 172.5 -20t130.5 -58.5t90.5 -78.5t70.5 -95l-159 -92
q-59 84 -128 130t-177 46q-92 0 -166 -35t-121.5 -91t-79 -132.5t-44.5 -154t-13 -160.5q0 -114 25 -214.5t74.5 -181.5t133 -128.5t191.5 -47.5q145 0 233 91.5t88 238.5v57h-260v164h446v-172q0 -130 -39 -235t-107 -173.5t-160.5 -104.5t-200.5 -36z" />
    <glyph glyph-name="gcircumflex" unicode="&#x11d;" 
d="M807 1180l-215 184l-215 -184h-170l301 319h168l299 -319h-168zM492 -424l-86 139q118 7 199 28.5t124 57.5t60.5 77.5t17.5 96.5v127q-91 -127 -270 -127q-88 0 -164.5 35t-136 102t-93.5 173t-34 239q0 254 119.5 400.5t314.5 146.5q164 0 264 -110v86h178v-1004
q0 -100 -23.5 -177.5t-65.5 -129.5t-105 -86.5t-135.5 -51.5t-163.5 -22zM573 141q66 0 130.5 40t103.5 108v479q-37 62 -104.5 100.5t-129.5 38.5q-139 0 -211.5 -99t-72.5 -284q0 -178 78 -280.5t206 -102.5z" />
    <glyph glyph-name="Gbreve" unicode="&#x11e;" horiz-adv-x="1409" 
d="M745 1573q-184 0 -278 94t-94 240h159q0 -84 59 -134.5t154 -50.5q96 0 156 50.5t60 134.5h159q0 -146 -95 -240t-280 -94zM748 -25q-126 0 -229.5 41.5t-173 111.5t-117 166t-68.5 201.5t-21 221.5q0 114 22.5 220t71.5 201t119 166t172 112.5t224 41.5q96 0 172.5 -20
t130.5 -58.5t90.5 -78.5t70.5 -95l-159 -92q-59 84 -128 130t-177 46q-92 0 -166 -35t-121.5 -91t-79 -132.5t-44.5 -154t-13 -160.5q0 -114 25 -214.5t74.5 -181.5t133 -128.5t191.5 -47.5q145 0 233 91.5t88 238.5v57h-260v164h446v-172q0 -130 -39 -235t-107 -173.5
t-160.5 -104.5t-200.5 -36z" />
    <glyph glyph-name="gbreve" unicode="&#x11f;" 
d="M592 1186q-184 0 -278.5 94t-94.5 240h160q0 -84 59 -134.5t154 -50.5q96 0 155.5 50.5t59.5 134.5h160q0 -146 -95 -240t-280 -94zM492 -424l-86 139q118 7 199 28.5t124 57.5t60.5 77.5t17.5 96.5v127q-91 -127 -270 -127q-88 0 -164.5 35t-136 102t-93.5 173t-34 239
q0 254 119.5 400.5t314.5 146.5q164 0 264 -110v86h178v-1004q0 -100 -23.5 -177.5t-65.5 -129.5t-105 -86.5t-135.5 -51.5t-163.5 -22zM573 141q66 0 130.5 40t103.5 108v479q-37 62 -104.5 100.5t-129.5 38.5q-139 0 -211.5 -99t-72.5 -284q0 -178 78 -280.5t206 -102.5z
" />
    <glyph glyph-name="Gdotaccent" unicode="&#x120;" horiz-adv-x="1409" 
d="M735 1614q-47 0 -79.5 32.5t-32.5 79.5t32.5 80t79.5 33t80 -33t33 -80t-33 -79.5t-80 -32.5zM748 -25q-126 0 -229.5 41.5t-173 111.5t-117 166t-68.5 201.5t-21 221.5q0 114 22.5 220t71.5 201t119 166t172 112.5t224 41.5q96 0 172.5 -20t130.5 -58.5t90.5 -78.5
t70.5 -95l-159 -92q-59 84 -128 130t-177 46q-92 0 -166 -35t-121.5 -91t-79 -132.5t-44.5 -154t-13 -160.5q0 -114 25 -214.5t74.5 -181.5t133 -128.5t191.5 -47.5q145 0 233 91.5t88 238.5v57h-260v164h446v-172q0 -130 -39 -235t-107 -173.5t-160.5 -104.5t-200.5 -36z
" />
    <glyph glyph-name="gdotaccent" unicode="&#x121;" 
d="M592 1227q-47 0 -80 32.5t-33 79.5t33 80t80 33t80 -33t33 -80t-33 -79.5t-80 -32.5zM492 -424l-86 139q118 7 199 28.5t124 57.5t60.5 77.5t17.5 96.5v127q-91 -127 -270 -127q-88 0 -164.5 35t-136 102t-93.5 173t-34 239q0 254 119.5 400.5t314.5 146.5
q164 0 264 -110v86h178v-1004q0 -100 -23.5 -177.5t-65.5 -129.5t-105 -86.5t-135.5 -51.5t-163.5 -22zM573 141q66 0 130.5 40t103.5 108v479q-37 62 -104.5 100.5t-129.5 38.5q-139 0 -211.5 -99t-72.5 -284q0 -178 78 -280.5t206 -102.5z" />
    <glyph glyph-name="Gcommaaccent" unicode="&#x122;" horiz-adv-x="1409" 
d="M748 -25q-126 0 -229.5 41.5t-173 111.5t-117 166t-68.5 201.5t-21 221.5q0 114 22.5 220t71.5 201t119 166t172 112.5t224 41.5q96 0 172.5 -20t130.5 -58.5t90.5 -78.5t70.5 -95l-159 -92q-59 84 -128 130t-177 46q-92 0 -166 -35t-121.5 -91t-79 -132.5t-44.5 -154
t-13 -160.5q0 -114 25 -214.5t74.5 -181.5t133 -128.5t191.5 -47.5q145 0 233 91.5t88 238.5v57h-260v164h446v-172q0 -130 -39 -235t-107 -173.5t-160.5 -104.5t-200.5 -36zM653 -494q73 62 92 148q-56 0 -89 34t-33 85q0 54 35 87.5t83 33.5q52 0 88.5 -36.5t36.5 -97.5
q0 -169 -159 -280z" />
    <glyph glyph-name="gcommaaccent" unicode="&#x123;" 
d="M592 1223q-52 0 -88.5 37t-36.5 98q0 168 160 280l53 -28q-26 -19 -53.5 -59t-38.5 -89q55 0 89 -33.5t34 -82.5q0 -54 -35.5 -88.5t-83.5 -34.5zM492 -424l-86 139q118 7 199 28.5t124 57.5t60.5 77.5t17.5 96.5v127q-91 -127 -270 -127q-88 0 -164.5 35t-136 102
t-93.5 173t-34 239q0 254 119.5 400.5t314.5 146.5q164 0 264 -110v86h178v-1004q0 -100 -23.5 -177.5t-65.5 -129.5t-105 -86.5t-135.5 -51.5t-163.5 -22zM573 141q66 0 130.5 40t103.5 108v479q-37 62 -104.5 100.5t-129.5 38.5q-139 0 -211.5 -99t-72.5 -284
q0 -178 78 -280.5t206 -102.5z" />
    <glyph glyph-name="Hcircumflex" unicode="&#x124;" horiz-adv-x="1433" 
d="M932 1567l-215 184l-215 -184h-170l301 319h168l299 -319h-168zM1055 0v659h-676v-659h-178v1434h178v-607h676v607h178v-1434h-178z" />
    <glyph glyph-name="hcircumflex" unicode="&#x125;" 
d="M805 1567l-215 184l-215 -184h-170l301 319h168l299 -319h-168zM170 0v1397l178 82v-541q98 133 270 133q185 0 280 -111.5t95 -357.5v-602h-178v633q0 142 -60.5 208t-164.5 66q-242 0 -242 -270v-637h-178z" />
    <glyph glyph-name="Hbar" unicode="&#x126;" horiz-adv-x="1433" 
d="M1055 0v659h-676v-659h-178v1071h-185v168h185v195h178v-195h676v195h178v-195h184v-168h-184v-1071h-178zM1055 827v244h-676v-244h676z" />
    <glyph glyph-name="hbar" unicode="&#x127;" 
d="M170 0v1122h-129v154h129v121l178 82v-203h305v-154h-305v-250q98 134 270 134q185 0 280 -111.5t95 -357.5v-537h-178v567q0 142 -61 208.5t-164 66.5q-242 0 -242 -271v-571h-178z" />
    <glyph glyph-name="Itilde" unicode="&#x128;" horiz-adv-x="587" 
d="M455 1606q-49 0 -99.5 15.5t-85.5 34.5t-77 34.5t-76 15.5q-40 0 -67 -24t-30 -68h-92q0 246 203 246q62 0 125 -26t117.5 -51.5t95.5 -25.5q40 0 66.5 25t29.5 69h92q0 -245 -202 -245zM205 0v1434h178v-1434h-178z" />
    <glyph glyph-name="itilde" unicode="&#x129;" horiz-adv-x="520" 
d="M420 1219q-49 0 -99.5 15.5t-85.5 34.5t-77 34.5t-76 15.5q-40 0 -66.5 -24t-29.5 -68h-92q0 246 202 246q49 0 99.5 -16t85.5 -35.5t77 -35.5t76 -16q40 0 66.5 25t29.5 69h93q0 -245 -203 -245zM172 0v1047h178v-1047h-178z" />
    <glyph glyph-name="Imacron" unicode="&#x12a;" horiz-adv-x="587" 
d="M-45 1622v152h676v-152h-676zM205 0v1434h178v-1434h-178z" />
    <glyph glyph-name="imacron" unicode="&#x12b;" horiz-adv-x="520" 
d="M-80 1235v151h676v-151h-676zM172 0v1047h178v-1047h-178z" />
    <glyph glyph-name="Ibreve" unicode="&#x12c;" horiz-adv-x="587" 
d="M293 1573q-184 0 -278.5 94t-94.5 240h160q0 -84 59 -134.5t154 -50.5q96 0 155.5 50.5t59.5 134.5h160q0 -146 -95 -240t-280 -94zM205 0v1434h178v-1434h-178z" />
    <glyph glyph-name="ibreve" unicode="&#x12d;" horiz-adv-x="520" 
d="M258 1186q-184 0 -278.5 94t-94.5 240h160q0 -84 59 -134.5t154 -50.5q96 0 155.5 50.5t59.5 134.5h160q0 -146 -95 -240t-280 -94zM172 0v1047h178v-1047h-178z" />
    <glyph glyph-name="Iogonek" unicode="&#x12e;" horiz-adv-x="587" 
d="M209 -485q-103 0 -169.5 54.5t-66.5 151.5q0 93 63 164.5t169 114.5v1434h178v-1434q-127 -39 -192.5 -110t-65.5 -150q0 -55 30.5 -84t75.5 -29q56 0 99 43l92 -67q-80 -88 -213 -88z" />
    <glyph glyph-name="iogonek" unicode="&#x12f;" horiz-adv-x="520" 
d="M260 1237q-46 0 -78 32.5t-32 78.5q0 47 32 80.5t78 33.5q47 0 80 -33.5t33 -80.5q0 -46 -33 -78.5t-80 -32.5zM178 -485q-103 0 -169 54.5t-66 151.5q0 93 61.5 164.5t167.5 114.5v1047h178v-1047q-126 -39 -191 -110.5t-65 -149.5q0 -55 31 -84t76 -29q55 0 98 43
l92 -67q-80 -88 -213 -88z" />
    <glyph glyph-name="Idotaccent" unicode="&#x130;" horiz-adv-x="587" 
d="M295 1614q-47 0 -80 32.5t-33 79.5t33 80t80 33t80 -33t33 -80t-33 -79.5t-80 -32.5zM205 0v1434h178v-1434h-178z" />
    <glyph glyph-name="dotlessi" unicode="&#x131;" horiz-adv-x="520" 
d="M172 0v1047h178v-1047h-178z" />
    <glyph glyph-name="IJ" unicode="&#x132;" horiz-adv-x="1705" 
d="M205 0v1434h178v-1434h-178zM1059 -25q-302 0 -414 258l148 76q43 -87 102.5 -126.5t165.5 -39.5q272 0 272 322v969h178v-963q0 -96 -19 -174t-53.5 -130.5t-77.5 -91t-95.5 -60t-103 -31t-103.5 -9.5z" />
    <glyph glyph-name="ij" unicode="&#x133;" horiz-adv-x="1071" 
d="M260 1237q-46 0 -78 32.5t-32 78.5q0 47 32 80.5t78 33.5q47 0 80 -33.5t33 -80.5q0 -46 -33 -78.5t-80 -32.5zM813 1237q-47 0 -80 32.5t-33 78.5q0 47 33 80.5t80 33.5t79 -33t32 -81q0 -46 -32 -78.5t-79 -32.5zM172 0v1047h178v-1047h-178zM539 -438l-84 135
q151 24 209.5 77.5t58.5 151.5v1121h178v-1055q0 -190 -78 -283q-99 -121 -284 -147z" />
    <glyph glyph-name="Jcircumflex" unicode="&#x134;" horiz-adv-x="1118" 
d="M1051 1567l-215 184l-215 -184h-170l301 319h168l299 -319h-168zM471 -25q-302 0 -414 258l148 76q43 -87 102.5 -126.5t165.5 -39.5q272 0 272 322v969h179v-963q0 -114 -28 -203t-73 -143t-106 -89t-121 -48t-125 -13z" />
    <glyph glyph-name="jcircumflex" unicode="&#x135;" horiz-adv-x="520" 
d="M479 1180l-215 184l-215 -184h-170l301 319h168l299 -319h-168zM-12 -438l-84 135q151 24 209.5 77.5t58.5 151.5v1121h178v-1055q0 -190 -78 -283q-99 -121 -284 -147z" />
    <glyph glyph-name="Kcommaaccent" unicode="&#x136;" horiz-adv-x="1351" 
d="M1049 0l-426 788l-244 -299v-489h-178v1434h178v-703l559 703h201l-396 -496l512 -938h-206zM590 -494q73 62 92 148q-56 0 -89.5 34t-33.5 85q0 53 35.5 87t83.5 34q52 0 88.5 -36.5t36.5 -97.5q0 -168 -160 -280z" />
    <glyph glyph-name="kcommaaccent" unicode="&#x137;" horiz-adv-x="1087" 
d="M1020 0h-195l-323 633l-154 -160v-473h-178v1395l178 84v-793l340 361h213l-274 -285zM457 -494q73 62 92 148q-56 0 -89.5 34t-33.5 85q0 53 35.5 87t83.5 34q52 0 88.5 -36.5t36.5 -97.5q0 -168 -160 -280z" />
    <glyph glyph-name="kgreenlandic" unicode="&#x138;" horiz-adv-x="1093" 
d="M831 0l-276 514l-207 -258v-256h-178v1047h178v-553l436 553h201l-311 -388l358 -659h-201z" />
    <glyph glyph-name="Lacute" unicode="&#x139;" horiz-adv-x="1144" 
d="M100 1567l291 319h254l-364 -319h-181zM201 0v1434h178v-1262h704v-172h-882z" />
    <glyph glyph-name="lacute" unicode="&#x13a;" horiz-adv-x="536" 
d="M37 1548l291 320h254l-365 -320h-180zM180 0v1395l178 84v-1479h-178z" />
    <glyph glyph-name="Lcommaaccent" unicode="&#x13b;" horiz-adv-x="1144" 
d="M201 0v1434h178v-1262h704v-172h-882zM557 -494q73 62 92 148q-56 0 -89.5 34t-33.5 85q0 53 35.5 87t83.5 34q52 0 88.5 -36.5t36.5 -97.5q0 -168 -160 -280z" />
    <glyph glyph-name="lcommaaccent" unicode="&#x13c;" horiz-adv-x="536" 
d="M180 0v1395l178 84v-1479h-178zM180 -494q73 62 92 148q-56 0 -89 34t-33 85q0 54 35 87.5t83 33.5q52 0 88.5 -36.5t36.5 -97.5q0 -168 -160 -280z" />
    <glyph glyph-name="Lcaron" unicode="&#x13d;" horiz-adv-x="1144" 
d="M375 1567h-170l-299 319h170l215 -184l215 184h168zM201 0v1434h178v-1262h704v-172h-882z" />
    <glyph glyph-name="lcaron" unicode="&#x13e;" horiz-adv-x="837" 
d="M180 0v1395l178 84v-1479h-178zM784 1458v-16q0 -288 -182 -467l-53 39q27 57 44 186.5t17 257.5h174z" />
    <glyph glyph-name="Ldot" unicode="&#x13f;" horiz-adv-x="1144" 
d="M201 0v1434h178v-1262h704v-172h-882zM862 575q-59 0 -100 42t-41 98q0 57 41 99t100 42t101.5 -42.5t42.5 -98.5t-42.5 -98t-101.5 -42z" />
    <glyph glyph-name="ldot" unicode="&#x140;" horiz-adv-x="757" 
d="M180 0v1395l178 84v-1479h-178zM618 506q-59 0 -100 41.5t-41 97.5q0 57 41 99t100 42t101.5 -42.5t42.5 -98.5t-42.5 -97.5t-101.5 -41.5z" />
    <glyph glyph-name="Lslash" unicode="&#x141;" horiz-adv-x="1144" 
d="M201 0v522l-150 -110v196l150 111v715h178v-572l244 187v-197l-244 -188v-492h704v-172h-882z" />
    <glyph glyph-name="lslash" unicode="&#x142;" horiz-adv-x="538" 
d="M180 0v528l-129 -100v160l129 100v707l178 84v-658l129 99v-160l-129 -98v-662h-178z" />
    <glyph glyph-name="Nacute" unicode="&#x143;" horiz-adv-x="1449" 
d="M535 1569l290 319h254l-364 -319h-180zM1249 0h-172l-645 1024q-49 84 -57 100q4 -62 4 -100v-1024h-178v1434h180l635 -1020q40 -70 59 -107q-4 74 -4 105v1022h178v-1434z" />
    <glyph glyph-name="nacute" unicode="&#x144;" 
d="M358 1180l291 319h254l-364 -319h-181zM815 0v633q0 142 -60.5 208t-164.5 66q-242 0 -242 -270v-637h-178v1047h178v-107q96 131 270 131q185 0 280 -111.5t95 -357.5v-602h-178z" />
    <glyph glyph-name="Ncommaaccent" unicode="&#x145;" horiz-adv-x="1449" 
d="M1249 0h-172l-645 1024q-49 84 -57 100q4 -62 4 -100v-1024h-178v1434h180l635 -1020q40 -70 59 -107q-4 74 -4 105v1022h178v-1434zM637 -494q73 62 92 148q-56 0 -89.5 34t-33.5 85q0 53 35.5 87t83.5 34q52 0 88.5 -36.5t36.5 -97.5q0 -168 -160 -280z" />
    <glyph glyph-name="ncommaaccent" unicode="&#x146;" 
d="M815 0v633q0 142 -60.5 208t-164.5 66q-242 0 -242 -270v-637h-178v1047h178v-107q96 131 270 131q185 0 280 -111.5t95 -357.5v-602h-178zM489 -494q74 63 93 148q-56 0 -89.5 34t-33.5 85q0 53 35.5 87t83.5 34q52 0 88 -36.5t36 -97.5q0 -169 -159 -280z" />
    <glyph glyph-name="Ncaron" unicode="&#x147;" horiz-adv-x="1449" 
d="M819 1567h-170l-299 319h170l215 -184l215 184h168zM1249 0h-172l-645 1024q-49 84 -57 100q4 -62 4 -100v-1024h-178v1434h180l635 -1020q40 -70 59 -107q-4 74 -4 105v1022h178v-1434z" />
    <glyph glyph-name="ncaron" unicode="&#x148;" 
d="M674 1180h-170l-299 319h170l215 -184l215 184h168zM815 0v633q0 142 -60.5 208t-164.5 66q-242 0 -242 -270v-637h-178v1047h178v-107q96 131 270 131q185 0 280 -111.5t95 -357.5v-602h-178z" />
    <glyph glyph-name="napostrophe" unicode="&#x149;" horiz-adv-x="1546" 
d="M117 952q38 34 74 95.5t40 130.5q-61 3 -102 40.5t-41 94.5q0 65 40 105t97 40q65 0 110.5 -45.5t45.5 -132.5q0 -114 -57 -208.5t-148 -149.5zM1208 0v633q0 142 -60.5 208t-164.5 66q-242 0 -242 -270v-637h-178v1047h178v-107q96 131 271 131q185 0 279.5 -111.5
t94.5 -357.5v-602h-178z" />
    <glyph glyph-name="Eng" unicode="&#x14a;" horiz-adv-x="1449" 
d="M881 -500l-84 135q148 23 208 89t60 172v122l-633 1008q-33 50 -57 98q4 -62 4 -100v-1024h-178v1434h180l635 -1020q40 -70 59 -107q-4 74 -4 105v1022h178v-1487q0 -219 -110 -326q-95 -93 -258 -121z" />
    <glyph glyph-name="eng" unicode="&#x14b;" 
d="M633 -469l-84 135q150 24 208 78t58 152v737q0 142 -60.5 208t-164.5 66q-242 0 -242 -270v-637h-178v1047h178v-107q96 131 270 131q185 0 280 -111.5t95 -357.5v-641q0 -193 -80 -287q-99 -117 -280 -143z" />
    <glyph glyph-name="Omacron" unicode="&#x14c;" horiz-adv-x="1495" 
d="M408 1622v152h675v-152h-675zM748 -25q-131 0 -236 43.5t-173.5 115.5t-114.5 169.5t-65.5 200t-19.5 213.5t19.5 213.5t65.5 200t114.5 169t173.5 115t236 43.5t237 -43.5t174 -115t114 -169t65.5 -200t19.5 -213.5t-19.5 -213.5t-65.5 -200t-114 -169.5t-174 -115.5
t-237 -43.5zM748 143q91 0 164.5 35t121 92.5t79 133.5t45 154t13.5 159q0 88 -13.5 168t-45 155.5t-79 130.5t-121 88t-164.5 33q-90 0 -163.5 -35t-121 -92t-80 -133.5t-46 -154.5t-13.5 -160q0 -111 23 -209t71 -182t132.5 -133.5t197.5 -49.5z" />
    <glyph glyph-name="omacron" unicode="&#x14d;" horiz-adv-x="1142" 
d="M231 1235v151h676v-151h-676zM571 -25q-213 0 -337.5 145t-124.5 402q0 256 125 402.5t337 146.5q213 0 338 -145t125 -402q0 -256 -125.5 -402.5t-337.5 -146.5zM571 141q132 0 207.5 101.5t75.5 281.5q0 179 -75 281t-208 102q-134 0 -208 -101t-74 -284
q0 -179 74.5 -280t207.5 -101z" />
    <glyph glyph-name="Obreve" unicode="&#x14e;" horiz-adv-x="1495" 
d="M745 1573q-184 0 -278 94t-94 240h159q0 -84 59 -134.5t154 -50.5q96 0 156 50.5t60 134.5h159q0 -146 -95 -240t-280 -94zM748 -25q-131 0 -236 43.5t-173.5 115.5t-114.5 169.5t-65.5 200t-19.5 213.5t19.5 213.5t65.5 200t114.5 169t173.5 115t236 43.5t237 -43.5
t174 -115t114 -169t65.5 -200t19.5 -213.5t-19.5 -213.5t-65.5 -200t-114 -169.5t-174 -115.5t-237 -43.5zM748 143q91 0 164.5 35t121 92.5t79 133.5t45 154t13.5 159q0 88 -13.5 168t-45 155.5t-79 130.5t-121 88t-164.5 33q-90 0 -163.5 -35t-121 -92t-80 -133.5
t-46 -154.5t-13.5 -160q0 -111 23 -209t71 -182t132.5 -133.5t197.5 -49.5z" />
    <glyph glyph-name="obreve" unicode="&#x14f;" horiz-adv-x="1142" 
d="M569 1186q-184 0 -278 94t-94 240h159q0 -84 59 -134.5t154 -50.5q96 0 155.5 50.5t59.5 134.5h160q0 -146 -95 -240t-280 -94zM571 -25q-213 0 -337.5 145t-124.5 402q0 256 125 402.5t337 146.5q213 0 338 -145t125 -402q0 -256 -125.5 -402.5t-337.5 -146.5zM571 141
q132 0 207.5 101.5t75.5 281.5q0 179 -75 281t-208 102q-134 0 -208 -101t-74 -284q0 -179 74.5 -280t207.5 -101z" />
    <glyph glyph-name="Ohungarumlaut" unicode="&#x150;" horiz-adv-x="1495" 
d="M559 1567h-180l291 319h254zM977 1567h-180l290 319h254zM748 -25q-131 0 -236 43.5t-173.5 115.5t-114.5 169.5t-65.5 200t-19.5 213.5t19.5 213.5t65.5 200t114.5 169t173.5 115t236 43.5t237 -43.5t174 -115t114 -169t65.5 -200t19.5 -213.5t-19.5 -213.5t-65.5 -200
t-114 -169.5t-174 -115.5t-237 -43.5zM748 143q91 0 164.5 35t121 92.5t79 133.5t45 154t13.5 159q0 88 -13.5 168t-45 155.5t-79 130.5t-121 88t-164.5 33q-90 0 -163.5 -35t-121 -92t-80 -133.5t-46 -154.5t-13.5 -160q0 -111 23 -209t71 -182t132.5 -133.5t197.5 -49.5z
" />
    <glyph glyph-name="ohungarumlaut" unicode="&#x151;" horiz-adv-x="1142" 
d="M381 1180h-180l291 319h253zM799 1180h-181l291 319h254zM571 -25q-213 0 -337.5 145t-124.5 402q0 256 125 402.5t337 146.5q213 0 338 -145t125 -402q0 -256 -125.5 -402.5t-337.5 -146.5zM571 141q132 0 207.5 101.5t75.5 281.5q0 179 -75 281t-208 102
q-134 0 -208 -101t-74 -284q0 -179 74.5 -280t207.5 -101z" />
    <glyph glyph-name="OE" unicode="&#x152;" horiz-adv-x="1847" 
d="M973 0v16q-96 -41 -225 -41q-131 0 -236 43.5t-173.5 115t-114.5 169t-65.5 200.5t-19.5 214q0 109 19 210.5t64.5 199.5t113.5 170.5t174 116.5t238 44q128 0 225 -41v17h743v-168h-565v-441h336v-168h-336v-487h610v-170h-788zM748 143q125 0 225 68v1014
q-92 67 -225 67q-91 0 -164.5 -35.5t-121 -92.5t-79.5 -133.5t-45.5 -154.5t-13.5 -159q0 -89 13.5 -169.5t45.5 -155.5t80 -129.5t121 -87t164 -32.5z" />
    <glyph glyph-name="oe" unicode="&#x153;" horiz-adv-x="1845" 
d="M571 -25q-214 0 -338 144.5t-124 402.5q0 257 124.5 403t337.5 146q244 0 373 -194q60 95 156 144.5t215 49.5q91 0 168.5 -30t137.5 -89.5t94 -156.5t34 -222q0 -57 -6 -118h-709q10 -144 88.5 -231t196.5 -87q133 0 227 94l109 -120q-136 -136 -340 -136
q-120 0 -213.5 53t-155.5 148q-60 -96 -155 -148.5t-220 -52.5zM1032 606h537q-1 85 -24 147.5t-62 96t-80.5 48.5t-87.5 15q-120 0 -198 -76.5t-85 -230.5zM571 141q132 0 207.5 101.5t75.5 281.5q0 179 -75 281t-208 102q-134 0 -208 -101t-74 -284q0 -179 74.5 -280
t207.5 -101z" />
    <glyph glyph-name="Racute" unicode="&#x154;" horiz-adv-x="1361" 
d="M432 1567l291 319h254l-365 -319h-180zM201 0v1434h565q124 0 215 -34.5t141 -94t73.5 -129t23.5 -150.5q0 -66 -19 -127.5t-57.5 -117t-104.5 -96t-153 -58.5l307 -627h-201l-295 614h-317v-614h-178zM379 780h391q72 0 126 20.5t84 56t44 77t14 88.5q0 44 -13 84
t-41.5 78t-83.5 61t-130 23h-391v-488z" />
    <glyph glyph-name="racute" unicode="&#x155;" horiz-adv-x="796" 
d="M250 1180l291 319h254l-365 -319h-180zM170 0v1047h178v-138q73 162 248 162q99 0 162 -53l-27 -168q-65 45 -149 45q-41 0 -79.5 -15t-74.5 -47.5t-58 -95t-22 -147.5v-590h-178z" />
    <glyph glyph-name="Rcommaaccent" unicode="&#x156;" horiz-adv-x="1361" 
d="M201 0v1434h565q124 0 215 -34.5t141 -94t73.5 -129t23.5 -150.5q0 -66 -19 -127.5t-57.5 -117t-104.5 -96t-153 -58.5l307 -627h-201l-295 614h-317v-614h-178zM379 780h391q72 0 126 20.5t84 56t44 77t14 88.5q0 44 -13 84t-41.5 78t-83.5 61t-130 23h-391v-488z
M596 -494q73 62 92 148q-56 0 -89.5 34t-33.5 85q0 53 35.5 87t83.5 34q52 0 88.5 -36.5t36.5 -97.5q0 -168 -160 -280z" />
    <glyph glyph-name="rcommaaccent" unicode="&#x157;" horiz-adv-x="796" 
d="M170 0v1047h178v-138q73 162 248 162q99 0 162 -53l-27 -168q-65 45 -149 45q-41 0 -79.5 -15t-74.5 -47.5t-58 -95t-22 -147.5v-590h-178zM172 -535q73 62 92 148q-56 0 -89.5 34t-33.5 85q0 53 35.5 87t83.5 34q52 0 88.5 -36.5t36.5 -97.5q0 -168 -160 -280z" />
    <glyph glyph-name="Rcaron" unicode="&#x158;" horiz-adv-x="1361" 
d="M748 1567h-170l-299 319h170l215 -184l215 184h168zM201 0v1434h565q124 0 215 -34.5t141 -94t73.5 -129t23.5 -150.5q0 -66 -19 -127.5t-57.5 -117t-104.5 -96t-153 -58.5l307 -627h-201l-295 614h-317v-614h-178zM379 780h391q72 0 126 20.5t84 56t44 77t14 88.5
q0 44 -13 84t-41.5 78t-83.5 61t-130 23h-391v-488z" />
    <glyph glyph-name="rcaron" unicode="&#x159;" horiz-adv-x="796" 
d="M565 1180h-170l-299 319h170l215 -184l215 184h168zM170 0v1047h178v-138q73 162 248 162q99 0 162 -53l-27 -168q-65 45 -149 45q-41 0 -79.5 -15t-74.5 -47.5t-58 -95t-22 -147.5v-590h-178z" />
    <glyph glyph-name="Sacute" unicode="&#x15a;" horiz-adv-x="1226" 
d="M412 1567l290 319h254l-364 -319h-180zM618 -25q-183 0 -316.5 89t-182.5 231l168 61q44 -98 132 -155.5t204 -57.5q131 0 206.5 62.5t75.5 179.5q0 48 -18 89.5t-46.5 71t-73 57t-86.5 46t-99 39.5q-52 19 -87.5 33.5t-83 37.5t-80 45t-67 54.5t-55 67t-34 80.5
t-13.5 98q0 151 118.5 252.5t321.5 101.5q165 0 276 -71t144 -185l-164 -55q-28 64 -97.5 104.5t-170.5 40.5q-114 0 -179 -50t-65 -138q0 -39 18 -72t43 -56.5t70.5 -48t82 -39.5t95.5 -36q51 -19 88 -34.5t85.5 -40.5t82.5 -50t70.5 -61t58.5 -75t36 -91t14 -111
q0 -193 -132 -303.5t-340 -110.5z" />
    <glyph glyph-name="sacute" unicode="&#x15b;" horiz-adv-x="960" 
d="M270 1180l291 319h254l-364 -319h-181zM479 -25q-113 0 -214.5 48.5t-164.5 128.5l127 108q116 -125 256 -125q88 0 141.5 33.5t53.5 99.5q0 30 -14 56.5t-33.5 44.5t-55.5 37.5t-63.5 31t-73.5 29.5q-161 60 -242 134t-81 194q0 126 99 201t253 75q219 0 352 -158
l-123 -102q-96 100 -231 100q-80 0 -127 -30.5t-47 -85.5q0 -25 12.5 -46.5t28 -36.5t48.5 -32.5t55 -27t67 -27.5q7 -3 10 -4q63 -23 109 -43.5t92 -51t74.5 -65t46.5 -83t18 -106.5q0 -140 -100.5 -218.5t-272.5 -78.5z" />
    <glyph glyph-name="Scircumflex" unicode="&#x15c;" horiz-adv-x="1226" 
d="M819 1567l-215 184l-215 -184h-170l301 319h168l299 -319h-168zM618 -25q-183 0 -316.5 89t-182.5 231l168 61q44 -98 132 -155.5t204 -57.5q131 0 206.5 62.5t75.5 179.5q0 48 -18 89.5t-46.5 71t-73 57t-86.5 46t-99 39.5q-52 19 -87.5 33.5t-83 37.5t-80 45t-67 54.5
t-55 67t-34 80.5t-13.5 98q0 151 118.5 252.5t321.5 101.5q165 0 276 -71t144 -185l-164 -55q-28 64 -97.5 104.5t-170.5 40.5q-114 0 -179 -50t-65 -138q0 -39 18 -72t43 -56.5t70.5 -48t82 -39.5t95.5 -36q51 -19 88 -34.5t85.5 -40.5t82.5 -50t70.5 -61t58.5 -75t36 -91
t14 -111q0 -193 -132 -303.5t-340 -110.5z" />
    <glyph glyph-name="scircumflex" unicode="&#x15d;" horiz-adv-x="960" 
d="M682 1180l-215 184l-215 -184h-170l301 319h168l299 -319h-168zM479 -25q-113 0 -214.5 48.5t-164.5 128.5l127 108q116 -125 256 -125q88 0 141.5 33.5t53.5 99.5q0 30 -14 56.5t-33.5 44.5t-55.5 37.5t-63.5 31t-73.5 29.5q-161 60 -242 134t-81 194q0 126 99 201
t253 75q219 0 352 -158l-123 -102q-96 100 -231 100q-80 0 -127 -30.5t-47 -85.5q0 -25 12.5 -46.5t28 -36.5t48.5 -32.5t55 -27t67 -27.5q7 -3 10 -4q63 -23 109 -43.5t92 -51t74.5 -65t46.5 -83t18 -106.5q0 -140 -100.5 -218.5t-272.5 -78.5z" />
    <glyph glyph-name="Scedilla" unicode="&#x15e;" horiz-adv-x="1226" 
d="M608 -485q-122 0 -192 67l98 70q22 -27 78 -27q44 0 74 28t30 71q0 38 -34.5 65t-81.5 27q-48 0 -78 -15l-33 41l106 135q-167 10 -289 97.5t-167 220.5l168 61q44 -97 132 -154t204 -57q131 0 205.5 61.5t74.5 178.5q0 59 -25 107t-74 84t-99.5 61t-122.5 51
q-53 19 -87.5 33t-83 37.5t-80 45t-66.5 54t-55.5 67t-34 80.5t-13.5 99q0 151 118.5 252.5t321.5 101.5q165 0 276 -71t144 -185l-164 -55q-28 63 -97.5 103t-170.5 40q-114 0 -178 -49t-64 -137q0 -38 17.5 -71t43 -57t69.5 -48t82 -39.5t95 -36.5q52 -20 88 -35t85.5 -40
t83 -49.5t70 -60.5t58 -75t36 -91.5t14.5 -111.5q0 -178 -111 -286t-295 -126l-51 -86q112 0 165.5 -49t53.5 -121q0 -91 -68.5 -148.5t-175.5 -57.5z" />
    <glyph glyph-name="scedilla" unicode="&#x15f;" horiz-adv-x="960" 
d="M444 -485q-122 0 -192 67l98 70q22 -27 78 -27q44 0 74 28t30 71q0 38 -34.5 65t-81.5 27q-48 0 -78 -15l-33 41l109 138q-95 14 -178.5 59.5t-135.5 112.5l127 108q116 -125 256 -125q88 0 141.5 33.5t53.5 99.5q0 18 -4.5 34.5t-15.5 31.5t-21 26.5t-31 25t-33.5 21
t-40.5 20t-41 18t-46 18.5t-44 18q-37 16 -62.5 28t-58 30t-54.5 35.5t-44.5 41t-36 49.5t-22 59t-8.5 71q0 126 99 201t253 75q219 0 352 -158l-123 -102q-96 100 -231 100q-80 0 -127 -30.5t-47 -85.5q0 -41 37.5 -76t73 -51.5t117.5 -48.5q7 -3 12 -5l10 -4
q56 -22 91.5 -38.5t81.5 -46.5t73 -62t46 -81.5t19 -109.5q0 -131 -89.5 -209t-242.5 -86l-51 -86q112 0 165.5 -49t53.5 -121q0 -91 -68.5 -148.5t-175.5 -57.5z" />
    <glyph glyph-name="Scaron" unicode="&#x160;" horiz-adv-x="1226" 
d="M688 1567h-170l-299 319h170l215 -184l215 184h168zM618 -25q-183 0 -316.5 89t-182.5 231l168 61q44 -98 132 -155.5t204 -57.5q131 0 206.5 62.5t75.5 179.5q0 48 -18 89.5t-46.5 71t-73 57t-86.5 46t-99 39.5q-52 19 -87.5 33.5t-83 37.5t-80 45t-67 54.5t-55 67
t-34 80.5t-13.5 98q0 151 118.5 252.5t321.5 101.5q165 0 276 -71t144 -185l-164 -55q-28 64 -97.5 104.5t-170.5 40.5q-114 0 -179 -50t-65 -138q0 -39 18 -72t43 -56.5t70.5 -48t82 -39.5t95.5 -36q51 -19 88 -34.5t85.5 -40.5t82.5 -50t70.5 -61t58.5 -75t36 -91t14 -111
q0 -193 -132 -303.5t-340 -110.5z" />
    <glyph glyph-name="scaron" unicode="&#x161;" horiz-adv-x="960" 
d="M551 1180h-170l-299 319h170l215 -184l215 184h168zM479 -25q-113 0 -214.5 48.5t-164.5 128.5l127 108q116 -125 256 -125q88 0 141.5 33.5t53.5 99.5q0 30 -14 56.5t-33.5 44.5t-55.5 37.5t-63.5 31t-73.5 29.5q-161 60 -242 134t-81 194q0 126 99 201t253 75
q219 0 352 -158l-123 -102q-96 100 -231 100q-80 0 -127 -30.5t-47 -85.5q0 -25 12.5 -46.5t28 -36.5t48.5 -32.5t55 -27t67 -27.5q7 -3 10 -4q63 -23 109 -43.5t92 -51t74.5 -65t46.5 -83t18 -106.5q0 -140 -100.5 -218.5t-272.5 -78.5z" />
    <glyph glyph-name="uni0162" unicode="&#x162;" horiz-adv-x="1193" 
d="M557 -485q-122 0 -192 67l100 70q22 -27 76 -27q45 0 75.5 28.5t30.5 70.5q0 38 -35.5 65t-83.5 27q-47 0 -77 -15l-33 41l127 158h-37v1266h-399v168h976v-168h-399v-1266h-37l-67 -109q112 0 166.5 -49t54.5 -121q0 -91 -68.5 -148.5t-177.5 -57.5z" />
    <glyph glyph-name="uni0163" unicode="&#x163;" horiz-adv-x="765" 
d="M377 -485q-123 0 -193 67l101 70q22 -27 75 -27q45 0 76 28.5t31 70.5q0 38 -35.5 65t-83.5 27t-78 -15l-32 41l118 150q-125 50 -125 233v666h-170v156h170v346l179 86v-432h258v-156h-258v-606q0 -69 22.5 -106.5t85.5 -37.5q69 0 156 56l-21 -174q-80 -43 -176 -48
h-24l-52 -84q112 0 167 -49t55 -121q0 -91 -68.5 -148.5t-177.5 -57.5z" />
    <glyph glyph-name="Tcaron" unicode="&#x164;" horiz-adv-x="1193" 
d="M682 1567h-170l-299 319h170l215 -184l215 184h168zM686 1264v-1264h-178v1264h-399v170h976v-170h-399z" />
    <glyph glyph-name="tcaron" unicode="&#x165;" horiz-adv-x="854" 
d="M815 1720v-16q0 -288 -182 -467l-53 39q27 57 44 186.5t17 257.5h174zM453 -25q-114 0 -168 67t-54 183v666h-170v156h170v346l179 86v-432h258v-156h-258v-606q0 -69 22.5 -106.5t85.5 -37.5q69 0 156 56l-21 -174q-91 -48 -200 -48z" />
    <glyph glyph-name="Tbar" unicode="&#x166;" horiz-adv-x="1183" 
d="M1075 1264h-395v-529h254v-170h-254v-565h-178v565h-256v170h256v529h-393v170h966v-170z" />
    <glyph glyph-name="tbar" unicode="&#x167;" horiz-adv-x="806" 
d="M477 -25q-113 0 -166 66.5t-53 183.5v240h-170v156h170v270h-170v156h170v346l178 86v-432h256v-156h-256v-270h256v-156h-256v-180q0 -69 22.5 -106.5t84.5 -37.5q66 0 157 56l-22 -174q-91 -48 -201 -48z" />
    <glyph glyph-name="Utilde" unicode="&#x168;" horiz-adv-x="1411" 
d="M866 1606q-49 0 -99.5 15.5t-85.5 34.5t-77 34.5t-76 15.5q-40 0 -66.5 -24t-29.5 -68h-92q0 246 203 246q62 0 125 -26t117.5 -51.5t95.5 -25.5q40 0 66.5 25t29.5 69h92q0 -245 -203 -245zM705 -25q-117 0 -208.5 30.5t-161.5 95.5t-107.5 176t-37.5 262v895h179v-895
q0 -92 17.5 -162t47.5 -114t73.5 -71.5t91.5 -38t106 -10.5t106 10.5t92 38t74 71.5t47.5 114t17.5 162v895h179v-895q0 -564 -516 -564z" />
    <glyph glyph-name="utilde" unicode="&#x169;" 
d="M731 1219q-49 0 -99.5 15.5t-85.5 34.5t-77 34.5t-76 15.5q-40 0 -66.5 -24t-29.5 -68h-92q0 246 203 246q49 0 99.5 -16t85.5 -35.5t76.5 -35.5t75.5 -16q40 0 67 25t30 69h92q0 -245 -203 -245zM805 0v100q-52 -66 -115.5 -95.5t-148.5 -29.5q-190 0 -285.5 110.5
t-95.5 356.5v605h178v-631q0 -142 61 -208.5t164 -66.5q242 0 242 271v635h178v-1047h-178z" />
    <glyph glyph-name="Umacron" unicode="&#x16a;" horiz-adv-x="1411" 
d="M367 1622v152h675v-152h-675zM705 -25q-117 0 -208.5 30.5t-161.5 95.5t-107.5 176t-37.5 262v895h179v-895q0 -92 17.5 -162t47.5 -114t73.5 -71.5t91.5 -38t106 -10.5t106 10.5t92 38t74 71.5t47.5 114t17.5 162v895h179v-895q0 -564 -516 -564z" />
    <glyph glyph-name="umacron" unicode="&#x16b;" 
d="M231 1235v151h676v-151h-676zM805 0v100q-52 -66 -115.5 -95.5t-148.5 -29.5q-190 0 -285.5 110.5t-95.5 356.5v605h178v-631q0 -142 61 -208.5t164 -66.5q242 0 242 271v635h178v-1047h-178z" />
    <glyph glyph-name="Ubreve" unicode="&#x16c;" horiz-adv-x="1411" 
d="M705 1573q-184 0 -278.5 94t-94.5 240h160q0 -84 59 -134.5t154 -50.5q96 0 155.5 50.5t59.5 134.5h159q0 -146 -94.5 -240t-279.5 -94zM705 -25q-117 0 -208.5 30.5t-161.5 95.5t-107.5 176t-37.5 262v895h179v-895q0 -92 17.5 -162t47.5 -114t73.5 -71.5t91.5 -38
t106 -10.5t106 10.5t92 38t74 71.5t47.5 114t17.5 162v895h179v-895q0 -564 -516 -564z" />
    <glyph glyph-name="ubreve" unicode="&#x16d;" 
d="M569 1186q-184 0 -278 94t-94 240h159q0 -84 59 -134.5t154 -50.5q96 0 155.5 50.5t59.5 134.5h160q0 -146 -95 -240t-280 -94zM805 0v100q-52 -66 -115.5 -95.5t-148.5 -29.5q-190 0 -285.5 110.5t-95.5 356.5v605h178v-631q0 -142 61 -208.5t164 -66.5q242 0 242 271
v635h178v-1047h-178z" />
    <glyph glyph-name="Uring" unicode="&#x16e;" horiz-adv-x="1411" 
d="M707 1485q-100 0 -172 71.5t-72 169.5q0 99 72 168.5t172 69.5q99 0 171 -69.5t72 -168.5q0 -98 -72.5 -169.5t-170.5 -71.5zM707 1616q43 0 72.5 31.5t29.5 78.5q0 49 -29 79t-73 30t-74.5 -30.5t-30.5 -78.5q0 -47 31 -78.5t74 -31.5zM705 -25q-117 0 -208.5 30.5
t-161.5 95.5t-107.5 176t-37.5 262v895h179v-895q0 -92 17.5 -162t47.5 -114t73.5 -71.5t91.5 -38t106 -10.5t106 10.5t92 38t74 71.5t47.5 114t17.5 162v895h179v-895q0 -564 -516 -564z" />
    <glyph glyph-name="uring" unicode="&#x16f;" 
d="M569 1098q-100 0 -171.5 71.5t-71.5 169.5q0 99 71.5 168.5t171.5 69.5q99 0 171.5 -69.5t72.5 -168.5q0 -98 -72.5 -169.5t-171.5 -71.5zM569 1229q43 0 73 31.5t30 78.5q0 49 -29.5 79t-73.5 30t-74 -30.5t-30 -78.5q0 -47 30.5 -78.5t73.5 -31.5zM805 0v100
q-52 -66 -115.5 -95.5t-148.5 -29.5q-190 0 -285.5 110.5t-95.5 356.5v605h178v-631q0 -142 61 -208.5t164 -66.5q242 0 242 271v635h178v-1047h-178z" />
    <glyph glyph-name="Uhungarumlaut" unicode="&#x170;" horiz-adv-x="1411" 
d="M526 1567h-180l291 319h254zM944 1567h-180l291 319h254zM705 -25q-117 0 -208.5 30.5t-161.5 95.5t-107.5 176t-37.5 262v895h179v-895q0 -92 17.5 -162t47.5 -114t73.5 -71.5t91.5 -38t106 -10.5t106 10.5t92 38t74 71.5t47.5 114t17.5 162v895h179v-895
q0 -564 -516 -564z" />
    <glyph glyph-name="uhungarumlaut" unicode="&#x171;" 
d="M383 1180h-180l291 319h254zM801 1180h-180l290 319h254zM805 0v100q-52 -66 -115.5 -95.5t-148.5 -29.5q-190 0 -285.5 110.5t-95.5 356.5v605h178v-631q0 -142 61 -208.5t164 -66.5q242 0 242 271v635h178v-1047h-178z" />
    <glyph glyph-name="Uogonek" unicode="&#x172;" horiz-adv-x="1411" 
d="M760 -485q-103 0 -169.5 54.5t-66.5 151.5q0 78 46.5 143.5t129.5 110.5h-16q-113 3 -201.5 35.5t-155 98.5t-102 174.5t-35.5 255.5v895h179v-895q0 -113 25.5 -192.5t73 -123t106 -62t135.5 -18.5q71 0 127 18t104.5 60.5t75 123t26.5 194.5v895h179v-895
q0 -116 -20.5 -206t-60.5 -152t-89.5 -102t-116.5 -69q-132 -59 -196 -123t-64 -147q0 -55 30.5 -84t75.5 -29q60 0 99 43l92 -67q-80 -88 -211 -88z" />
    <glyph glyph-name="uogonek" unicode="&#x173;" 
d="M809 -485q-103 0 -169.5 54.5t-66.5 151.5q0 92 62 163.5t170 115.5v100q-52 -66 -115.5 -95.5t-148.5 -29.5q-190 0 -285.5 110.5t-95.5 356.5v605h178v-631q0 -142 61 -208.5t164 -66.5q242 0 242 271v635h178v-1047q-132 -39 -196 -109.5t-64 -150.5q0 -55 30.5 -84
t75.5 -29q60 0 99 43l92 -67q-80 -88 -211 -88z" />
    <glyph glyph-name="Wcircumflex" unicode="&#x174;" horiz-adv-x="1720" 
d="M1075 1567l-215 184l-215 -184h-170l301 319h168l299 -319h-168zM395 0l-293 1434h187l176 -934q21 -108 27 -154q2 9 38 152l254 936h142l256 -934q24 -89 32 -140q6 38 27 142l195 932h182l-311 -1434h-142l-276 979q-34 125 -37 141q-8 -43 -35 -141l-276 -979h-146z
" />
    <glyph glyph-name="wcircumflex" unicode="&#x175;" horiz-adv-x="1464" 
d="M948 1180l-215 184l-215 -184h-170l301 319h168l299 -319h-168zM346 0l-268 1047h176l160 -703q2 -11 10.5 -51t11.5 -60q3 17 27 111l196 703h148l197 -703l28 -115q3 19 11 57t12 58l157 703h177l-269 -1047h-159l-191 621q-34 115 -39 137q-15 -63 -37 -137l-188 -621
h-160z" />
    <glyph glyph-name="Ycircumflex" unicode="&#x176;" horiz-adv-x="1312" 
d="M872 1567l-215 184l-215 -184h-170l301 319h168l299 -319h-168zM569 0v563l-487 871h201l374 -697l379 697h195l-483 -867v-567h-179z" />
    <glyph glyph-name="ycircumflex" unicode="&#x177;" horiz-adv-x="1085" 
d="M754 1180l-215 184l-215 -184h-170l301 319h168l299 -319h-168zM295 -397l160 424l-387 1020h178l260 -713q17 -45 33 -101q19 67 32 101l265 713h182l-543 -1444h-180z" />
    <glyph glyph-name="Ydieresis" unicode="&#x178;" horiz-adv-x="1312" 
d="M479 1614q-46 0 -79 32.5t-33 79.5t33 80t79 33q47 0 80 -33t33 -80t-33 -79.5t-80 -32.5zM834 1614q-46 0 -79.5 32.5t-33.5 79.5t33.5 80t79.5 33q47 0 79.5 -33t32.5 -80t-32.5 -79.5t-79.5 -32.5zM569 0v563l-487 871h201l374 -697l379 697h195l-483 -867v-567h-179z
" />
    <glyph glyph-name="Zacute" unicode="&#x179;" horiz-adv-x="1331" 
d="M489 1567l291 319h254l-364 -319h-181zM129 0v137l832 1127h-785v170h1016v-138l-827 -1126h827v-170h-1063z" />
    <glyph glyph-name="zacute" unicode="&#x17a;" horiz-adv-x="1034" 
d="M330 1180l291 319h253l-364 -319h-180zM129 0v131l545 758h-504v158h727v-127l-547 -760h545v-160h-766z" />
    <glyph glyph-name="Zdotaccent" unicode="&#x17b;" horiz-adv-x="1331" 
d="M684 1614q-47 0 -80 32.5t-33 79.5t33 80t80 33t80 -33t33 -80t-33 -79.5t-80 -32.5zM129 0v137l832 1127h-785v170h1016v-138l-827 -1126h827v-170h-1063z" />
    <glyph glyph-name="zdotaccent" unicode="&#x17c;" horiz-adv-x="1034" 
d="M528 1227q-47 0 -79.5 32.5t-32.5 79.5t32.5 80t79.5 33t80 -33t33 -80t-33 -79.5t-80 -32.5zM129 0v131l545 758h-504v158h727v-127l-547 -760h545v-160h-766z" />
    <glyph glyph-name="Zcaron" unicode="&#x17d;" horiz-adv-x="1331" 
d="M795 1567h-170l-299 319h170l215 -184l215 184h168zM129 0v137l832 1127h-785v170h1016v-138l-827 -1126h827v-170h-1063z" />
    <glyph glyph-name="zcaron" unicode="&#x17e;" horiz-adv-x="1034" 
d="M612 1180h-170l-299 319h170l215 -184l215 184h168zM129 0v131l545 758h-504v158h727v-127l-547 -760h545v-160h-766z" />
    <glyph glyph-name="longs" unicode="&#x17f;" horiz-adv-x="626" 
d="M180 0v1221q0 126 65 181.5t163 55.5q104 0 194 -49v-149q-78 38 -149 38q-57 0 -76 -27.5t-19 -80.5v-1190h-178z" />
    <glyph glyph-name="florin" unicode="&#x192;" horiz-adv-x="751" 
d="M90 -469l-88 141q149 24 209.5 82t60.5 158v979h-161v156h161v174q0 65 19.5 113t53 74t72.5 38t85 12q106 0 192 -49v-147q-92 36 -149 36q-56 0 -75 -28.5t-19 -79.5v-143h243v-156h-243v-940q0 -193 -93.5 -291.5t-267.5 -128.5z" />
    <glyph glyph-name="uni01CD" unicode="&#x1cd;" horiz-adv-x="1390" 
d="M780 1567h-170l-299 319h170l215 -184l215 184h168zM1104 0l-123 350h-569l-121 -350h-187l508 1434h166l508 -1434h-182zM926 508l-185 530q-37 107 -45 146q-18 -68 -45 -146l-186 -530h461z" />
    <glyph glyph-name="uni01CE" unicode="&#x1ce;" horiz-adv-x="1077" 
d="M649 1180h-170l-299 319h170l215 -184l215 184h168zM770 0v96q-128 -121 -297 -121q-165 0 -264.5 91.5t-99.5 261.5q0 71 21.5 129t58 97.5t86.5 67t106.5 40t118.5 12.5q151 0 270 -68v74q0 130 -58.5 182.5t-168.5 52.5q-158 0 -305 -104l-52 150q71 47 170 78.5
t209 31.5q373 0 373 -377v-694h-168zM500 133q81 0 150.5 39t119.5 98v181q-49 30 -116 49.5t-130 19.5q-108 0 -178 -48.5t-70 -143.5q0 -89 59 -142t165 -53z" />
    <glyph glyph-name="uni01CF" unicode="&#x1cf;" horiz-adv-x="587" 
d="M379 1567h-170l-299 319h170l215 -184l215 184h168zM205 0v1434h178v-1434h-178z" />
    <glyph glyph-name="uni01D0" unicode="&#x1d0;" horiz-adv-x="520" 
d="M344 1180h-170l-299 319h170l215 -184l215 184h168zM172 0v1047h178v-1047h-178z" />
    <glyph glyph-name="uni01D1" unicode="&#x1d1;" horiz-adv-x="1495" 
d="M831 1567h-169l-300 319h170l216 -184l215 184h167zM748 -25q-131 0 -236 43.5t-173.5 115.5t-114.5 169.5t-65.5 200t-19.5 213.5t19.5 213.5t65.5 200t114.5 169t173.5 115t236 43.5t237 -43.5t174 -115t114 -169t65.5 -200t19.5 -213.5t-19.5 -213.5t-65.5 -200
t-114 -169.5t-174 -115.5t-237 -43.5zM748 143q91 0 164.5 35t121 92.5t79 133.5t45 154t13.5 159q0 88 -13.5 168t-45 155.5t-79 130.5t-121 88t-164.5 33q-90 0 -163.5 -35t-121 -92t-80 -133.5t-46 -154.5t-13.5 -160q0 -111 23 -209t71 -182t132.5 -133.5t197.5 -49.5z
" />
    <glyph glyph-name="uni01D2" unicode="&#x1d2;" horiz-adv-x="1142" 
d="M655 1180h-170l-299 319h170l215 -184l215 184h168zM571 -25q-213 0 -337.5 145t-124.5 402q0 256 125 402.5t337 146.5q213 0 338 -145t125 -402q0 -256 -125.5 -402.5t-337.5 -146.5zM571 141q132 0 207.5 101.5t75.5 281.5q0 179 -75 281t-208 102q-134 0 -208 -101
t-74 -284q0 -179 74.5 -280t207.5 -101z" />
    <glyph glyph-name="uni01D3" unicode="&#x1d3;" horiz-adv-x="1411" 
d="M791 1567h-170l-299 319h170l215 -184l215 184h168zM705 -25q-117 0 -208.5 30.5t-161.5 95.5t-107.5 176t-37.5 262v895h179v-895q0 -92 17.5 -162t47.5 -114t73.5 -71.5t91.5 -38t106 -10.5t106 10.5t92 38t74 71.5t47.5 114t17.5 162v895h179v-895q0 -564 -516 -564z
" />
    <glyph glyph-name="uni01D4" unicode="&#x1d4;" 
d="M649 1180h-170l-299 319h170l215 -184l215 184h168zM805 0v100q-52 -66 -115.5 -95.5t-148.5 -29.5q-190 0 -285.5 110.5t-95.5 356.5v605h178v-631q0 -142 61 -208.5t164 -66.5q242 0 242 271v635h178v-1047h-178z" />
    <glyph glyph-name="AEacute" unicode="&#x1fc;" horiz-adv-x="1748" 
d="M797 1567l290 319h254l-364 -319h-180zM-29 0l834 1434h784v-168h-559v-441h350v-168h-350v-487h604v-170h-782v350h-485l-199 -350h-197zM457 510h395v707q-24 -54 -74 -140z" />
    <glyph glyph-name="aeacute" unicode="&#x1fd;" horiz-adv-x="1755" 
d="M694 1180l291 319h254l-365 -319h-180zM473 -25q-165 0 -264.5 91.5t-99.5 261.5q0 87 32 155t87 108.5t124 61.5t148 21q151 0 270 -68v74q0 125 -56 180t-171 55q-158 0 -305 -104l-52 150q71 47 170 78.5t209 31.5q231 0 316 -156q126 156 344 156q194 0 314 -128.5
t120 -369.5q0 -57 -6 -118h-709q12 -148 91 -233t194 -85q133 0 227 94l109 -120q-136 -136 -340 -136q-120 0 -214.5 53t-154.5 142q-79 -99 -183 -147t-200 -48zM942 610h537q-1 84 -24.5 146t-62 94.5t-80 47.5t-85.5 15q-121 0 -198.5 -76t-86.5 -227zM500 133
q86 0 161 45.5t123 114.5q-11 69 -14 158q-118 69 -246 69q-108 0 -178 -48.5t-70 -143.5q0 -89 59 -142t165 -53z" />
    <glyph glyph-name="Oslashacute" unicode="&#x1fe;" horiz-adv-x="1484" 
d="M512 1567l291 319h254l-365 -319h-180zM152 -25l139 207q-81 102 -119.5 242.5t-38.5 292.5q0 111 19.5 213.5t65.5 200t114 169t174 115t237 43.5q196 0 340 -100l68 100h184l-141 -207q81 -102 119.5 -242t38.5 -292q0 -111 -19.5 -213.5t-65.5 -200t-114.5 -169.5
t-173.5 -115.5t-236 -43.5q-198 0 -342 103l-69 -103h-180zM401 346l584 864q-101 82 -242 82q-91 0 -164.5 -35t-121 -92t-79.5 -133.5t-45.5 -154.5t-13.5 -160q0 -226 82 -371zM743 143q90 0 163.5 35t121 92.5t80 133.5t46 154t13.5 159q0 222 -84 370l-583 -864
q100 -80 243 -80z" />
    <glyph glyph-name="oslashacute" unicode="&#x1ff;" horiz-adv-x="1142" 
d="M885 1499l-365 -319h-180l291 319h254zM1034 1071l-112 -162q112 -143 112 -385q0 -256 -125.5 -402.5t-337.5 -146.5q-143 0 -252 70l-49 -70h-161l112 162q-112 143 -112 385q0 256 125 402.5t337 146.5q146 0 250 -67l47 67h166zM289 522q0 -138 43 -225l391 565
q-64 45 -152 45q-134 0 -208 -101t-74 -284zM854 524q0 138 -43 228l-393 -564q65 -47 153 -47q132 0 207.5 101.5t75.5 281.5z" />
    <glyph glyph-name="Scommaaccent" unicode="&#x218;" horiz-adv-x="1226" 
d="M618 -25q-183 0 -316.5 89t-182.5 231l168 61q44 -98 132 -155.5t204 -57.5q131 0 206.5 62.5t75.5 179.5q0 48 -18 89.5t-46.5 71t-73 57t-86.5 46t-99 39.5q-52 19 -87.5 33.5t-83 37.5t-80 45t-67 54.5t-55 67t-34 80.5t-13.5 98q0 151 118.5 252.5t321.5 101.5
q165 0 276 -71t144 -185l-164 -55q-28 64 -97.5 104.5t-170.5 40.5q-114 0 -179 -50t-65 -138q0 -39 18 -72t43 -56.5t70.5 -48t82 -39.5t95.5 -36q51 -19 88 -34.5t85.5 -40.5t82.5 -50t70.5 -61t58.5 -75t36 -91t14 -111q0 -193 -132 -303.5t-340 -110.5zM526 -494
q73 62 92 148q-56 0 -89 34t-33 85q0 54 35 87.5t83 33.5q52 0 88.5 -36.5t36.5 -97.5q0 -169 -159 -280z" />
    <glyph glyph-name="scommaaccent" unicode="&#x219;" horiz-adv-x="960" 
d="M479 -25q-113 0 -214.5 48.5t-164.5 128.5l127 108q116 -125 256 -125q88 0 141.5 33.5t53.5 99.5q0 30 -14 56.5t-33.5 44.5t-55.5 37.5t-63.5 31t-73.5 29.5q-161 60 -242 134t-81 194q0 126 99 201t253 75q219 0 352 -158l-123 -102q-96 100 -231 100
q-80 0 -127 -30.5t-47 -85.5q0 -25 12.5 -46.5t28 -36.5t48.5 -32.5t55 -27t67 -27.5q7 -3 10 -4q63 -23 109 -43.5t92 -51t74.5 -65t46.5 -83t18 -106.5q0 -140 -100.5 -218.5t-272.5 -78.5zM393 -494q73 62 92 148q-56 0 -89.5 34t-33.5 85q0 53 35.5 87t83.5 34
q52 0 88.5 -36.5t36.5 -97.5q0 -168 -160 -280z" />
    <glyph glyph-name="uni021A" unicode="&#x21a;" horiz-adv-x="1193" 
d="M686 1264v-1264h-178v1264h-399v170h976v-170h-399zM510 -494q73 62 92 148q-56 0 -89.5 34t-33.5 85q0 53 35.5 87t83.5 34q52 0 88.5 -36.5t36.5 -97.5q0 -168 -160 -280z" />
    <glyph glyph-name="uni021B" unicode="&#x21b;" horiz-adv-x="765" 
d="M453 -25q-114 0 -168 67t-54 183v666h-170v156h170v346l179 86v-432h258v-156h-258v-606q0 -69 22.5 -106.5t85.5 -37.5q69 0 156 56l-21 -174q-91 -48 -200 -48zM354 -494q73 62 92 148q-56 0 -89 34t-33 85q0 54 35 87.5t83 33.5q52 0 88.5 -36.5t36.5 -97.5
q0 -169 -159 -280z" />
    <glyph glyph-name="uni0237" unicode="&#x237;" horiz-adv-x="520" 
d="M-12 -438l-84 135q151 24 209.5 77.5t58.5 151.5v1121h178v-1055q0 -190 -78 -283q-99 -121 -284 -147z" />
    <glyph glyph-name="circumflex" unicode="&#x2c6;" horiz-adv-x="753" 
d="M594 1180l-215 184l-215 -184h-170l301 319h168l299 -319h-168z" />
    <glyph glyph-name="caron" unicode="&#x2c7;" horiz-adv-x="753" 
d="M463 1180h-170l-299 319h170l215 -184l215 184h168z" />
    <glyph glyph-name="uni02C9" unicode="&#x2c9;" horiz-adv-x="753" 
d="M39 1235v151h676v-151h-676z" />
    <glyph glyph-name="breve" unicode="&#x2d8;" horiz-adv-x="753" 
d="M377 1186q-184 0 -278.5 94t-94.5 240h160q0 -84 59 -134.5t154 -50.5q96 0 155.5 50.5t59.5 134.5h160q0 -146 -95 -240t-280 -94z" />
    <glyph glyph-name="dotaccent" unicode="&#x2d9;" horiz-adv-x="753" 
d="M377 1227q-47 0 -80 32.5t-33 79.5t33 80t80 33t79.5 -33t32.5 -80t-32.5 -79.5t-79.5 -32.5z" />
    <glyph glyph-name="ring" unicode="&#x2da;" horiz-adv-x="753" 
d="M379 1098q-100 0 -172 71.5t-72 169.5q0 99 72 168.5t172 69.5q99 0 171.5 -69.5t72.5 -168.5q0 -98 -72.5 -169.5t-171.5 -71.5zM379 1229q43 0 72.5 31.5t29.5 78.5q0 49 -29 79t-73 30t-74.5 -30.5t-30.5 -78.5q0 -47 31 -78.5t74 -31.5z" />
    <glyph glyph-name="ogonek" unicode="&#x2db;" horiz-adv-x="753" 
d="M389 -485q-103 0 -169 54.5t-66 151.5q0 100 74 178t206 121h133q-132 -55 -198 -128.5t-66 -151.5q0 -55 31 -84t76 -29q59 0 98 43l92 -67q-80 -88 -211 -88z" />
    <glyph glyph-name="tilde" unicode="&#x2dc;" horiz-adv-x="753" 
d="M539 1219q-49 0 -99.5 15.5t-85.5 34.5t-77 34.5t-76 15.5q-40 0 -67 -24t-30 -68h-92q0 246 203 246q49 0 99.5 -16t85.5 -35.5t77 -35.5t76 -16q40 0 66.5 25t29.5 69h92q0 -245 -202 -245z" />
    <glyph glyph-name="hungarumlaut" unicode="&#x2dd;" horiz-adv-x="753" 
d="M260 1180h-180l291 319h254zM678 1180h-180l290 319h254z" />
    <glyph glyph-name="uni0312" unicode="&#x312;" horiz-adv-x="0" 
d="M-375 1223q-52 0 -88.5 37t-36.5 98q0 168 160 280l53 -28q-26 -19 -53.5 -59t-38.5 -89q55 0 89 -33.5t34 -82.5q0 -54 -35.5 -88.5t-83.5 -34.5z" />
    <glyph glyph-name="uni0326" unicode="&#x326;" horiz-adv-x="0" 
d="M-463 -494q73 62 92 148q-56 0 -89.5 34t-33.5 85q0 53 35.5 87t83.5 34q52 0 88.5 -36.5t36.5 -97.5q0 -168 -160 -280z" />
    <glyph glyph-name="uni03A9" unicode="&#x3a9;" horiz-adv-x="1523" 
d="M887 0v166q96 106 151 190.5t86 193.5t31 247q0 75 -12.5 144t-42 134t-73.5 112.5t-112 76t-153 28.5q-105 0 -183.5 -43t-123 -116t-65.5 -157.5t-21 -180.5q0 -137 31 -245.5t86 -193t151 -190.5v-166h-467v168h317q-305 208 -305 631q0 96 18.5 186.5t62.5 177.5
t109 151.5t165.5 104t224.5 39.5t224.5 -39.5t165 -104t108 -151.5t61.5 -177.5t18 -186.5q0 -421 -305 -631h322v-168h-469z" />
    <glyph glyph-name="uni03BC" unicode="&#x3bc;" horiz-adv-x="1157" 
d="M811 0v102q-114 -127 -268 -127q-69 0 -116.5 24t-84.5 81v-406l-178 -84v1457h178v-631q0 -82 15.5 -137.5t46.5 -85t70 -41t95 -11.5q242 0 242 271v635h178v-1047h-178z" />
    <glyph glyph-name="pi" unicode="&#x3c0;" horiz-adv-x="1370" 
d="M1047 -25q-112 0 -167 67t-55 183v635h-313v-104q0 -123 -5.5 -216t-22.5 -189t-46 -166t-78.5 -130t-117.5 -98l-152 119q45 27 76.5 52.5t67.5 73t57.5 106.5t36 152t14.5 212v188h-197v187h1115v-187h-254v-575q0 -70 21.5 -108t84.5 -38q76 0 158 56l-25 -172
q-91 -48 -198 -48z" />
    <glyph glyph-name="Wgrave" unicode="&#x1e80;" horiz-adv-x="1720" 
d="M911 1567l-364 319h254l291 -319h-181zM395 0l-293 1434h187l176 -934q21 -108 27 -154q2 9 38 152l254 936h142l256 -934q24 -89 32 -140q6 38 27 142l195 932h182l-311 -1434h-142l-276 979q-34 125 -37 141q-8 -43 -35 -141l-276 -979h-146z" />
    <glyph glyph-name="wgrave" unicode="&#x1e81;" horiz-adv-x="1464" 
d="M784 1180l-364 319h254l291 -319h-181zM346 0l-268 1047h176l160 -703q2 -11 10.5 -51t11.5 -60q3 17 27 111l196 703h148l197 -703l28 -115q3 19 11 57t12 58l157 703h177l-269 -1047h-159l-191 621q-34 115 -39 137q-15 -63 -37 -137l-188 -621h-160z" />
    <glyph glyph-name="Wacute" unicode="&#x1e82;" horiz-adv-x="1720" 
d="M629 1567l291 319h254l-365 -319h-180zM395 0l-293 1434h187l176 -934q21 -108 27 -154q2 9 38 152l254 936h142l256 -934q24 -89 32 -140q6 38 27 142l195 932h182l-311 -1434h-142l-276 979q-34 125 -37 141q-8 -43 -35 -141l-276 -979h-146z" />
    <glyph glyph-name="wacute" unicode="&#x1e83;" horiz-adv-x="1464" 
d="M502 1180l291 319h254l-365 -319h-180zM346 0l-268 1047h176l160 -703q2 -11 10.5 -51t11.5 -60q3 17 27 111l196 703h148l197 -703l28 -115q3 19 11 57t12 58l157 703h177l-269 -1047h-159l-191 621q-34 115 -39 137q-15 -63 -37 -137l-188 -621h-160z" />
    <glyph glyph-name="Wdieresis" unicode="&#x1e84;" horiz-adv-x="1720" 
d="M682 1614q-46 0 -79.5 32.5t-33.5 79.5t33.5 80t79.5 33q47 0 80 -33t33 -80t-33 -79.5t-80 -32.5zM1036 1614q-46 0 -79 32.5t-33 79.5t33 80t79 33q47 0 80 -33t33 -80t-33 -79.5t-80 -32.5zM395 0l-293 1434h187l176 -934q21 -108 27 -154q2 9 38 152l254 936h142
l256 -934q24 -89 32 -140q6 38 27 142l195 932h182l-311 -1434h-142l-276 979q-34 125 -37 141q-8 -43 -35 -141l-276 -979h-146z" />
    <glyph glyph-name="wdieresis" unicode="&#x1e85;" horiz-adv-x="1464" 
d="M555 1227q-46 0 -79.5 32.5t-33.5 79.5t33.5 80t79.5 33q47 0 80 -33t33 -80t-33 -79.5t-80 -32.5zM909 1227q-46 0 -79 32.5t-33 79.5t33 80t79 33q47 0 80 -33t33 -80t-33 -79.5t-80 -32.5zM346 0l-268 1047h176l160 -703q2 -11 10.5 -51t11.5 -60q3 17 27 111l196 703
h148l197 -703l28 -115q3 19 11 57t12 58l157 703h177l-269 -1047h-159l-191 621q-34 115 -39 137q-15 -63 -37 -137l-188 -621h-160z" />
    <glyph glyph-name="Ygrave" unicode="&#x1ef2;" horiz-adv-x="1312" 
d="M645 1567l-364 319h254l290 -319h-180zM569 0v563l-487 871h201l374 -697l379 697h195l-483 -867v-567h-179z" />
    <glyph glyph-name="ygrave" unicode="&#x1ef3;" horiz-adv-x="1085" 
d="M590 1180l-365 319h254l291 -319h-180zM295 -397l160 424l-387 1020h178l260 -713q17 -45 33 -101q19 67 32 101l265 713h182l-543 -1444h-180z" />
    <glyph glyph-name="endash" unicode="&#x2013;" horiz-adv-x="1044" 
d="M119 512v154h809v-154h-809z" />
    <glyph glyph-name="emdash" unicode="&#x2014;" horiz-adv-x="1208" 
d="M6 512v154h1198v-154h-1198z" />
    <glyph glyph-name="uni2015" unicode="&#x2015;" horiz-adv-x="1208" 
d="M6 512v154h1198v-154h-1198z" />
    <glyph glyph-name="quoteleft" unicode="&#x2018;" horiz-adv-x="460" 
d="M236 922q-65 0 -110.5 45.5t-45.5 132.5q0 114 57 208.5t148 149.5l59 -31q-38 -34 -74.5 -95t-40.5 -130q61 -3 102.5 -40.5t41.5 -94.5q0 -65 -39.5 -105t-97.5 -40z" />
    <glyph glyph-name="quoteright" unicode="&#x2019;" horiz-adv-x="460" 
d="M117 952q38 34 74 95.5t40 130.5q-61 3 -102 40.5t-41 94.5q0 65 40 105t97 40q65 0 110.5 -45.5t45.5 -132.5q0 -114 -57 -208.5t-148 -149.5z" />
    <glyph glyph-name="quotesinglbase" unicode="&#x201a;" horiz-adv-x="460" 
d="M117 -258q38 34 74 95t40 130q-61 3 -102 41t-41 96q0 64 40 105t97 41q65 0 110.5 -46.5t45.5 -133.5q0 -114 -57 -209t-148 -150z" />
    <glyph glyph-name="quotereversed" unicode="&#x201b;" horiz-adv-x="460" 
d="M285 922q-91 55 -148 149.5t-57 208.5q0 87 45.5 132.5t110.5 45.5q58 0 97.5 -40t39.5 -105q0 -57 -41.5 -94.5t-102.5 -40.5q4 -69 40.5 -130.5t74.5 -95.5z" />
    <glyph glyph-name="quotedblleft" unicode="&#x201c;" horiz-adv-x="888" 
d="M236 922q-65 0 -110.5 45.5t-45.5 132.5q0 114 57 208.5t148 149.5l59 -31q-38 -34 -74.5 -95t-40.5 -130q61 -3 102.5 -40.5t41.5 -94.5q0 -65 -39.5 -105t-97.5 -40zM664 922q-64 0 -109 45.5t-45 132.5q0 114 56.5 208.5t146.5 149.5l59 -31q-37 -33 -73 -94.5
t-40 -130.5q60 -3 102 -40.5t42 -94.5q0 -65 -40.5 -105t-98.5 -40z" />
    <glyph glyph-name="quotedblright" unicode="&#x201d;" horiz-adv-x="888" 
d="M117 952q38 34 74 95.5t40 130.5q-61 3 -102 40.5t-41 94.5q0 65 40 105t97 40q65 0 110.5 -45.5t45.5 -132.5q0 -114 -57 -208.5t-148 -149.5zM547 952q37 33 72.5 95t39.5 131q-60 3 -101.5 40.5t-41.5 94.5q0 65 40.5 105t98.5 40q64 0 109 -45.5t45 -132.5
q0 -114 -56.5 -208.5t-146.5 -149.5z" />
    <glyph glyph-name="quotedblbase" unicode="&#x201e;" horiz-adv-x="888" 
d="M117 -258q38 34 74 95t40 130q-61 3 -102 41t-41 96q0 64 40 105t97 41q65 0 110.5 -46.5t45.5 -133.5q0 -114 -57 -209t-148 -150zM547 -258q37 33 72.5 94.5t39.5 130.5q-60 3 -101.5 41.5t-41.5 95.5q0 64 41 105t98 41q64 0 109 -46.5t45 -133.5q0 -114 -57 -209
t-146 -150z" />
    <glyph glyph-name="dagger" unicode="&#x2020;" horiz-adv-x="1146" 
d="M639 918l25 -228l-64 -979h-47l-70 979l21 228l-262 -35h-92v172h92l258 -39l-17 186v256h181v-256l-21 -186l262 39h94v-172h-94z" />
    <glyph glyph-name="daggerdbl" unicode="&#x2021;" horiz-adv-x="1146" 
d="M999 115h-94l-262 39l21 -187v-256h-181v256l17 187l-258 -39h-92v174h92l262 -39l-21 229v211l21 228l-262 -35h-92v172h92l258 -39l-17 186v256h181v-256l-21 -186l262 39h94v-172h-94l-266 35l25 -228v-211l-25 -229l266 39h94v-174z" />
    <glyph glyph-name="bullet" unicode="&#x2022;" horiz-adv-x="841" 
d="M420 446q-120 0 -200.5 78.5t-80.5 192.5q0 115 80.5 194.5t200.5 79.5t202.5 -80t82.5 -194q0 -113 -82.5 -192t-202.5 -79z" />
    <glyph glyph-name="ellipsis" unicode="&#x2026;" horiz-adv-x="1927" 
d="M332 -27q-56 0 -93.5 38.5t-37.5 90.5q0 54 37.5 92.5t93.5 38.5q55 0 93 -39t38 -92q0 -52 -38 -90.5t-93 -38.5zM963 -27q-55 0 -93.5 38.5t-38.5 90.5q0 53 38.5 92t93.5 39q56 0 94.5 -39t38.5 -92q0 -52 -38.5 -90.5t-94.5 -38.5zM1595 -27q-55 0 -93 38.5t-38 90.5
q0 53 38 92t93 39q56 0 95 -39t39 -92q0 -52 -39 -90.5t-95 -38.5z" />
    <glyph glyph-name="perthousand" unicode="&#x2030;" horiz-adv-x="2572" 
d="M436 729q-87 0 -153 32.5t-103.5 86.5t-55.5 116t-18 130q0 63 18 124t55 116.5t103.5 89.5t153.5 34q86 0 152 -32t103 -85.5t55 -115.5t18 -131q0 -50 -10 -99t-35 -97.5t-61 -85.5t-93.5 -60t-128.5 -23zM487 -25h-172l979 1483h172zM436 870q85 0 130.5 64.5
t45.5 159.5q0 101 -45.5 162t-130.5 61q-88 0 -132 -62t-44 -161q0 -102 44.5 -163t131.5 -61zM1346 -25q-86 0 -152 32.5t-103 86.5t-55 116t-18 130q0 50 10.5 99t35.5 97.5t61.5 85.5t93.5 60t127 23q87 0 153 -32t103 -86t55 -116t18 -131q0 -50 -10 -99t-34.5 -97.5
t-61 -85.5t-94.5 -60t-129 -23zM2136 -25q-86 0 -152 32.5t-103 86.5t-55 116t-18 130q0 50 10.5 99t35.5 97.5t61.5 85.5t93.5 60t127 23q87 0 153 -32t103.5 -86t55.5 -116t18 -131q0 -64 -17.5 -124.5t-54 -116.5t-103.5 -90t-155 -34zM1346 117q86 0 131 63.5t45 159.5
q0 102 -45 162.5t-131 60.5q-87 0 -132 -62.5t-45 -160.5q0 -101 45.5 -162t131.5 -61zM2136 117q86 0 131 63.5t45 159.5q0 102 -45 162.5t-131 60.5q-87 0 -131.5 -62.5t-44.5 -160.5q0 -101 45 -162t131 -61z" />
    <glyph glyph-name="minute" unicode="&#x2032;" horiz-adv-x="446" 
d="M88 856l41 639h229l-125 -639h-145z" />
    <glyph glyph-name="second" unicode="&#x2033;" horiz-adv-x="856" 
d="M88 856l41 639h229l-125 -639h-145zM498 856l41 639h229l-125 -639h-145z" />
    <glyph glyph-name="guilsinglleft" unicode="&#x2039;" horiz-adv-x="630" 
d="M389 0l-311 524l311 523h195l-312 -523l312 -524h-195z" />
    <glyph glyph-name="guilsinglright" unicode="&#x203a;" horiz-adv-x="630" 
d="M47 0l311 524l-311 523h195l311 -523l-311 -524h-195z" />
    <glyph glyph-name="fraction" unicode="&#x2044;" horiz-adv-x="673" 
d="M-238 -25l981 1483h168l-981 -1483h-168z" />
    <glyph glyph-name="uni207F" unicode="&#x207f;" horiz-adv-x="940" 
d="M647 580v501q0 224 -164 224q-176 0 -176 -218v-507h-168v858h168v-97q82 117 230 117q137 0 206.5 -91.5t69.5 -293.5v-493h-166z" />
    <glyph glyph-name="afii08941" unicode="&#x20a4;" horiz-adv-x="1206" 
d="M176 0v164q72 47 117.5 125.5t56.5 169.5h-180v147h190q-3 60 -34 135h-156v150h94q-31 84 -31 164t29 151t84.5 128t146.5 90.5t207 33.5q132 0 231 -34.5t191 -102.5l-69 -166q-40 32 -58.5 45t-65.5 39t-103.5 37.5t-125.5 11.5q-137 0 -207.5 -69t-70.5 -164
q0 -73 41 -164h395v-150h-334q22 -72 25 -135h309v-147h-326q-35 -164 -178 -289h791v-170h-969z" />
    <glyph glyph-name="Euro" unicode="&#x20ac;" horiz-adv-x="1267" 
d="M768 -25q-117 0 -208.5 37t-151.5 105.5t-97.5 153t-56.5 190.5h-168l66 149h84q-3 52 -3 105q0 39 3 82h-148l66 149h100q16 83 43.5 155.5t72.5 139t103.5 114t140 75.5t177.5 28q196 0 354 -108l-70 -168q-124 108 -287 108q-76 0 -137 -27.5t-101 -77t-65.5 -108.5
t-40.5 -131h533l-62 -149h-491q-4 -35 -4 -99q0 -59 4 -88h416l-62 -149h-332q34 -141 112.5 -228.5t207.5 -87.5q170 0 274 148l146 -92q-62 -100 -168.5 -163t-249.5 -63z" />
    <glyph glyph-name="uni2105" unicode="&#x2105;" horiz-adv-x="2111" 
d="M483 557q-175 0 -269.5 120.5t-94.5 330.5q0 211 98 330.5t268 119.5q243 0 316 -209l-160 -57q-14 47 -53 80t-105 33q-98 0 -149 -77.5t-51 -219.5q0 -140 50.5 -217.5t145.5 -77.5q72 0 111 30.5t61 92.5l148 -50q-32 -107 -111.5 -168t-204.5 -61zM442 -25l979 1483
h174l-979 -1483h-174zM1602 -25q-180 0 -285 119.5t-105 331.5q0 211 105 331t285 120q181 0 286 -120t105 -331q0 -212 -105 -331.5t-286 -119.5zM1602 129q110 0 168.5 77.5t58.5 219.5t-58.5 219.5t-168.5 77.5q-105 0 -165.5 -78.5t-60.5 -218.5t60.5 -218.5
t165.5 -78.5z" />
    <glyph glyph-name="uni2113" unicode="&#x2113;" horiz-adv-x="940" 
d="M506 -25q-96 0 -155.5 57.5t-59.5 186.5v264q-18 -12 -105 -57l-57 143q90 35 162 88v394q0 113 19.5 193.5t56.5 126.5t85 66.5t111 20.5q117 0 194 -80t77 -227q0 -62 -14 -121t-33 -104t-54 -93t-60.5 -78t-70.5 -69.5t-66.5 -56l-64.5 -49.5v-279q0 -95 28.5 -127.5
t86.5 -32.5q75 0 139 74l47 -113q-44 -56 -114.5 -91.5t-151.5 -35.5zM563 1303q-33 0 -52 -20.5t-29.5 -78t-10.5 -162.5v-280q96 85 139 171t43 185q0 185 -90 185z" />
    <glyph glyph-name="uni2116" unicode="&#x2116;" horiz-adv-x="2449" 
d="M1888 559q-180 0 -284.5 118.5t-104.5 330.5q0 211 104.5 330.5t284.5 119.5q181 0 286 -119.5t105 -330.5q0 -212 -105 -330.5t-286 -118.5zM1249 0h-172l-645 1024q-49 84 -57 100q4 -62 4 -100v-1024h-178v1434h180l635 -1020q40 -70 59 -107q-4 74 -4 105v1022h178
v-1434zM1888 713q110 0 169 77.5t59 217.5q0 143 -59 220t-169 77q-105 0 -165 -78t-60 -219q0 -139 60 -217t165 -78zM1513 254v137h752v-137h-752z" />
    <glyph glyph-name="trademark" unicode="&#x2122;" horiz-adv-x="1626" 
d="M289 569v738h-232v127h596v-127h-229v-738h-135zM1466 569h-133v508l-26 -65l-205 -457l-207 457l-29 69v-512h-133v865h121l227 -510l19 -52l20 52l228 510h118v-865z" />
    <glyph glyph-name="uni2126" unicode="&#x2126;" horiz-adv-x="1523" 
d="M887 0v166q96 106 151 190.5t86 193.5t31 247q0 75 -12.5 144t-42 134t-73.5 112.5t-112 76t-153 28.5q-105 0 -183.5 -43t-123 -116t-65.5 -157.5t-21 -180.5q0 -137 31 -245.5t86 -193t151 -190.5v-166h-467v168h317q-305 208 -305 631q0 96 18.5 186.5t62.5 177.5
t109 151.5t165.5 104t224.5 39.5t224.5 -39.5t165 -104t108 -151.5t61.5 -177.5t18 -186.5q0 -421 -305 -631h322v-168h-469z" />
    <glyph glyph-name="estimated" unicode="&#x212e;" horiz-adv-x="1658" 
d="M840 -25q-144 0 -273 53t-225 147.5t-152.5 235t-56.5 306.5q0 146 39 269.5t106.5 210.5t158 148t194 90t215.5 29q106 0 202.5 -29.5t181.5 -91t148.5 -149.5t102.5 -212t45 -271h-1057v-445q51 -68 149.5 -112.5t223.5 -44.5q307 0 487 278l111 -68
q-73 -111 -152 -183.5t-192.5 -116.5t-255.5 -44zM469 842l731 2v336q-56 67 -153.5 110t-206.5 43q-228 0 -371 -137v-354z" />
    <glyph glyph-name="uni2153" unicode="&#x2153;" horiz-adv-x="1478" 
d="M25 -25l979 1483h167l-978 -1483h-168zM156 580v673h-105v107q59 0 91.5 21t50.5 63h110v-864h-147zM1106 -20q-115 0 -195 61.5t-116 169.5l139 47q24 -72 70 -109.5t106 -37.5q65 0 103 35.5t38 95.5q0 55 -36 95t-101 40h-65v131h53q59 0 88 34.5t29 86.5
q0 50 -31 84.5t-88 34.5q-99 0 -146 -115l-137 47q36 90 113 144.5t176 54.5q120 0 193 -67t73 -173q0 -55 -29 -106t-79 -78q65 -25 103 -79.5t38 -125.5q0 -124 -82.5 -197t-216.5 -73z" />
    <glyph glyph-name="uni2154" unicode="&#x2154;" horiz-adv-x="1802" 
d="M68 580q0 84 22 153t66 123t93 94t120 82q66 39 98.5 77t32.5 97q0 47 -36.5 84t-103.5 37q-129 0 -157 -139l-135 41q22 101 102.5 165t198.5 64q126 0 204 -70.5t78 -187.5q0 -55 -15 -98t-49 -79t-72 -63t-99 -61q-141 -80 -183 -182h416v-137h-581zM350 -25l979 1483
h168l-979 -1483h-168zM1432 -20q-116 0 -196 61t-118 170l142 47q23 -72 68.5 -109.5t105.5 -37.5q66 0 104.5 35.5t38.5 95.5q0 55 -36.5 95t-100.5 40h-68v131h53q59 0 89 34.5t30 86.5q0 50 -31.5 84.5t-87.5 34.5q-100 0 -147 -115l-135 47q36 90 112.5 144.5
t176.5 54.5q119 0 192.5 -67.5t73.5 -172.5q0 -54 -30 -105t-79 -79q64 -25 103 -79.5t39 -125.5q0 -124 -82.5 -197t-216.5 -73z" />
    <glyph glyph-name="oneeighth" unicode="&#x215b;" horiz-adv-x="1470" 
d="M25 -25l979 1483h167l-978 -1483h-168zM156 580v673h-105v107q59 0 91.5 21t50.5 63h110v-864h-147zM1090 -20q-134 0 -216.5 75.5t-82.5 196.5q0 152 135 223q-43 26 -70 70.5t-27 97.5q0 104 73 170t188 66t186.5 -65.5t71.5 -170.5q0 -51 -26.5 -97t-68.5 -71
q60 -33 96.5 -90t36.5 -133q0 -122 -81.5 -197t-214.5 -75zM1090 530q54 0 86 31t32 78q0 51 -32 83t-86 32q-51 0 -85 -32t-34 -83q0 -46 33.5 -77.5t85.5 -31.5zM1090 109q66 0 107.5 41t41.5 108q0 62 -41.5 105t-107.5 43q-65 0 -108.5 -43.5t-43.5 -104.5
q0 -67 43 -108t109 -41z" />
    <glyph glyph-name="threeeighths" unicode="&#x215c;" horiz-adv-x="1740" 
d="M360 559q-115 0 -195 61.5t-118 170.5l141 47q23 -72 68.5 -110t105.5 -38q66 0 105 35.5t39 95.5q0 55 -36.5 95t-100.5 40h-68v131h53q59 0 89 34.5t30 86.5q0 50 -31.5 84.5t-87.5 34.5q-100 0 -147 -115l-135 48q36 90 112 144t176 54q119 0 193 -67t74 -172
q0 -55 -30 -106.5t-79 -78.5q64 -25 102.5 -79.5t38.5 -125.5q0 -124 -82.5 -197t-216.5 -73zM295 -25l979 1483h168l-979 -1483h-168zM1360 -20q-134 0 -216.5 75.5t-82.5 196.5q0 152 135 223q-43 26 -69.5 70t-26.5 98q0 104 72.5 170t187.5 66t186.5 -65.5t71.5 -170.5
q0 -52 -26 -97.5t-68 -70.5q60 -33 96.5 -90t36.5 -133q0 -122 -82 -197t-215 -75zM1360 530q54 0 86.5 31t32.5 78q0 51 -32.5 83t-86.5 32q-51 0 -85 -32t-34 -83q0 -46 33.5 -77.5t85.5 -31.5zM1360 109q66 0 107.5 41t41.5 108q0 62 -41.5 105t-107.5 43
q-65 0 -108.5 -43.5t-43.5 -104.5q0 -67 43 -108t109 -41z" />
    <glyph glyph-name="fiveeighths" unicode="&#x215d;" horiz-adv-x="1724" 
d="M279 -25l978 1483h168l-979 -1483h-167zM334 561q-95 0 -168 30.5t-113 70.5l82 110q84 -80 195 -80q83 0 130.5 47t47.5 121q0 70 -39.5 113t-110.5 43q-102 0 -161 -88l-117 51l47 461h469v-137h-346l-23 -197q62 41 148 41q129 0 205.5 -82t76.5 -203
q0 -132 -90.5 -216.5t-232.5 -84.5zM1341 -20q-132 0 -214.5 75.5t-82.5 196.5q0 152 136 223q-44 26 -70.5 70t-26.5 98q0 104 72 170t186 66q115 0 188 -66t73 -170q0 -51 -27 -96.5t-70 -71.5q62 -32 98.5 -89.5t36.5 -133.5q0 -122 -82 -197t-217 -75zM1341 530
q54 0 86.5 31t32.5 78q0 52 -32 83.5t-87 31.5q-51 0 -84.5 -32t-33.5 -83q0 -46 33 -77.5t85 -31.5zM1341 109q67 0 109.5 41t42.5 108q0 62 -42.5 105t-109.5 43q-65 0 -107 -43.5t-42 -104.5q0 -67 42 -108t107 -41z" />
    <glyph glyph-name="seveneighths" unicode="&#x215e;" horiz-adv-x="1538" 
d="M92 -25l979 1483h168l-979 -1483h-168zM195 580q1 217 62 390t171 333h-401v137h569v-135q-70 -80 -121 -177.5t-77.5 -195.5t-38.5 -183.5t-13 -168.5h-151zM1157 -20q-132 0 -214.5 75.5t-82.5 196.5q0 152 135 223q-44 25 -70 69.5t-26 98.5q0 104 72 170t186 66
q115 0 187.5 -66t72.5 -170q0 -51 -27 -97t-69 -71q62 -32 98.5 -89.5t36.5 -133.5q0 -122 -82 -197t-217 -75zM1157 530q54 0 86.5 31t32.5 78q0 52 -32 83.5t-87 31.5q-51 0 -85 -32t-34 -83q0 -46 33.5 -77.5t85.5 -31.5zM1157 109q67 0 109.5 41t42.5 108
q0 62 -42.5 105t-109.5 43q-65 0 -107 -43.5t-42 -104.5q0 -67 42 -108t107 -41z" />
    <glyph glyph-name="arrowleft" unicode="&#x2190;" horiz-adv-x="1617" 
d="M602 371q-9 0 -35 16l-461 313q-24 15 -24 37t24 37l461 316q26 16 35 16q10 0 17.5 -7t7.5 -16q0 -8 -13 -43l-79 -231l981 22v-186l-981 23l79 -232q13 -35 13 -43q0 -9 -7.5 -15.5t-17.5 -6.5z" />
    <glyph glyph-name="arrowup" unicode="&#x2191;" horiz-adv-x="903" 
d="M358 0l25 977l-242 -82q-20 -8 -28 -8q-10 0 -18.5 8.5t-8.5 19.5q0 10 10 27l322 471q15 21 35 21q22 0 34 -21l320 -471q12 -15 12 -27q0 -11 -8 -19.5t-20 -8.5q-7 0 -27 8l-242 82l25 -977h-189z" />
    <glyph glyph-name="arrowright" unicode="&#x2192;" horiz-adv-x="1617" 
d="M1016 371q-10 0 -17.5 6.5t-7.5 15.5q0 8 13 43l79 232l-981 -23v186l981 -22l-79 231q-13 35 -13 43q0 9 7.5 16t17.5 7q9 0 35 -16l462 -316q23 -14 23 -37t-23 -37l-462 -313q-26 -16 -35 -16z" />
    <glyph glyph-name="arrowdown" unicode="&#x2193;" horiz-adv-x="933" 
d="M467 0q-21 0 -35 20l-330 484q-10 20 -10 26q0 12 8 20.5t19 8.5q13 0 28 -6l250 -86l-24 967h188l-24 -967l249 86q15 6 27 6t20.5 -8.5t8.5 -20.5q0 -6 -13 -26l-327 -484q-11 -20 -35 -20z" />
    <glyph glyph-name="arrowboth" unicode="&#x2194;" horiz-adv-x="1880" 
d="M1278 371q-10 0 -17.5 6.5t-7.5 15.5q0 8 13 43l77 226h-806l77 -226q13 -35 13 -43q0 -9 -7.5 -15.5t-17.5 -6.5q-9 0 -35 16l-461 313q-24 15 -24 37t24 37l461 316q26 16 35 16q10 0 17.5 -7t7.5 -16q0 -8 -13 -43l-77 -225h806l-77 225q-13 35 -13 43q0 9 7.5 16
t17.5 7q9 0 35 -16l463 -316q22 -14 22 -37t-22 -37l-463 -313q-26 -16 -35 -16z" />
    <glyph glyph-name="arrowupdn" unicode="&#x2195;" horiz-adv-x="933" 
d="M465 -348q-23 0 -37 22l-313 463q-17 27 -17 35q0 10 7 17.5t16 7.5q8 0 43 -13l225 -78v1008l-225 -78q-32 -12 -43 -12q-9 0 -16 7.5t-7 17.5q0 7 17 34l313 463q14 23 37 23t37 -23l315 -463q17 -27 17 -34q0 -10 -7 -17.5t-16 -7.5q-11 0 -43 12l-225 78v-1008
l225 78q35 13 43 13q9 0 16 -7.5t7 -17.5q0 -8 -17 -35l-315 -463q-14 -22 -37 -22z" />
    <glyph glyph-name="uni2196" unicode="&#x2196;" horiz-adv-x="1261" 
d="M1073 143l-678 711l-106 -221q-7 -16 -10.5 -23t-11.5 -14.5t-17 -7.5q-24 0 -31 49l-100 522q-1 7 -3.5 21t-2.5 18q0 16 10 26.5t27 10.5q4 0 9.5 -1t13 -2.5t11.5 -2.5l533 -101q15 -3 21.5 -4.5t15 -8t8.5 -15.5q0 -8 -7 -15.5t-14 -11.5t-24 -12l-223 -109l710 -676
z" />
    <glyph glyph-name="uni2197" unicode="&#x2197;" horiz-adv-x="1261" 
d="M188 143l-131 133l711 676l-223 109q-17 8 -24 12t-14 11.5t-7 15.5q0 13 11.5 18.5t33.5 9.5l532 101q4 1 12 2.5t13.5 2.5t9.5 1q17 0 27 -10.5t10 -26.5q0 -4 -2.5 -18t-3.5 -21l-101 -522q-7 -49 -30 -49q-9 0 -17 7.5t-11.5 14.5t-10.5 23l-107 221z" />
    <glyph glyph-name="uni2198" unicode="&#x2198;" horiz-adv-x="1261" 
d="M1112 143q-5 0 -18 3t-17 4l-532 100q-45 9 -45 29q0 16 31 31q3 2 8 4l6 3l223 109l-711 676l131 133l678 -711l107 221q6 13 8 17.5t7.5 13.5t11 12t12.5 3q23 0 30 -50l101 -522q1 -7 3.5 -21t2.5 -18q0 -16 -10 -26.5t-27 -10.5z" />
    <glyph glyph-name="uni2199" unicode="&#x2199;" horiz-adv-x="1261" 
d="M150 143q-17 0 -27 10.5t-10 26.5q0 4 2.5 18t3.5 21l100 522q7 50 31 50q7 0 12.5 -3t11 -12t7.5 -13.5t8 -17.5l106 -221l678 711l131 -133l-710 -676l223 -109q37 -18 43 -28q2 -5 2 -10q0 -20 -45 -29l-533 -100q-4 -1 -17 -4t-17 -3z" />
    <glyph glyph-name="uni21B3" unicode="&#x21b3;" horiz-adv-x="1458" 
d="M1354 475q22 -14 22 -37t-22 -37l-463 -313q-26 -16 -35 -16q-10 0 -17.5 6.5t-7.5 15.5q0 8 13 43l78 225h-750v1072h158v-918h592l-78 225q-13 35 -13 43q0 9 7.5 16t17.5 7q9 0 35 -16z" />
    <glyph glyph-name="uni21B4" unicode="&#x21b4;" horiz-adv-x="1458" 
d="M1354 664q9 0 15.5 -7.5t6.5 -17.5q0 -9 -16 -35l-313 -461q-15 -24 -37 -24q-19 0 -37 24l-316 461q-16 26 -16 35q0 10 7 17.5t16 7.5q8 0 43 -13l223 -76v711h-758v148h918v-859l221 76q39 13 43 13z" />
    <glyph glyph-name="uni21B5" unicode="&#x21b5;" horiz-adv-x="1458" 
d="M1130 1434h158v-1072h-751l77 -225q13 -35 13 -43q0 -9 -7.5 -15.5t-17.5 -6.5q-9 0 -35 16l-461 313q-24 15 -24 37t24 37l461 316q26 16 35 16q10 0 17.5 -7t7.5 -16q0 -8 -13 -43l-77 -225h593v918z" />
    <glyph glyph-name="uni21B6" unicode="&#x21b6;" horiz-adv-x="1624" 
d="M903 1458q235 0 384 -154t149 -411v-893h-162v893q0 195 -103 305.5t-268 110.5q-167 0 -270 -110t-103 -306v-80l222 76q36 12 43 12q9 0 15.5 -7t6.5 -17q0 -9 -16 -35l-314 -461q-16 -25 -36 -25q-18 0 -37 25l-316 461q-16 26 -16 35q0 10 6.5 17t15.5 7q11 0 43 -12
l224 -76v80q0 258 148 411.5t384 153.5z" />
    <glyph glyph-name="uni21B7" unicode="&#x21b7;" horiz-adv-x="1624" 
d="M1520 901q9 0 15.5 -7t6.5 -17q0 -9 -16 -35l-316 -461q-16 -25 -36 -25q-21 0 -37 25l-314 461q-16 26 -16 35q0 10 6.5 17t15.5 7q11 0 43 -12l222 -76v80q0 197 -102 306.5t-269 109.5t-270 -110.5t-103 -305.5v-893h-160v893q0 258 148.5 411.5t384.5 153.5
q235 0 383.5 -153.5t148.5 -411.5v-80l222 76q32 12 43 12z" />
    <glyph glyph-name="uni21B8" unicode="&#x21b8;" horiz-adv-x="1261" 
d="M113 1286v148h1091v-148h-1091zM1073 -10l-678 710l-106 -221q-7 -16 -10.5 -23t-11.5 -14.5t-17 -7.5q-24 0 -31 49l-100 523q-1 7 -3.5 20.5t-2.5 17.5q0 15 11 26t26 11q4 0 9.5 -1t13 -2.5t11.5 -2.5l533 -100q45 -9 45 -29q0 -8 -7 -15.5t-14 -11.5t-24 -12
l-223 -108l710 -676z" />
    <glyph glyph-name="uni21B9" unicode="&#x21b9;" horiz-adv-x="1785" 
d="M993 729q-9 0 -35 16l-460 314q-25 16 -25 37t25 37l460 315q26 16 35 16q10 0 17.5 -6.5t7.5 -15.5q0 -11 -12 -43l-80 -232l688 23v-186l-688 22l80 -231q12 -32 12 -43q0 -9 -7.5 -16t-17.5 -7zM172 750v694h178v-694h-178zM793 -440q-10 0 -17.5 6.5t-7.5 15.5
q0 7 12 43l80 232l-688 -25v188l688 -24l-80 233q-12 32 -12 43q0 9 7.5 16t17.5 7q8 0 34 -16l461 -316q25 -19 25 -37q0 -21 -25 -37l-461 -313q-26 -16 -34 -16zM1436 -420v705h178v-705h-178z" />
    <glyph glyph-name="uni21BA" unicode="&#x21ba;" horiz-adv-x="1732" 
d="M1569 1337q37 -8 42 -21q1 -3 1 -7q0 -12 -10.5 -20t-34.5 -19l-213 -105q83 -90 128.5 -206t45.5 -242q0 -134 -52.5 -257t-141 -211.5t-211.5 -141t-257 -52.5t-256.5 52.5t-211 141t-141 211.5t-52.5 257q0 131 49.5 251.5t144.5 215.5l113 -113q-147 -150 -147 -354
q0 -136 67.5 -252t183 -184t250.5 -68q136 0 252 68t184 184t68 252q0 192 -129 334l-100 -209l-4 -8t-4.5 -8.5l-4.5 -7.5t-4.5 -7t-4.5 -5.5t-5 -5t-5.5 -2.5t-6.5 -1q-23 0 -33 49l-98 522q-6 24 -6 39q0 16 9.5 26.5t26.5 10.5q3 0 33 -6z" />
    <glyph glyph-name="uni21DA" unicode="&#x21da;" horiz-adv-x="1617" 
d="M1516 872h-959l-31 -88h990v-92h-990l29 -86h961v-92h-928l26 -78q13 -35 13 -43q0 -9 -7.5 -15.5t-17.5 -6.5q-9 0 -35 16l-461 313q-24 15 -24 37t24 37l461 316q26 16 35 16q10 0 17.5 -7t7.5 -16q0 -8 -13 -43l-26 -75h928v-93z" />
    <glyph glyph-name="uni21DB" unicode="&#x21db;" horiz-adv-x="1617" 
d="M1513 774q23 -14 23 -37t-23 -37l-462 -313q-26 -16 -35 -16q-10 0 -17.5 6.5t-7.5 15.5q0 8 13 43l26 78h-928v92h961l29 86h-990v92h990l-31 88h-959v93h928l-26 75q-13 35 -13 43q0 9 7.5 16t17.5 7q9 0 35 -16z" />
    <glyph glyph-name="uni21DC" unicode="&#x21dc;" horiz-adv-x="1617" 
d="M1352 815h164v-153h-234l-39 118l-86 -266h-119l-86 266l-86 -266h-118l-48 148h-163l77 -226q13 -35 13 -43q0 -9 -7.5 -15.5t-17.5 -6.5q-9 0 -35 16l-461 313q-24 15 -24 37t24 37l461 316q26 16 35 16q10 0 17.5 -7t7.5 -16q0 -8 -13 -43l-77 -225h233l37 -119
l86 269h119l86 -269l86 269h119z" />
    <glyph glyph-name="uni21DD" unicode="&#x21dd;" horiz-adv-x="1617" 
d="M1513 774q23 -14 23 -37t-23 -37l-462 -313q-26 -16 -35 -16q-10 0 -17.5 6.5t-7.5 15.5q0 8 13 43l77 226h-161l-50 -148h-118l-86 266l-86 -266h-119l-86 264l-37 -116h-236v153h166l47 150h119l86 -269l86 269h119l86 -269l39 119h231l-77 225q-13 35 -13 43
q0 9 7.5 16t17.5 7q9 0 35 -16z" />
    <glyph glyph-name="uni21DE" unicode="&#x21de;" horiz-adv-x="903" 
d="M764 895l-234 80v-252h269v-148h-269v-176h269v-147h-269v-252h-155v252h-269v147h269v176h-269v148h269v252l-234 -80q-20 -8 -28 -8q-10 0 -18.5 8.5t-8.5 19.5q0 10 10 27l322 471q15 21 35 21q22 0 34 -21l320 -471q12 -15 12 -27q0 -11 -8 -19.5t-20 -8.5
q-7 0 -27 8z" />
    <glyph glyph-name="uni21DF" unicode="&#x21df;" horiz-adv-x="903" 
d="M791 547q12 0 20 -8.5t8 -20.5q0 -8 -12 -26l-320 -472q-11 -20 -34 -20q-21 0 -35 20l-322 472q-10 20 -10 26q0 12 8 20.5t19 8.5q13 0 28 -6l234 -82v252h-269v147h269v176h-269v148h269v252h155v-252h269v-148h-269v-176h269v-147h-269v-252l234 82q15 6 27 6z" />
    <glyph glyph-name="uni21E0" unicode="&#x21e0;" horiz-adv-x="1617" 
d="M614 1040l-77 -225h184v-153h-184l77 -226q13 -35 13 -43q0 -9 -7.5 -15.5t-17.5 -6.5q-9 0 -35 16l-461 313q-24 15 -24 37t24 37l461 316q26 16 35 16q10 0 17.5 -7t7.5 -16q0 -8 -13 -43zM891 662v153h227v-153h-227zM1288 815h228v-153h-228v153z" />
    <glyph glyph-name="uni21E1" unicode="&#x21e1;" horiz-adv-x="899" 
d="M807 942q12 -15 12 -27q0 -11 -8 -19.5t-20 -8.5q-7 0 -27 8l-234 80v-197h-157v197l-232 -80q-20 -8 -28 -8q-10 0 -18.5 8.5t-8.5 19.5q0 10 10 27l322 471q15 21 35 21q22 0 34 -21zM373 389v232h157v-232h-157zM373 0v231h157v-231h-157z" />
    <glyph glyph-name="uni21E2" unicode="&#x21e2;" horiz-adv-x="1617" 
d="M1503 774q23 -14 23 -37t-23 -37l-463 -313q-26 -16 -34 -16q-10 0 -17.5 6.5t-7.5 15.5q0 11 12 43l78 226h-184v153h184l-78 225q-12 32 -12 43q0 9 7.5 16t17.5 7q8 0 34 -16zM92 662v153h230v-153h-230zM489 662v153h230v-153h-230z" />
    <glyph glyph-name="uni21E3" unicode="&#x21e3;" horiz-adv-x="903" 
d="M530 1434v-236h-157v236h157zM530 1040v-235h-157v235h157zM791 547q12 0 20 -8.5t8 -20.5q0 -8 -12 -26l-320 -472q-11 -20 -34 -20q-21 0 -35 20l-322 472q-10 20 -10 26q0 12 8 20.5t19 8.5q13 0 28 -6l232 -80v186h157v-188l234 82q15 6 27 6z" />
    <glyph glyph-name="uni21E4" unicode="&#x21e4;" horiz-adv-x="1675" 
d="M172 213v1047h178v-1047h-178zM993 371q-9 0 -35 16l-460 313q-25 16 -25 37t25 37l460 316q26 16 35 16q10 0 17.5 -7t7.5 -16q0 -11 -12 -43l-80 -231l647 22v-186l-647 23l80 -232q12 -32 12 -43q0 -9 -7.5 -15.5t-17.5 -6.5z" />
    <glyph glyph-name="uni21E5" unicode="&#x21e5;" horiz-adv-x="1675" 
d="M1325 213v1047h178v-1047h-178zM682 371q-10 0 -17.5 6.5t-7.5 15.5q0 8 13 43l80 232l-648 -23v186l648 -22l-80 231q-13 35 -13 43q0 9 7.5 16t17.5 7q9 0 35 -16l461 -316q24 -15 24 -37t-24 -37l-461 -313q-26 -16 -35 -16z" />
    <glyph glyph-name="partialdiff" unicode="&#x2202;" horiz-adv-x="1208" 
d="M516 -25q-198 0 -318 115.5t-120 300.5q0 114 41 210.5t109 160.5t155.5 99.5t181.5 35.5q126 0 204.5 -47.5t135.5 -134.5q3 54 0 102q-5 98 -34 177t-73 132t-104 90t-125 54.5t-137 21.5l43 166q318 -34 461 -226.5t143 -549.5q0 -114 -19 -215t-61.5 -192
t-106.5 -157t-160.5 -104.5t-215.5 -38.5zM516 147q156 0 248 87t92 229q0 130 -71.5 195t-206.5 65q-146 0 -233 -81.5t-87 -219.5q0 -127 71 -201t187 -74z" />
    <glyph glyph-name="uni2206" unicode="&#x2206;" horiz-adv-x="1390" 
d="M104 0l508 1434h166l508 -1434h-1182zM348 170h696l-301 858q-39 121 -47 152q-27 -95 -49 -152z" />
    <glyph glyph-name="product" unicode="&#x220f;" horiz-adv-x="1474" 
d="M1094 -287v1547h-715v-1547h-178v1721h1073v-1721h-180z" />
    <glyph glyph-name="summation" unicode="&#x2211;" horiz-adv-x="1271" 
d="M109 -289v156l528 725l-500 684v156h1008v-172h-776l491 -666l-520 -711h846v-172h-1077z" />
    <glyph glyph-name="minus" unicode="&#x2212;" horiz-adv-x="1320" 
d="M180 616v172h963v-172h-963z" />
    <glyph glyph-name="uni2215" unicode="&#x2215;" horiz-adv-x="673" 
d="M-238 -25l981 1483h168l-981 -1483h-168z" />
    <glyph glyph-name="uni2219" unicode="&#x2219;" horiz-adv-x="460" 
d="M229 575q-59 0 -100 42t-41 98q0 57 41 99t100 42t101.5 -42.5t42.5 -98.5t-42.5 -98t-101.5 -42z" />
    <glyph glyph-name="radical" unicode="&#x221a;" horiz-adv-x="1140" 
d="M1065 1434l-436 -1434h-162l-358 686h184l237 -461l349 1209h186z" />
    <glyph glyph-name="infinity" unicode="&#x221e;" horiz-adv-x="2064" 
d="M1503 252q-169 0 -282 85.5t-189 237.5q-38 -71 -81.5 -126t-100.5 -101.5t-130 -71t-159 -24.5q-205 0 -339 126.5t-134 346.5q0 147 63.5 256.5t170 164t239.5 54.5q85 0 158.5 -25.5t130.5 -72.5t100 -102.5t82 -127.5q78 155 188.5 241.5t278.5 86.5
q135 0 242.5 -54.5t171 -164t63.5 -256.5q0 -220 -134 -346.5t-339 -126.5zM575 418q218 0 383 307q-168 309 -383 309q-135 0 -222 -83t-87 -226t86.5 -225t222.5 -82zM1489 418q135 0 221 82t86 225t-86 226t-221 83q-221 0 -385 -309q161 -307 385 -307z" />
    <glyph glyph-name="integral" unicode="&#x222b;" horiz-adv-x="878" 
d="M301 -287q-114 0 -203 47v138q84 -31 150 -31q102 0 102 106v1248q0 127 62.5 182t165.5 55q112 0 202 -49v-137q-94 33 -149 33q-103 0 -103 -109v-1245q0 -238 -227 -238z" />
    <glyph glyph-name="approxequal" unicode="&#x2248;" horiz-adv-x="1320" 
d="M877 752q-58 0 -122.5 19.5t-112 43t-103.5 43t-99 19.5q-61 0 -98.5 -34.5t-42.5 -90.5h-117q0 128 64 210t200 82q74 0 156.5 -30.5t155.5 -61t123 -30.5q61 0 98.5 33.5t42.5 88.5h119q0 -126 -65 -209t-199 -83zM877 360q-58 0 -122.5 19.5t-112 43t-103.5 43
t-99 19.5q-61 0 -98.5 -34.5t-42.5 -90.5h-117q0 61 14.5 112.5t44.5 93t82.5 65.5t122.5 24q59 0 124 -19t112.5 -42.5t103 -42.5t95.5 -19q61 0 98.5 34t42.5 89h119q0 -81 -25.5 -145.5t-86.5 -107t-152 -42.5z" />
    <glyph glyph-name="notequal" unicode="&#x2260;" horiz-adv-x="1320" 
d="M631 432l-92 -194h-187l92 194h-249v178h340l90 185h-430v178h516l88 178h186l-90 -178h258v-178h-344l-90 -185h434v-178h-522z" />
    <glyph glyph-name="lessequal" unicode="&#x2264;" horiz-adv-x="1320" 
d="M1141 373l-961 348v162l961 350v-189l-723 -241l723 -242v-188zM180 0v172h963v-172h-963z" />
    <glyph glyph-name="greaterequal" unicode="&#x2265;" horiz-adv-x="1320" 
d="M180 373v188l723 242l-723 241v189l961 -350v-162zM180 0v172h963v-172h-963z" />
    <glyph glyph-name="lozenge" unicode="&#x25ca;" horiz-adv-x="1249" 
d="M543 -25l-414 742l414 741h168l411 -741l-411 -742h-168zM627 1276l-320 -559l320 -557l319 557z" />
    <glyph glyph-name="uni25CC" unicode="&#x25cc;" horiz-adv-x="1349" 
d="M614 1217q0 29 17 47t45 18t44.5 -18t16.5 -47q0 -28 -16.5 -45t-44.5 -17t-45 17t-17 45zM428 1180q0 29 18 47t46 18q27 0 44 -18t17 -47q0 -26 -17.5 -44t-43.5 -18q-28 0 -46 18t-18 44zM797 1180q0 27 18 45t43 18q29 0 47.5 -17.5t18.5 -45.5q0 -27 -18.5 -44.5
t-47.5 -17.5q-27 0 -44 17.5t-17 44.5zM272 1077q0 28 18 45t46 17t44.5 -17t16.5 -45q0 -29 -16.5 -46t-44.5 -17t-46 17t-18 46zM954 1077q0 28 17 45t45 17t45.5 -17t17.5 -45q0 -29 -17.5 -46t-45.5 -17t-45 17t-17 46zM1059 920q0 27 17.5 46t43.5 19q27 0 45.5 -19
t18.5 -46q0 -26 -18 -44t-46 -18q-26 0 -43.5 18t-17.5 44zM168 920q0 28 17.5 45.5t45.5 17.5t46 -17.5t18 -45.5q0 -26 -19.5 -45t-44.5 -19q-27 0 -45 18.5t-18 45.5zM129 735q0 29 19 46.5t47 17.5t44.5 -17.5t16.5 -46.5q0 -28 -16.5 -44.5t-44.5 -16.5t-47 17t-19 44z
M1096 735q0 29 16.5 46.5t44.5 17.5q27 0 46.5 -18t19.5 -46q0 -27 -19.5 -44t-46.5 -17q-28 0 -44.5 16.5t-16.5 44.5zM168 551q0 28 17.5 45.5t45.5 17.5q27 0 44.5 -18t17.5 -45q0 -28 -18 -46t-44 -18q-27 0 -45 18.5t-18 45.5zM1057 553q0 26 18.5 43.5t44.5 17.5
q28 0 46 -17.5t18 -43.5q0 -28 -18 -46t-46 -18t-45.5 18t-17.5 46zM272 395q0 28 18 46t46 18q27 0 44 -18t17 -46t-16.5 -44.5t-44.5 -16.5t-46 17t-18 44zM954 395q0 28 17 46t45 18t45.5 -18t17.5 -46t-17.5 -44.5t-45.5 -16.5t-45 16.5t-17 44.5zM428 293
q0 26 18.5 43.5t47.5 17.5q26 0 43.5 -17.5t17.5 -43.5q0 -27 -18.5 -46.5t-42.5 -19.5q-29 0 -47.5 19t-18.5 47zM799 291q0 28 17.5 45.5t43.5 17.5q28 0 46 -17.5t18 -45.5t-18 -46t-46 -18q-26 0 -43.5 18t-17.5 46zM614 254q0 28 17 45.5t45 17.5t44.5 -17.5
t16.5 -45.5t-17 -46t-44 -18q-28 0 -45 18t-17 46z" />
    <glyph glyph-name="uniF6C3" unicode="&#xf6c3;" horiz-adv-x="0" 
d="M-260 1495v-16q0 -288 -182 -467l-54 39q27 57 44.5 187t17.5 257h174z" />
    <glyph glyph-name="u1F3A9" unicode="&#x1f3a9;" horiz-adv-x="1914" 
d="M940 18q-171 0 -330.5 50t-274.5 131.5t-184 189.5t-69 221q0 49 20 91.5t51 73.5t82 60t99.5 49t116.5 44q38 143 139 389q23 53 51 83t74 30q64 0 133 -34t113 -34q37 0 110 34t133 34q36 0 65 -23t44 -66q13 -34 47 -125.5t57.5 -158t42.5 -129.5q70 -20 129.5 -46
t118 -65t92 -94t33.5 -121q0 -107 -69 -212.5t-186 -187.5t-285 -133t-353 -51zM961 424q102 0 193.5 28.5t153.5 71t107.5 93t66.5 95t21 76.5q0 22 -14 62l-29 76q-62 -114 -209.5 -186t-296.5 -72q-57 0 -123 13.5t-138 41.5t-137 81t-105 122l-39 -113q-4 -16 -4 -22
q0 -24 17.5 -64.5t61 -94t104 -99t158 -77.5t212.5 -32z" />
    <glyph glyph-name="u1F427" unicode="&#x1f427;" horiz-adv-x="1445" 
d="M475 -10q-8 0 -38.5 9.5t-73 23t-70.5 20.5q-25 7 -71.5 17t-57.5 12q-7 1 -17 4.5t-12 3.5q-33 9 -33 41q0 15 12.5 41t12.5 45q0 20 -9 47t-9 37q0 34 34 37q9 3 56 8q59 13 59 70q4 -24 4 -29q0 -26 -21.5 -45t-50.5 -19h-38q-11 0 -18 -5.5t-7 -12.5
q0 -15 12.5 -45.5t12.5 -48.5q0 -15 -11.5 -40t-11.5 -40t14 -21q5 -1 110 -24.5t171 -44.5q18 -6 39 -6q37 0 63.5 16t26.5 51q0 50 -41 117q-151 237 -205 237q-10 0 -16 -3t-8.5 -6t-3.5 -3q-9 0 -9 39q0 32 15 62q16 24 34.5 68.5t22.5 53.5q19 69 43 107q6 13 23 35
q13 17 39.5 53.5t41.5 54.5q27 53 27 74q0 3 -1 9t-1 9q-8 104 -8 256q0 93 57.5 141t134.5 48q61 0 108.5 -19t74 -47t43.5 -64.5t22.5 -67t5.5 -60.5v-33q0 -179 117 -305q72 -75 121 -213q25 -76 27 -127q4 -20 4 -31q0 -50 -50 -84q-45 -67 -94 -67q-19 0 -35 8
q-21 6 -40 43t-31 37q-14 0 -22.5 -19.5t-8.5 -42.5q0 -19 7 -60.5t7 -68.5q0 -20 -5 -60t-5 -63q0 -29 24 -51t56 -22q35 0 63 28q75 61 156 88q3 1 16 5.5t22.5 8.5t21 10t18 13.5t6.5 16.5q0 14 -18 25t-39.5 19.5t-39.5 32t-18 58.5q0 32 11 47q4 -38 8 -53
q8 -28 27.5 -48.5t38 -29t32.5 -20.5t14 -27q0 -36 -83 -76q-65 -32 -113 -64l-64 -53q-18 -18 -73 -18q-35 0 -57.5 11t-30.5 24.5t-20 24.5t-28 11q-15 0 -47 2.5t-49 2.5q-18 0 -55.5 -2.5t-58.5 -2.5q-44 0 -80 -17.5t-62.5 -35.5t-46.5 -18zM586 68q18 9 18 32
q0 9 -3.5 19t-8 18t-9.5 14.5t-9 10.5l-3 4q0 3 6 6.5t11 3.5q4 0 14.5 -8t36.5 -16.5t68 -8.5q51 0 103 20t71 58q4 8 12 14.5t12 6.5q8 0 8 -29q0 -47 -16 -88q-6 -30 -6 -33q0 -12 20 -12q6 47 12 80.5t8.5 47.5t2.5 30q0 15 -3.5 38t-7 41t-3.5 19q0 90 57 90q6 0 6 6
q3 22 25 35.5t49 13.5q14 0 32.5 -8t28.5 -10q-6 11 -24 22t-21 13q12 36 12 73q0 34 -10.5 79t-36 92t-59.5 63q39 -50 65.5 -116.5t26.5 -125.5q0 -17 -4 -41q-9 -39 -55 -39q-23 0 -23 45q0 75 -19.5 147.5t-56.5 112.5q-16 82 -63 150q-16 16 -16 49v12q12 30 12 45
t-11 23t-34 14t-29 9q-6 6 -17.5 9.5t-17.5 10t-6 23.5q0 21 10.5 39t32.5 18q18 0 29.5 -14t11.5 -35q0 -16 -4 -26.5t-4 -12.5q0 -8 27 -8q11 4 14 12q0 69 -14 96q-23 35 -54 35q-28 0 -53 -19.5t-25 -48.5q0 -31 5 -51q-10 8 -37 8h-17q-8 0 -10 2t-2 9q0 20 -3 38
t-15 36t-33 18q-20 0 -34.5 -24.5t-14.5 -51.5q0 -15 7.5 -39t20.5 -24q3 0 6.5 3t6.5 6l2 3q-12 0 -18.5 15t-6.5 30q0 41 31 41q16 0 23.5 -17t7.5 -38q0 -12 -11 -19q-3 -5 -6 -8.5t-6.5 -7.5t-5 -5.5t-6.5 -5t-6 -4.5t-8 -6t-9 -6q-10 -8 -14 -22q-6 -3 -6 -7
q0 -8 12 -12q9 -13 16.5 -20.5t14 -12t8.5 -6.5q8 -8 33 -8h14q22 0 80 14q30 6 50.5 17.5t28.5 19.5l7 8q1 0 3 -1t3 -1q6 0 6 -8t-12 -16q-52 -18 -86 -33q-53 -22 -90 -22q-3 0 -10 2t-11 2h-18q27 -35 59 -35q48 0 125 51q2 1 6.5 1.5t10 2t10.5 4.5q2 0 8 -6
q0 -3 -1 -6t-3.5 -5t-4 -3t-6.5 -4t-8 -4q-23 -10 -90 -56q-28 -28 -53 -28q-31 0 -45 24l-43 60q-6 -6 -6 -9q0 -2 1 -6t1 -6q0 -7 -14 -35q-41 -85 -41 -106q0 -9 4 -21.5t4 -15.5q-15 -8 -27 -37q-61 -105 -61 -186q0 -21 2 -33q0 -3 -3 -15.5t-3 -21.5q-2 -10 -13 -10
q-6 0 -10 4q-4 5 -11 17.5t-11 17.5q-11 25 -11 53q0 11 4 39v8q-16 -8 -16 -51q0 -36 16 -68q2 -21 25 -39q40 -32 68 -63l108 -86q19 -16 19 -39q0 -17 -12 -31t-21 -14q-17 0 -17 -6q0 -2 5.5 -8.5t13 -15.5t10.5 -15q22 -38 25 -94zM793 1141h8q2 2 2 12q0 6 -12 18
q-5 5 -9 5t-6 -5q17 -10 17 -30zM604 1133q4 4 4 8q0 7 -4.5 17.5t-7.5 10.5q-6 0 -6 -10q8 0 8 -18q0 -8 6 -8zM618 1094q-3 0 -6 8q17 9 19 12q-3 -13 -6 -14zM700 1098q-5 5 -8 16q4 -4 15 -4v-8q0 -4 -7 -4z" />
    <glyph glyph-name="i.TRK" horiz-adv-x="520" 
d="M260 1237q-46 0 -78 32.5t-32 78.5q0 47 32 80.5t78 33.5q47 0 80 -33.5t33 -80.5q0 -46 -33 -78.5t-80 -32.5zM172 0v1047h178v-1047h-178z" />
    <glyph glyph-name="Jacute" horiz-adv-x="1118" 
d="M604 1567l291 319h254l-365 -319h-180zM471 -25q-302 0 -414 258l148 76q43 -87 102.5 -126.5t165.5 -39.5q272 0 272 322v969h179v-963q0 -114 -28 -203t-73 -143t-106 -89t-121 -48t-125 -13z" />
    <glyph glyph-name="jacute" horiz-adv-x="520" 
d="M57 1180l291 319h254l-364 -319h-181zM-12 -438l-84 135q151 24 209.5 77.5t58.5 151.5v1121h178v-1055q0 -190 -78 -283q-99 -121 -284 -147z" />
    <glyph glyph-name="zero.dnom" horiz-adv-x="792" 
d="M395 -14q-69 0 -123 26.5t-87.5 69.5t-55.5 102.5t-30.5 120t-8.5 127.5q0 64 8.5 123.5t30 119.5t55 104t88 72t123.5 28t123.5 -26.5t88.5 -69.5t56 -102.5t30.5 -120.5t8.5 -128q0 -64 -8 -123t-29.5 -119.5t-55 -104.5t-88.5 -71.5t-126 -27.5zM395 125
q46 0 78.5 28.5t49 76.5t23.5 97t7 105q0 60 -7 110.5t-24 97.5t-49.5 74t-77.5 27t-77.5 -28.5t-48 -76.5t-22.5 -97.5t-7 -106.5q0 -60 7 -110t23.5 -97t48 -73.5t76.5 -26.5z" />
    <glyph glyph-name="one.dnom" horiz-adv-x="407" 
d="M141 0v674h-104v106q57 0 89 21t50 63h111v-864h-146z" />
    <glyph glyph-name="two.dnom" horiz-adv-x="741" 
d="M68 0q0 84 22 153.5t66 123.5t93.5 94t119.5 82q66 39 98.5 77t32.5 97q0 47 -36.5 84t-103.5 37q-129 0 -157 -140l-135 41q22 102 102.5 166t198.5 64q126 0 204 -70.5t78 -187.5q0 -55 -15.5 -98t-49 -79t-71.5 -63.5t-99 -61.5q-141 -80 -183 -182h416v-137h-581z
" />
    <glyph glyph-name="three.dnom" horiz-adv-x="745" 
d="M360 -20q-115 0 -195 61.5t-116 169.5l139 47q24 -72 70.5 -109.5t106.5 -37.5q65 0 103 35.5t38 95.5q0 55 -36 95t-101 40h-66v131h53q59 0 88 34.5t29 86.5q0 50 -31 84.5t-88 34.5q-98 0 -145 -115l-137 47q36 90 112.5 144.5t175.5 54.5q120 0 193.5 -67.5
t73.5 -172.5q0 -55 -29.5 -106t-79.5 -78q65 -25 103 -79.5t38 -125.5q0 -124 -82.5 -197t-216.5 -73z" />
    <glyph glyph-name="four.dnom" horiz-adv-x="778" 
d="M461 0v199h-432v86l448 581h127v-532h109v-135h-109v-199h-143zM461 334v321l-244 -321h244z" />
    <glyph glyph-name="five.dnom" horiz-adv-x="735" 
d="M342 -20q-94 0 -167.5 31t-111.5 71l80 111q88 -80 195 -80q83 0 131.5 47t48.5 121q0 70 -39 112.5t-110 42.5q-106 0 -162 -88l-119 51l49 461h469v-137h-346l-24 -197q62 41 147 41q131 0 207 -81t76 -203q0 -133 -90 -218t-234 -85z" />
    <glyph glyph-name="six.dnom" horiz-adv-x="737" 
d="M381 -20q-142 0 -217.5 94.5t-75.5 242.5q0 214 127.5 368t345.5 192v-132q-101 -22 -182.5 -87.5t-114.5 -168.5q54 48 150 48q114 0 188 -78t74 -197q0 -123 -81.5 -202.5t-213.5 -79.5zM385 113q61 0 103 40t42 103q0 69 -40.5 109.5t-104.5 40.5q-67 0 -107 -40
t-40 -108q0 -67 40 -106t107 -39z" />
    <glyph glyph-name="seven.dnom" horiz-adv-x="630" 
d="M195 0q1 217 62 390t171 333h-401v137h569v-135q-70 -80 -121 -177.5t-77.5 -195.5t-38.5 -183.5t-13 -168.5h-151z" />
    <glyph glyph-name="eight.dnom" horiz-adv-x="765" 
d="M383 -20q-134 0 -216.5 75.5t-82.5 196.5q0 152 135 223q-43 26 -69.5 70t-26.5 98q0 104 72.5 170t187.5 66t186.5 -65.5t71.5 -170.5q0 -52 -26 -97.5t-68 -70.5q60 -33 96.5 -90t36.5 -133q0 -122 -82 -197t-215 -75zM383 530q54 0 86.5 31t32.5 78q0 51 -32.5 83
t-86.5 32q-51 0 -85 -32t-34 -83q0 -46 33.5 -77.5t85.5 -31.5zM383 109q66 0 107.5 41t41.5 108q0 62 -41.5 105t-107.5 43q-65 0 -108.5 -43.5t-43.5 -104.5q0 -67 43 -108t109 -41z" />
    <glyph glyph-name="nine.dnom" horiz-adv-x="737" 
d="M190 -18v133q100 16 177 79.5t112 178.5q-54 -51 -147 -51q-119 0 -195 78.5t-76 197.5q0 122 83 201.5t214 79.5q144 0 220.5 -93t76.5 -239q0 -226 -126 -382.5t-339 -182.5zM354 453q69 0 109.5 40.5t40.5 108.5q0 67 -41 106.5t-109 39.5q-61 0 -102 -40.5
t-41 -105.5q0 -70 39 -109.5t104 -39.5z" />
    <glyph glyph-name="zero.numr" horiz-adv-x="792" 
d="M395 565q-69 0 -123 26.5t-87.5 69.5t-55.5 102.5t-30.5 120.5t-8.5 128q0 64 8.5 123t30 119.5t55 104.5t88 71.5t123.5 27.5q86 0 148.5 -39t95.5 -106t48 -141.5t15 -159.5q0 -64 -8 -123t-29.5 -119.5t-55 -104.5t-88.5 -72t-126 -28zM395 705q46 0 78.5 28.5
t49 76.5t23.5 97t7 105q0 60 -7 110.5t-24 97.5t-49.5 74t-77.5 27t-77.5 -28.5t-48 -76.5t-22.5 -97.5t-7 -106.5q0 -60 7 -110t23.5 -97t48 -73.5t76.5 -26.5z" />
    <glyph glyph-name="one.numr" horiz-adv-x="407" 
d="M141 580v673h-104v107q57 0 89 21t50 63h111v-864h-146z" />
    <glyph glyph-name="two.numr" horiz-adv-x="741" 
d="M68 580q0 84 22 153t66 123t93 94t120 82q66 39 98.5 77t32.5 97q0 47 -36.5 84t-103.5 37q-129 0 -157 -139l-135 41q22 101 102.5 165t198.5 64q126 0 204 -70.5t78 -187.5q0 -55 -15 -98t-49 -79t-72 -63t-99 -61q-141 -80 -183 -182h416v-137h-581z" />
    <glyph glyph-name="three.numr" horiz-adv-x="745" 
d="M360 559q-114 0 -194.5 62t-116.5 170l139 47q24 -72 70.5 -110t106.5 -38q65 0 103 35.5t38 95.5q0 55 -36 95t-101 40h-66v131h53q59 0 88 34.5t29 86.5q0 50 -31 84.5t-88 34.5q-98 0 -145 -115l-137 48q36 90 112.5 144t175.5 54q120 0 193.5 -67t73.5 -172
q0 -55 -29.5 -106.5t-79.5 -78.5q65 -25 103 -79.5t38 -125.5q0 -124 -82.5 -197t-216.5 -73z" />
    <glyph glyph-name="four.numr" horiz-adv-x="778" 
d="M461 580v198h-432v86l448 582h127v-533h109v-135h-109v-198h-143zM461 913v322l-244 -322h244z" />
    <glyph glyph-name="five.numr" horiz-adv-x="735" 
d="M342 561q-94 0 -167.5 30.5t-111.5 70.5l80 110q88 -80 195 -80q83 0 131.5 47t48.5 121q0 71 -39 113.5t-110 42.5q-106 0 -162 -88l-119 51l49 461h469v-137h-346l-24 -197q62 41 147 41q131 0 207 -81.5t76 -203.5q0 -133 -90 -217t-234 -84z" />
    <glyph glyph-name="six.numr" horiz-adv-x="737" 
d="M381 561q-142 0 -217.5 94t-75.5 242q0 214 127.5 367.5t345.5 191.5v-131q-101 -22 -182.5 -87.5t-114.5 -168.5q53 47 150 47q114 0 188 -77.5t74 -196.5q0 -123 -81.5 -202t-213.5 -79zM385 692q61 0 103 40.5t42 103.5q0 69 -40.5 109t-104.5 40q-67 0 -107 -39.5
t-40 -107.5q0 -67 40.5 -106.5t106.5 -39.5z" />
    <glyph glyph-name="seven.numr" horiz-adv-x="630" 
d="M195 580q1 217 62 390t171 333h-401v137h569v-135q-70 -80 -121 -177.5t-77.5 -195.5t-38.5 -183.5t-13 -168.5h-151z" />
    <glyph glyph-name="eight.numr" horiz-adv-x="765" 
d="M383 559q-134 0 -216.5 75.5t-82.5 196.5q0 153 135 224q-43 26 -69.5 70t-26.5 98q0 104 72.5 169.5t187.5 65.5t186.5 -65.5t71.5 -169.5q0 -52 -26 -97.5t-68 -70.5q60 -32 96.5 -90t36.5 -134q0 -122 -82 -197t-215 -75zM383 1110q54 0 86.5 31t32.5 78
q0 51 -32.5 82.5t-86.5 31.5q-52 0 -85.5 -31.5t-33.5 -82.5q0 -46 33.5 -77.5t85.5 -31.5zM383 688q66 0 107.5 41.5t41.5 108.5q0 62 -41.5 104.5t-107.5 42.5q-65 0 -108.5 -43t-43.5 -104q0 -67 43.5 -108.5t108.5 -41.5z" />
    <glyph glyph-name="nine.numr" horiz-adv-x="737" 
d="M190 563v131q100 16 177 79.5t112 178.5q-54 -51 -147 -51q-119 0 -195 79t-76 198q0 122 83 201t214 79q144 0 220.5 -93t76.5 -239q0 -226 -126.5 -382.5t-338.5 -180.5zM354 1032q69 0 109.5 41t40.5 109q0 67 -41 106t-109 39q-61 0 -102 -40t-41 -105q0 -70 39 -110
t104 -40z" />
    </font>
</defs>
</svg>
